<svg width="286" height="233" viewBox="0 0 286 233" fill="none" xmlns="http://www.w3.org/2000/svg">
<path d="M135.681 2.66891C123.825 3.81003 117.98 4.86765 109.659 7.40036C100.864 10.0444 93.7108 13.1894 85.4447 18.0044C69.8309 27.1611 56.8612 39.6299 47.1478 54.8261C44.2811 59.3071 43.8358 60.0586 41.3587 65.0405C32.4803 82.8252 28.3612 103.449 29.8084 123.237C31.033 140.577 35.8758 156.747 44.0306 171.025C53.0482 186.722 65.5169 200.137 80.0174 209.656C91.2337 217.003 101.448 221.596 113.833 224.852C132.397 229.723 154.719 229.583 172.698 224.49C199.751 216.809 221.905 200.471 237.575 176.675C238.855 174.727 239.912 173.057 239.912 172.973C239.912 172.89 240.246 172.305 240.636 171.665C241.582 170.162 245.785 161.757 246.731 159.475C250.962 149.177 253.634 138.768 254.803 128.164C255.331 123.349 255.582 111.52 255.22 107.846C255.081 106.455 254.83 103.894 254.663 102.141C253.467 90.0615 249.57 76.9248 243.67 65.0962C237.936 53.6572 231.73 45.0849 222.517 35.8169C207.739 20.9824 189.982 10.8794 169.804 5.8696C164.627 4.56149 159.422 3.67087 152.659 2.94724C150.906 2.75241 137.184 2.52975 135.681 2.66891ZM156.973 5.95309C170.472 7.84567 181.716 11.269 192.32 16.7798C211.691 26.8549 226.525 40.7153 237.742 59.2793C245.562 72.2212 250.767 88.0576 252.493 104.089C252.966 108.625 252.966 121.734 252.493 126.633C250.238 149.483 241.054 170.607 225.69 188.281C222.35 192.149 215.587 198.662 211.941 201.584C205.429 206.789 198.916 210.964 191.624 214.582C186.308 217.226 184.276 218.089 178.96 219.926C171.613 222.431 166.102 223.767 157.697 225.047C149.319 226.327 135.932 226.299 126.914 224.991C103.201 221.568 81.3255 210.686 64.5428 193.931C52.4359 181.852 43.3626 167.323 37.8797 151.236C35.0687 142.998 33.3709 134.927 32.3968 125.241C31.868 119.758 32.0072 108.904 32.6751 103.003C35.6532 77.3979 47.0365 54.2138 65.4334 36.29C82.5501 19.6743 104.203 9.12595 127.61 5.98093C133.872 5.14597 135.96 5.03464 143.892 5.14597C150.599 5.20163 152.631 5.34079 156.973 5.95309Z" fill="#00417E"/>
<path d="M166.38 52.043C163.375 52.1265 160.814 52.2656 160.703 52.377C160.536 52.5718 159.923 61.311 158.782 80.71C158.532 84.9126 158.281 88.6421 158.198 88.9761C158.086 89.5884 157.947 89.6162 155.164 89.6162H152.242V87.7236C152.242 82.686 151.852 74.1416 151.629 73.8911C151.268 73.5015 151.017 73.6963 143.308 80.2368C130.449 91.147 129.28 92.0933 129.085 92.1211C128.946 92.1211 128.863 88.7813 128.835 84.6621C128.807 76.3403 128.668 74.7261 128 74.7261C127.75 74.7261 124.604 77.231 121.042 80.2925C110.076 89.6997 106.514 92.6777 106.263 92.6777C106.152 92.6777 106.013 90.3955 106.013 87.5845C105.957 79.708 105.707 76.4238 105.178 76.3125C104.927 76.2568 100.474 80.209 94.3232 85.9146L83.9141 95.6279L84.0254 106.315C84.0811 112.216 84.1646 117.226 84.2202 117.448C84.248 117.671 84.3037 120.343 84.3037 123.349C84.3315 127.885 84.415 128.859 84.7212 128.859C84.9438 128.859 85.9736 128.331 87.0034 127.69C89.2578 126.327 91.874 125.241 94.5181 124.518C96.021 124.1 97.3848 123.989 100.892 124.017C104.899 124.017 105.595 124.1 107.738 124.768C112.553 126.243 115.587 127.997 119.233 131.392L121.292 133.312L133.928 133.034C140.858 132.895 147.093 132.756 147.761 132.756H148.985L148.874 122.931L148.763 113.134L156.973 112.939C161.482 112.828 165.323 112.772 165.49 112.828C165.685 112.912 165.852 116.001 165.991 122.486C166.102 127.718 166.241 132.116 166.325 132.255C166.492 132.533 175.426 132.561 179.35 132.283L182.105 132.116L181.911 122.625C181.827 117.393 181.688 109.071 181.604 104.089C181.438 92.8169 181.271 88.7534 180.742 82.9365C180.519 80.4038 180.102 75.4497 179.795 71.9429C178.515 56.9414 178.098 52.4326 177.986 52.0986C177.847 51.7368 177.068 51.7368 166.38 52.043ZM177.124 55.0488C177.263 56.1621 177.318 57.1084 177.263 57.1641C177.207 57.2197 173.617 57.3589 169.303 57.4702L161.426 57.665V55.7168C161.426 54.4365 161.538 53.6572 161.788 53.5181C162.094 53.3232 171.835 52.9614 175.481 52.9893L176.873 53.0171L177.124 55.0488ZM178.098 65.7363C178.432 69.772 179.016 76.6187 179.378 80.9605C179.768 85.3301 180.018 88.9204 179.99 88.9482C179.962 88.9761 176.623 89.0874 172.559 89.1709C168.496 89.2822 163.903 89.4214 162.345 89.5049L159.478 89.644V88.6143C159.478 88.0298 159.729 83.688 160.035 78.9287C160.369 74.1694 160.758 67.7124 160.953 64.5674L161.287 58.8618L165.879 58.7227C168.412 58.6392 172.058 58.5278 173.979 58.5L177.458 58.4443L178.098 65.7363ZM150.878 78.2607C150.906 79.6802 150.989 83.0479 151.101 85.7197L151.268 90.5903L155.303 90.6738C157.53 90.7017 163.987 90.6182 169.637 90.479C175.314 90.3398 179.962 90.2564 179.99 90.2842C180.157 90.4233 181.02 130.808 180.853 130.947C180.797 131.002 177.764 131.114 174.062 131.225L167.354 131.448L167.16 121.874C166.993 114.665 166.854 112.216 166.603 111.938C166.297 111.631 164.516 111.604 156.945 111.798L147.649 112.021L147.761 121.79L147.872 131.587L140.664 131.754C136.711 131.837 130.755 132.004 127.471 132.088L121.487 132.255L120.597 131.142C118.37 128.386 112.331 124.768 107.961 123.571C103.563 122.375 97.8022 122.375 93.5161 123.571C92.375 123.905 90.1206 124.768 88.5342 125.547C86.9756 126.327 85.6396 126.911 85.584 126.855C85.5562 126.8 85.4448 121.623 85.3335 115.361C85.25 109.071 85.083 102.252 84.9995 100.192L84.8325 96.4351L88.0054 93.4849C98.3032 83.855 104.454 78.2051 104.538 78.2886C104.593 78.3442 104.705 81.8789 104.816 86.165C104.899 90.4233 105.011 94.0972 105.094 94.2642C105.4 95.2939 105.762 94.9878 121.209 81.7119L127.332 76.4517L127.499 79.0679C127.61 80.5151 127.694 84.3281 127.722 87.5566C127.75 92.4272 127.833 93.5127 128.167 93.791C128.501 94.0693 128.668 94.0693 129.058 93.7632C130.338 92.7612 139.884 84.7178 144.866 80.4873C147.928 77.8433 150.516 75.7002 150.655 75.7002C150.767 75.7002 150.878 76.8691 150.878 78.2607Z" fill="#00417E"/>
<path d="M158.086 101.306L151.824 101.445V104.506V107.568L154.329 107.651C155.721 107.679 158.894 107.624 161.426 107.512L166.019 107.29L166.102 104.534C166.13 103.003 166.074 101.667 165.935 101.528C165.573 101.166 165.128 101.139 158.086 101.306ZM165.044 104.367V106.315H162.317C160.786 106.315 158.031 106.399 156.194 106.51L152.798 106.677V104.562V102.419H158.921H165.044V104.367Z" fill="#00417E"/>
<path d="M134.651 101.807C132.202 101.862 131.117 101.974 131.033 102.224C130.95 102.419 130.95 103.783 131.033 105.258L131.145 107.985H138.186C143.92 107.985 145.283 107.902 145.534 107.596C145.784 107.317 145.812 106.427 145.645 104.451L145.422 101.723H141.804C139.828 101.723 136.6 101.751 134.651 101.807ZM144.393 104.84L144.476 106.872H138.325H132.202V104.924V103.003L136.6 102.892C138.993 102.836 141.721 102.809 142.639 102.836H144.309L144.393 104.84Z" fill="#00417E"/>
<path d="M110.494 102.558C110.243 102.864 110.187 103.671 110.299 105.48C110.382 106.844 110.521 108.097 110.633 108.264C110.828 108.57 120.458 108.653 123.269 108.375L124.994 108.18L124.911 105.23L124.827 102.28L117.841 102.196C111.802 102.141 110.8 102.196 110.494 102.558ZM123.853 105.146V107.067L120.736 107.234C119.01 107.345 116.255 107.429 114.641 107.429H111.69L111.523 105.564C111.384 104.228 111.44 103.643 111.69 103.476C111.857 103.365 114.696 103.254 117.953 103.254H123.853V105.146Z" fill="#00417E"/>
<path d="M92.542 102.697L90.0371 102.836L90.0928 105.703C90.1206 107.29 90.2041 108.653 90.2598 108.737C90.4546 108.904 104.12 108.848 104.426 108.653C104.538 108.57 104.649 107.29 104.649 105.787C104.649 103.755 104.538 102.948 104.259 102.725C103.87 102.391 98.3032 102.391 92.542 102.697ZM103.396 105.62V107.568L97.3569 107.651L91.2896 107.707V105.759V103.838L95.4087 103.727C97.6631 103.671 100.391 103.644 101.448 103.671H103.396V105.62Z" fill="#00417E"/>
<path d="M155.025 116.112C153.438 117.198 152.938 118.116 152.938 119.925C152.938 121.261 153.077 121.707 153.745 122.597L154.552 123.655L153.967 127.44C153.661 129.5 153.466 131.309 153.522 131.42C153.605 131.531 155.359 131.643 157.418 131.643C160.563 131.643 161.204 131.559 161.343 131.197C161.454 130.863 160.842 126.772 160.174 123.683C160.09 123.321 160.257 122.903 160.591 122.597C162.428 120.927 161.649 117.198 159.2 115.917C157.975 115.305 156.11 115.389 155.025 116.112ZM158.894 117.031C159.923 117.56 160.703 119.174 160.48 120.371C160.369 120.872 159.979 121.623 159.562 122.068L158.838 122.848L159.478 126.438C159.812 128.386 160.007 130.084 159.896 130.195C159.784 130.307 158.587 130.446 157.196 130.501L154.663 130.585L154.83 129.806C154.914 129.36 155.192 127.635 155.442 125.965C155.916 122.987 155.916 122.903 155.359 122.486C153.578 121.066 153.522 118.923 155.192 117.448C156.277 116.502 157.585 116.335 158.894 117.031Z" fill="#00417E"/>
<path d="M96.0206 129.11C91.1222 130.195 87.838 131.977 84.3312 135.511C80.8522 138.99 78.8761 142.581 77.7628 147.423C77.0948 150.262 77.0948 155.773 77.735 158.445C79.9894 167.574 87.0865 174.671 95.7701 176.452C106.792 178.734 117.479 173.057 121.626 162.731C122.099 161.562 122.461 160.504 122.461 160.365C122.461 159.976 125.383 159.669 125.996 160.003C126.274 160.143 127.248 161.033 128.167 161.952L129.809 163.649H131.924C133.065 163.649 134.206 163.51 134.429 163.371C134.679 163.204 134.93 162.258 135.125 160.671L135.403 158.222L138.548 158.083L141.665 157.944L142.556 156.664C143.057 155.94 144.003 154.604 144.643 153.686L145.84 152.016L147.844 151.849C148.957 151.765 154.078 151.626 159.199 151.542C164.32 151.459 172.058 151.32 176.372 151.208L184.22 151.042L184.304 155.467L184.387 159.892L186.196 159.976C187.198 160.003 188.868 159.948 189.954 159.836L191.902 159.614L191.791 155.216L191.707 150.847H193.544H195.381V154.02C195.381 155.745 195.464 157.749 195.548 158.473L195.743 159.753H199.166C201.421 159.753 202.645 159.642 202.784 159.447C202.896 159.252 202.951 157.137 202.923 154.715C202.868 150.374 202.868 150.346 203.508 150.123C204.733 149.733 206.235 148.537 207.07 147.284C207.766 146.227 207.905 145.726 207.905 144.39C207.905 143.471 207.738 142.414 207.516 141.968C206.903 140.799 204.733 138.962 203.536 138.601C202.506 138.294 186.948 138.545 141.749 139.603C135.208 139.77 134.151 139.742 134.151 139.38C134.151 139.157 133.956 138.322 133.733 137.543L133.288 136.096H131.423C130.393 136.096 129.28 136.179 128.946 136.263C128.584 136.374 127.666 137.292 126.886 138.35L125.467 140.271H123.073H120.652L120.04 139.213C119.01 137.404 116.672 134.815 114.863 133.424C112.803 131.865 109.436 130.195 106.736 129.388C103.897 128.553 99.11 128.414 96.0206 129.11ZM103.897 129.973C110.104 130.863 116.088 134.76 119.205 139.909L120.095 141.356L123.046 141.384H126.024L127.499 139.352L129.002 137.348H130.811H132.592L132.982 138.74C133.204 139.491 133.51 140.298 133.677 140.521C134.011 140.911 133.705 140.938 170.054 140.131C179.934 139.909 191.317 139.63 195.381 139.547C203.369 139.324 203.647 139.38 205.345 140.938C206.124 141.634 206.876 142.97 206.681 143.304C206.597 143.416 201.56 143.61 195.464 143.722C185.278 143.889 171.557 144.195 154.607 144.584C150.933 144.668 142.055 144.863 134.846 145.002C127.666 145.169 121.71 145.364 121.57 145.503C121.459 145.614 121.459 145.865 121.57 146.032C121.821 146.421 125.189 146.366 171.445 145.28C177.652 145.141 187.226 144.946 192.737 144.863C198.248 144.779 203.675 144.64 204.816 144.557L206.876 144.39L206.681 145.308C206.402 146.783 205.178 148.091 203.397 148.871L201.755 149.594L201.782 153.491C201.81 155.634 201.81 157.666 201.782 158.027C201.782 158.64 201.727 158.667 199.222 158.584L196.633 158.5L196.494 154.187L196.355 149.873H193.572H190.789L190.65 154.326L190.51 158.779L187.95 158.862L185.361 158.946V154.827C185.361 152.572 185.25 150.541 185.111 150.318C184.916 150.012 182.189 150.012 168.495 150.262C159.478 150.429 150.571 150.652 148.679 150.735L145.255 150.902L143.112 153.936L140.969 156.97H138.715C134.54 156.97 134.345 157.109 134.011 160.644L133.817 162.536H132.063H130.31L128.389 160.588L126.441 158.64H124.66C122.238 158.64 121.654 159.001 121.097 160.866C119.928 164.624 116.922 168.937 113.805 171.275C111.718 172.862 108.128 174.643 105.929 175.2C100.557 176.563 94.2394 175.645 89.4523 172.806C86.9752 171.359 82.9674 167.268 81.4366 164.624C74.7013 153.073 79.2379 137.821 91.15 132.088C95.3805 130.028 99.5553 129.36 103.897 129.973Z" fill="#00417E"/>
<path d="M88.6454 146.087C83.0512 147.535 81.3534 154.576 85.6674 158.361C89.2577 161.534 94.9633 160.031 96.7167 155.467C97.3012 153.936 97.1898 151.181 96.494 149.817C95.8817 148.648 94.518 147.312 93.2377 146.672C92.0409 146.06 89.8422 145.781 88.6454 146.087ZM93.2934 148.036C96.4384 150.04 96.9115 154.743 94.184 157.304C89.5639 161.645 82.2719 156.413 84.8881 150.624C85.9179 148.342 87.6435 147.256 90.3432 147.229C91.7069 147.229 92.2357 147.368 93.2934 148.036Z" fill="#00417E"/>
</svg>
