<svg width="263" height="263" viewBox="0 0 263 263" fill="none" xmlns="http://www.w3.org/2000/svg">
<path d="M124.888 1.00467C124.331 1.06131 121.813 1.31619 119.325 1.57108C85.0372 4.94119 54.1758 22.6414 33.9724 50.5369C29.1704 57.1638 23.5486 67.5574 20.6498 75.1472C12.2756 97.0955 10.8409 120.488 16.4334 143.201C23.5778 172.229 43.2249 198.114 70.28 214.143C73.1202 215.814 79.2983 219.184 79.5618 219.184C79.6497 219.184 81.1137 219.807 82.8412 220.6C93.0308 225.245 105.329 228.502 117.948 229.974C123.834 230.626 135.809 230.909 140.992 230.512C145.53 230.144 153.846 228.955 157.975 228.077C193.697 220.459 224.353 196.528 239.872 164.101C246.987 149.29 250.383 134.563 250.647 117.656C250.94 98.115 247.016 81.3211 238.144 64.159C226.871 42.3523 208.161 24.2273 185.644 13.2957C179.993 10.5486 179.554 10.3504 174.664 8.48123C167.081 5.56424 156.335 2.95877 147.287 1.85428C145.355 1.5994 143.188 1.34451 142.456 1.25955C140.875 1.06131 126.352 0.863068 124.888 1.00467ZM146.262 4.20486C154.402 5.28104 159.146 6.24393 166.027 8.25467C190.183 15.2498 212.114 30.6277 226.813 50.8201C233.84 60.4773 237.558 67.4441 241.951 79.282C248.48 96.8689 249.915 119.044 245.786 138.84C244.059 147.166 240.486 157.276 236.563 164.979C222.655 192.337 198.147 213.152 168.779 222.583C162.279 224.679 156.188 226.038 147.873 227.312C142.837 228.049 142.134 228.105 132.208 228.105C121.403 228.105 120.32 228.02 112.034 226.661C80.9087 221.563 52.9753 204.033 35.3778 178.545C19.0687 154.926 12.6856 127.143 16.9898 98.5398C19.3029 83.1902 25.891 66.8494 35.085 53.5105C44.689 39.6053 57.8065 27.5691 72.5345 19.158C87.936 10.3504 102.752 5.67752 121.228 3.80838C126.967 3.21365 140.377 3.44022 146.262 4.20486Z" fill="#00417E"/>
<path d="M129.573 64.4705C129.016 64.5271 126.937 64.8103 124.946 65.1501C120.964 65.8015 122.545 65.1501 88.141 80.4148C81.3772 83.4167 75.3162 86.0789 74.672 86.3621C74.0279 86.6169 70.28 88.2878 66.3272 90.0437C56.5182 94.405 56.0205 94.6033 52.7996 95.991L49.9302 97.1804V99.8142V102.448L54.7029 102.306C59.5048 102.136 64.2483 102.391 63.809 102.76C63.6626 102.873 60.5589 104.345 56.8696 106.045L50.223 109.103L50.2815 114.626L50.3694 120.148L61.0567 126.52C66.942 130.004 75.8433 135.271 80.8209 138.188C85.8279 141.105 92.3281 144.928 95.3147 146.684C98.3013 148.44 107.554 153.878 115.869 158.749L131.007 167.613L135.048 165.744C144.506 161.383 160.112 154.161 175.836 146.826C185.088 142.521 196.156 137.395 200.431 135.441C204.706 133.487 208.366 131.76 208.571 131.59C208.981 131.278 209.069 124.963 208.717 120.63L208.571 118.477L202.891 115.532C199.787 113.889 197.21 112.473 197.21 112.388C197.21 112.303 199.816 111.029 203.008 109.585C206.17 108.14 208.952 106.838 209.157 106.668C209.391 106.498 209.508 105.535 209.508 103.694V101.004L205.643 97.2937C198.704 90.6667 192.584 85.5691 186.318 81.2078C172.585 71.7205 159.321 66.4529 144.711 64.697C141.519 64.3289 132.559 64.1873 129.573 64.4705ZM140.553 65.6882C144.652 65.9431 151.416 66.8777 152.792 67.3591C153.407 67.5857 153.407 67.5857 152.851 67.8689C152.323 68.1521 144.945 71.4373 119.178 82.822C101.581 90.6101 93.2651 94.2917 86.3549 97.3503L79.3276 100.494L76.6924 99.6726C73.413 98.6814 67.9669 97.4919 65.3902 97.2371C64.2775 97.1238 63.3991 96.9539 63.3991 96.8406C63.3991 96.7273 65.1559 95.8777 67.2934 94.9431C73.208 92.3376 96.9544 81.8308 110.54 75.7986C126.645 68.6619 132.149 66.2546 133.379 65.8015C134.609 65.3484 134.99 65.3484 140.553 65.6882ZM128.958 66.0847C128.811 66.2263 107.495 75.7703 100.732 78.7156C98.3306 79.7634 93.1187 82.0574 89.1658 83.8132C85.213 85.5691 79.8839 87.9197 77.3073 89.0525C74.7306 90.1853 69.7237 92.3943 66.21 93.9519L59.7976 96.8123L57.4845 96.7839C56.2254 96.7556 55.2006 96.6707 55.2006 96.5574C55.2006 96.4441 58.1872 95.0564 61.8765 93.4421C65.5366 91.8279 76.5753 86.9568 86.3842 82.5955C96.2224 78.2625 106.295 73.7878 108.784 72.7117C111.272 71.6072 115.196 69.908 117.509 68.8884C120.408 67.614 122.545 66.906 124.39 66.5378C126.908 66.0564 129.251 65.8298 128.958 66.0847ZM158.853 68.9734C163.948 70.531 174.957 75.2888 174.957 75.9402C174.957 76.0818 174.459 76.3933 173.874 76.6482C173.259 76.8748 167.227 79.5652 160.463 82.5955C153.7 85.6541 143.891 90.0437 138.65 92.366C133.408 94.7166 126.44 97.8318 123.131 99.3044C119.822 100.805 116.016 102.533 114.64 103.128C113.264 103.751 109.281 105.535 105.797 107.064L99.4725 109.896L96.2809 108.14C93.1187 106.356 86.3842 103.156 83.2512 101.938C82.3142 101.57 81.5529 101.174 81.5529 101.089C81.5529 100.975 82.8998 100.296 84.5688 99.5876C86.2085 98.8796 90.337 97.0671 93.7043 95.5662C97.1008 94.0652 104.274 90.865 109.662 88.4861C115.05 86.1072 124.946 81.7458 131.622 78.8005C152.206 69.6531 155.456 68.2371 155.984 68.2371C156.247 68.2371 157.535 68.5769 158.853 68.9734ZM179.291 78.2625C183.8 80.9812 193.404 87.8064 193.404 88.3445C193.404 88.4578 192.642 88.8542 191.735 89.2507C189.919 90.0437 182.482 93.3855 165.148 101.23C159.204 103.921 148.986 108.537 142.456 111.51C135.926 114.456 127.728 118.166 124.244 119.78L117.89 122.669L117.187 122.159C116.806 121.847 114.728 120.29 112.561 118.676C110.394 117.061 106.968 114.654 104.919 113.323C102.84 111.992 101.171 110.831 101.171 110.746C101.171 110.661 106.88 108.027 113.849 104.94C137.947 94.1785 158.472 84.9744 169.54 79.9617C173.405 78.2341 176.597 76.7898 176.655 76.7615C176.685 76.7332 177.885 77.4128 179.291 78.2625ZM196.888 91.0916C200.021 93.7537 207.458 100.862 207.458 101.202C207.458 101.372 206.697 101.825 205.76 102.221C204.852 102.59 199.084 105.195 192.965 107.97C186.845 110.774 180.93 113.465 179.788 113.974C176.743 115.334 164.387 120.941 158.707 123.518C155.984 124.793 152.821 126.209 151.679 126.719C150.567 127.228 145.677 129.466 140.875 131.646L132.12 135.639L128.431 132.156C126.381 130.259 123.482 127.625 121.96 126.322C120.437 124.991 119.149 123.858 119.09 123.745C119.061 123.66 123.072 121.762 128.021 119.497C148.371 110.293 162.513 103.892 172.615 99.3328C178.5 96.699 185.293 93.6121 187.694 92.5359C193.784 89.7605 194.399 89.4773 194.692 89.4773C194.839 89.4773 195.805 90.2136 196.888 91.0916ZM66.7664 98.6814C86.0035 102.052 106.734 113.635 125.971 131.788L131.037 136.546V137.99V139.406L126.879 135.469C112.034 121.451 97.3057 111.68 82.4021 105.931C72.9445 102.306 66.0929 100.975 56.8696 100.947H51.0721L51.1599 99.6726C51.2478 98.4265 51.2771 98.3982 52.419 98.2C54.4393 97.8884 63.9555 98.2 66.7664 98.6814ZM208.249 104.289C208.132 105.053 208.015 105.733 207.985 105.761C207.927 105.818 205.467 106.951 202.481 108.31C199.494 109.67 193.374 112.473 188.865 114.541C184.356 116.608 178.559 119.242 175.982 120.431C173.405 121.593 164.973 125.416 157.243 128.927C149.513 132.439 140.787 136.376 137.859 137.707L132.501 140.114V138.5V136.914L139.909 133.544C153.583 127.285 157.477 125.529 181.399 114.682C194.516 108.735 205.848 103.552 206.58 103.213C207.312 102.844 208.015 102.618 208.161 102.703C208.307 102.788 208.337 103.496 208.249 104.289ZM72.1832 104.062C90.0735 108.452 110.16 120.856 128.314 138.726L131.622 141.955L134.316 140.737C138.093 139.066 150.391 133.487 156.218 130.825C158.882 129.607 164.943 126.86 169.687 124.736C181.721 119.299 187.401 116.721 191.676 114.767L195.336 113.068L200.314 115.645C203.037 117.09 205.526 118.392 205.819 118.562C206.521 118.93 206.287 119.044 191.354 125.869C185.644 128.474 175.484 133.119 168.808 136.206C162.132 139.293 153.641 143.173 149.922 144.844C146.233 146.514 140.553 149.092 137.361 150.536C134.14 152.009 131.359 153.198 131.183 153.198C130.685 153.198 70.6314 119.95 70.5142 119.61C70.4557 119.44 71.217 118.959 72.2125 118.506C75.082 117.26 76.7802 117.798 78.3028 120.431C80.0011 123.377 80.4696 123.971 81.5529 124.566C82.8413 125.274 84.2174 125.331 85.945 124.736C87.7018 124.141 89.2244 124.198 90.1321 124.906C90.5713 125.218 91.4497 126.492 92.1231 127.738C94.1142 131.42 95.9296 132.269 99.3554 131.108C102.371 130.089 103.455 130.683 105.387 134.422C106.793 137.14 107.993 138.047 110.218 138.018C112.59 138.018 116.104 137.055 116.104 136.404C116.104 135.724 114.464 135.753 111.975 136.546L110.013 137.14L108.901 136.574C107.993 136.121 107.495 135.498 106.324 133.402C105.504 131.958 104.45 130.513 103.982 130.202C102.869 129.381 100.644 129.211 99.1211 129.805C96.4273 130.853 94.934 130.202 93.3822 127.285C91.0983 123.065 89.3122 122.187 85.535 123.49C82.812 124.396 81.5822 123.802 80.0011 120.743C78.4785 117.798 76.9852 116.665 74.6135 116.665C73.208 116.665 70.5142 117.656 69.4894 118.562C69.0209 118.959 68.6403 118.817 64.8046 116.608C62.4914 115.305 58.8021 113.21 56.6061 111.992C54.3808 110.746 52.5654 109.67 52.5654 109.585C52.5654 109.5 55.6398 108.027 59.3877 106.271C67.147 102.646 66.7078 102.731 72.1832 104.062ZM54.7321 112.473C56.1962 113.266 60.8225 115.872 65.0095 118.222C72.7395 122.612 91.9767 133.26 108.93 142.578C121.521 149.516 129.631 154.048 130.1 154.387C130.568 154.784 130.627 165.376 130.129 165.376C129.748 165.376 126.645 163.592 105.709 151.272C96.8665 146.033 85.8571 139.576 81.2601 136.914C76.6631 134.252 70.807 130.768 68.2304 129.239C65.6537 127.681 60.881 124.821 57.6309 122.895L51.687 119.355V115.192C51.687 112.87 51.7748 111.001 51.8627 111.001C51.9798 111.001 53.2681 111.652 54.7321 112.473ZM207.458 121.734C207.458 123.065 207.37 123.433 206.961 123.518C206.346 123.688 204.12 127.568 204.384 127.993C204.765 128.616 205.321 128.191 206.229 126.577C206.785 125.642 207.253 124.878 207.341 124.878C207.4 124.878 207.458 126.209 207.458 127.795V130.74L204.179 132.241C202.364 133.062 197.386 135.356 193.111 137.339C188.836 139.321 183.975 141.587 182.277 142.351C180.579 143.144 171.883 147.194 162.952 151.357C141.783 161.241 132.149 165.659 131.857 165.659C131.739 165.659 131.622 163.167 131.622 160.136V154.586L135.37 152.858C137.42 151.924 139.616 150.932 140.26 150.649C143.569 149.233 162.337 140.68 181.984 131.618C184.005 130.683 189.656 128.106 194.575 125.869C199.494 123.66 204.296 121.451 205.262 120.969C206.229 120.488 207.107 120.092 207.253 120.063C207.37 120.063 207.458 120.8 207.458 121.734Z" fill="#00417E"/>
<path d="M76.9849 107.121C76.7507 107.716 78.5368 111.284 79.0638 111.284C79.708 111.284 79.6202 110.718 78.6246 108.622C77.8048 106.809 77.307 106.356 76.9849 107.121Z" fill="#00417E"/>
<path d="M66.8247 108.225C66.6197 108.792 68.318 111.85 68.8158 111.85C69.6356 111.85 69.577 111.142 68.6401 109.5C67.7909 107.942 67.1175 107.489 66.8247 108.225Z" fill="#00417E"/>
<path d="M92.2108 115.928C91.9766 116.523 93.7334 120.063 94.2605 120.063C94.9339 120.063 94.8461 119.44 93.8798 117.373C93.0307 115.56 92.5329 115.135 92.2108 115.928Z" fill="#00417E"/>
<path d="M191.647 116.183C191.647 116.636 194.311 119.214 194.809 119.214C195.571 119.214 195.102 118.081 193.843 116.976C192.555 115.815 191.647 115.504 191.647 116.183Z" fill="#00417E"/>
<path d="M179.115 121.536C178.851 121.791 179.027 122.159 179.993 123.094C180.667 123.773 181.399 124.311 181.604 124.311C182.365 124.311 181.955 123.207 180.813 122.216C179.466 121.054 179.583 121.083 179.115 121.536Z" fill="#00417E"/>
<path d="M108.871 126.18C108.608 126.86 110.247 129.975 110.892 129.975C111.594 129.975 111.565 129.664 110.54 127.54C109.691 125.727 109.223 125.331 108.871 126.18Z" fill="#00417E"/>
<path d="M171.854 128.304C171.649 128.616 173.23 130.372 174.196 130.882C174.577 131.08 174.84 131.052 175.074 130.825C175.309 130.598 175.045 130.202 174.02 129.239C172.615 127.965 172.205 127.766 171.854 128.304Z" fill="#00417E"/>
<path d="M154.461 135.215C154.109 135.611 154.314 135.894 155.925 137.339C157.682 138.925 158.267 139.179 158.267 138.386C158.267 138.188 157.506 137.282 156.569 136.404C155.046 134.931 154.812 134.818 154.461 135.215Z" fill="#00417E"/>
<path d="M124.741 141.303C124.478 141.7 126.586 145.552 127.084 145.552C127.728 145.552 127.611 144.9 126.586 142.861C125.708 141.134 125.151 140.652 124.741 141.303Z" fill="#00417E"/>
<path d="M134.55 143.682C134.55 144.192 137.42 146.741 137.771 146.543C138.357 146.203 138.035 145.58 136.688 144.447C135.224 143.258 134.55 143.003 134.55 143.682Z" fill="#00417E"/>
<path d="M59.1241 117.911C58.9192 118.421 60.9102 122.612 61.3494 122.612C62.0229 122.612 61.9058 121.762 60.9395 119.695C59.944 117.571 59.4462 117.09 59.1241 117.911Z" fill="#00417E"/>
<path d="M71.1289 124.425C70.9532 124.878 72.6515 128.276 73.0614 128.276C73.6763 128.276 73.647 127.625 72.915 126.039C72.1244 124.34 71.4217 123.717 71.1289 124.425Z" fill="#00417E"/>
<path d="M79.6495 129.664C79.4446 130.004 81.4356 134.223 81.8163 134.223C82.519 134.223 82.4312 133.487 81.5527 131.505C80.6743 129.579 80.0887 129.012 79.6495 129.664Z" fill="#00417E"/>
<path d="M88.4047 135.753C88.1704 136.347 89.9273 139.887 90.4543 139.887C91.1277 139.887 91.0399 139.349 90.0444 137.225C89.166 135.385 88.7268 134.96 88.4047 135.753Z" fill="#00417E"/>
<path d="M97.0713 140.709C97.0713 141.19 98.7695 144.645 99.1209 144.844C99.2966 144.957 99.6187 144.9 99.7944 144.73C100.263 144.277 98.3011 140.454 97.5983 140.454C97.3055 140.454 97.0713 140.567 97.0713 140.709Z" fill="#00417E"/>
<path d="M104.977 143.116C104.977 143.937 107.027 147.817 107.466 147.817C108.169 147.817 107.993 146.826 106.88 144.702C105.943 142.889 104.977 142.096 104.977 143.116Z" fill="#00417E"/>
<path d="M115.928 151.895C115.752 152.348 117.743 156.313 118.153 156.313C118.827 156.313 118.71 155.577 117.743 153.623C116.748 151.555 116.25 151.074 115.928 151.895Z" fill="#00417E"/>
<path d="M124.888 155.265C124.888 155.86 127.172 160.278 127.494 160.278C128.196 160.278 128.05 159.57 126.967 157.304C126.235 155.803 125.62 154.897 125.356 154.897C125.093 154.897 124.888 155.067 124.888 155.265Z" fill="#00417E"/>
<path d="M196.654 130.23C195.366 132.609 195.19 133.374 195.893 133.374C196.42 133.374 198.791 128.956 198.557 128.389C198.264 127.625 197.854 128.021 196.654 130.23Z" fill="#00417E"/>
<path d="M185.761 135.385C184.649 137.537 184.473 138.471 185.205 138.471C185.615 138.471 187.899 133.969 187.723 133.487C187.401 132.694 186.933 133.147 185.761 135.385Z" fill="#00417E"/>
<path d="M177.387 137.112C177.27 137.31 176.743 138.358 176.187 139.434C175.279 141.275 175.162 142.153 175.806 142.153C176.216 142.153 178.529 137.65 178.353 137.169C178.148 136.687 177.709 136.659 177.387 137.112Z" fill="#00417E"/>
<path d="M167.022 142.748C165.939 144.872 165.734 145.835 166.437 145.835C166.759 145.835 169.101 141.53 169.101 140.907C169.101 139.774 168.135 140.624 167.022 142.748Z" fill="#00417E"/>
<path d="M156.51 149.29C155.281 151.47 155.076 152.348 155.749 152.348C156.276 152.348 158.648 148.185 158.443 147.647C158.15 146.883 157.681 147.279 156.51 149.29Z" fill="#00417E"/>
<path d="M148.078 149.601C147.931 149.771 147.316 150.876 146.702 152.037C145.706 153.991 145.56 154.897 146.262 154.897C146.584 154.897 148.898 150.593 148.898 149.969C148.898 149.375 148.429 149.177 148.078 149.601Z" fill="#00417E"/>
<path d="M136.659 157.616C135.722 159.429 135.487 160.165 135.722 160.392C135.956 160.618 136.161 160.561 136.483 160.137C137.332 159.089 138.972 155.719 138.796 155.464C138.357 154.784 137.83 155.351 136.659 157.616Z" fill="#00417E"/>
</svg>
