<svg width="237" height="269" viewBox="0 0 237 269" fill="none" xmlns="http://www.w3.org/2000/svg">
<path d="M110.525 4.86584C102.744 5.58362 95.5955 6.81818 89.0781 8.59827C86.1208 9.40216 77.7085 12.2446 75.9285 13.0485C75.2968 13.3356 73.8039 13.9672 72.6267 14.484C57.8693 20.8865 42.4228 32.3996 31.5701 45.0899C13.4822 66.2498 3.95014 91.6016 3.5769 119.422C3.37592 133.835 5.27085 145.923 9.74975 158.986C16.9849 180.146 30.4503 199.009 48.1937 212.819C64.9322 225.854 84.1111 233.922 104.639 236.534C113.31 237.625 124.077 237.798 132.058 236.994C162.492 233.836 190.112 219.049 209.75 195.363C220.344 182.615 227.551 168.949 232.116 153.043C237.227 135.242 237.887 116.035 234.097 97.028C231.427 83.6487 225.139 68.5467 217.359 56.8326C215.119 53.416 210.238 47.0709 207.626 44.1424C188.102 22.1498 162.492 8.7131 133.637 5.29651C132.231 5.12424 130.594 4.92326 130.049 4.86584C127.292 4.4926 114.401 4.4926 110.525 4.86584ZM135.016 7.99533C153.218 10.5506 168.493 16.2641 183.164 26.0545C190.169 30.7631 195.653 35.2994 201.682 41.501C215.923 56.1149 225.656 73.485 230.508 92.8649C232.834 102.11 233.609 108.11 233.896 118.705C234.413 139.29 229.417 159.474 219.483 176.844C207.166 198.406 189.107 214.972 166.913 225.05C155.601 230.189 141.935 233.692 129.302 234.726C123.33 235.214 110.525 234.898 105.214 234.151C84.1111 231.194 66.0232 223.557 49.4283 210.666C46.2701 208.197 39.5517 202.196 38.0874 200.531C37.5707 199.957 36.25 198.435 35.1015 197.2C24.8517 185.917 16.2671 170.987 11.5011 156.23C3.86401 132.658 4.26596 105.928 12.5634 82.816C14.5732 77.2461 15.4919 75.0928 17.9898 70.0397C23.4449 59.0721 30.3642 49.5401 39.2933 40.611C47.8779 32.0551 55.4289 26.3703 65.7361 20.743C78.7708 13.6227 93.8154 8.9715 108.228 7.62209C110.037 7.44983 111.989 7.24884 112.535 7.19142C113.08 7.134 117.157 7.10529 121.579 7.16272C128.383 7.22014 130.451 7.36369 135.016 7.99533Z" fill="#00417E"/>
<path d="M118.22 46.6401C117.157 47.3005 117.674 48.8509 119.024 49.1093C119.569 49.1954 120.086 49.3964 120.172 49.5399C120.258 49.6835 120.43 49.7409 120.574 49.6548C120.717 49.5686 121.837 49.8271 123.072 50.2003C124.306 50.6022 130.106 52.2962 135.934 53.9901C141.791 55.6554 149.055 57.7513 152.099 58.6413C155.113 59.5026 157.611 60.3353 157.611 60.4501C157.611 60.5649 156.664 61.1679 155.544 61.7708C154.395 62.4025 153.161 63.0915 152.788 63.3212C152.099 63.7519 151.151 63.4935 146.127 61.5698C143.342 60.5075 128.498 55.3108 124.68 54.0763C123.043 53.5595 121.722 52.9853 121.722 52.7843C121.722 52.612 121.32 51.923 120.861 51.2626L119.971 50.0567L118.622 50.8032L117.243 51.5497L115.234 50.8032C114.143 50.3726 113.052 49.9706 112.793 49.9132C112.564 49.8271 112.047 49.9993 111.702 50.3151C111.128 50.7745 111.071 50.9755 111.3 51.6646C111.473 52.1814 111.846 52.5833 112.248 52.6694C113.339 52.9278 113.195 53.3585 111.817 54.0476C110.181 54.8515 109.836 54.8515 107.482 53.9901C105.702 53.3298 105.472 53.3011 104.725 53.703C104.036 54.0763 103.893 54.2773 103.979 55.0524C104.036 55.8276 104.237 56.0286 105.07 56.287C105.96 56.5741 106.62 57.2632 106.017 57.2632C105.874 57.2632 104.151 58.1819 102.17 59.3017C95.7677 63.0054 96.1696 62.8618 94.447 62.2876C93.0976 61.8282 92.954 61.8282 92.2649 62.2876C91.662 62.6896 91.5472 62.948 91.6333 63.7519C91.7194 64.4122 91.6046 64.8716 91.3175 65.13C91.0591 65.3597 88.8196 66.7091 86.3505 68.1446L81.8429 70.786L80.2925 70.2405C78.8569 69.7237 78.6847 69.7237 77.9669 70.1544C77.4214 70.4702 77.2204 70.8435 77.2204 71.4751C77.2204 71.9632 77.364 72.5087 77.5362 72.681C77.9095 73.0542 77.9956 72.9968 72.4257 76.1837C70.1862 77.447 68.0903 78.6528 67.7745 78.8538C67.3438 79.1122 66.9993 79.1122 66.0231 78.7103C65.0757 78.337 64.6737 78.3083 64.1856 78.5667C63.3243 79.0261 63.2095 79.2845 63.353 80.4616C63.4679 81.4952 63.4104 81.5526 61.8026 82.5288C60.8839 83.0743 60.0226 83.5911 59.8503 83.6485C59.7067 83.706 59.0177 84.1366 58.3573 84.5673C57.697 85.0267 57.094 85.3999 57.0079 85.3999C56.9218 85.3999 55.802 86.0315 54.5101 86.8067C52.2132 88.1849 52.1558 88.2136 51.0935 87.8403C50.1173 87.4958 49.9737 87.5245 49.2847 88.07C48.7966 88.5007 48.5095 89.0462 48.452 89.7065C48.3659 90.6827 48.2224 90.7976 43.9731 93.2667L39.5804 95.822L38.4319 95.4487C37.5706 95.1616 37.1399 95.1329 36.5657 95.42C35.9054 95.7071 35.8479 95.8794 35.9341 96.9417L36.0202 98.1476L34.154 99.2386C32.7472 100.071 32.0868 100.301 31.4265 100.186C29.589 99.8702 29.7038 98.0614 29.7899 127.749L29.8761 154.737L31.5126 155.713L33.1491 156.66L34.9579 155.713L36.738 154.766V140.18C36.738 130.361 36.8241 125.595 37.0251 125.595C37.1974 125.595 38.1448 126.026 39.121 126.571C40.0972 127.088 43.2841 128.782 46.2126 130.333C49.1411 131.883 53.1606 134.036 55.1704 135.127L58.8454 137.108L58.9028 154.766L58.989 172.451L60.6255 173.342L62.262 174.26L63.9272 173.342L65.5925 172.423L65.6499 156.89C65.6786 148.334 65.7647 141.271 65.8509 141.185C65.9944 141.013 66.3102 141.157 70.4733 143.396C75.871 146.238 77.9382 147.358 83.0774 150.2L88.2167 153.014L88.1593 169.867L88.1018 186.721L89.279 187.467C91.5759 188.932 91.6333 188.932 93.4134 187.869L95.0212 186.893V171.906C95.0212 163.637 95.0786 156.89 95.1647 156.89C95.2222 156.89 97.031 157.838 99.1843 158.957C101.309 160.106 103.864 161.484 104.84 162.001C114.114 166.91 117.818 168.949 118.133 169.265C118.334 169.466 118.421 175.236 118.421 186.089V202.655L120.057 203.603L121.694 204.55L123.416 203.632L125.168 202.684V187.41V172.136L126.546 171.36C127.292 170.93 128.929 169.982 130.192 169.236C135.647 166.02 146.643 159.761 146.816 159.761C146.902 159.761 146.988 166.049 146.988 173.743V187.754L148.797 188.702L150.606 189.678L152.242 188.702L153.879 187.754V171.619V155.512L158.415 152.985C160.884 151.607 164.157 149.741 165.65 148.851C169.497 146.554 174.608 143.741 175.125 143.626C175.469 143.54 175.527 145.406 175.555 157.866V172.164L177.278 173.112L179.001 174.088L180.666 173.054L182.302 172.05V155.627V139.233L184.685 137.97C187.011 136.735 193.758 132.945 197.605 130.706C201.166 128.639 203.261 127.576 203.29 127.806C203.29 127.921 203.29 134.122 203.261 141.558L203.233 155.11L204.783 156C206.678 157.062 206.965 157.091 208.429 156.172C209.061 155.77 209.693 155.455 209.865 155.455C210.008 155.455 210.152 154.852 210.181 154.076C210.267 146.525 210.267 140.324 210.209 120.284L210.152 97.0278L208.717 96.3388L207.31 95.6497L205.616 96.3962C204.668 96.8269 203.807 97.1714 203.663 97.1714C203.233 97.1714 201.252 95.6497 201.252 95.3339C201.252 95.0181 202.486 94.3003 206.793 92.1183C208.516 91.2282 208.717 91.0272 208.717 90.2521C208.717 89.4769 208.429 89.2185 205.702 87.4671C202.888 85.687 199.644 83.5911 189.624 77.0163C187.585 75.6669 184.484 73.6571 182.733 72.5087C178.8 69.9534 179.833 70.6425 172.254 65.6468C168.693 63.3212 164.961 60.8521 163.927 60.1917C162.75 59.4165 160.999 58.6413 159.19 58.0958C157.611 57.6077 155.171 56.8612 153.735 56.4306C152.328 55.9712 149.285 55.0812 146.988 54.4208C144.691 53.7605 141.59 52.8417 140.097 52.3823C138.604 51.9517 135.044 50.9181 132.202 50.0854C129.359 49.2815 125.57 48.1618 123.818 47.645C119.827 46.4392 118.851 46.2669 118.22 46.6401ZM120.89 47.6737C121.579 47.9034 123.445 48.4776 125.024 48.937C130.45 50.4587 146.844 55.2247 150.72 56.4019C152.845 57.0335 155.802 57.8948 157.267 58.2968C158.702 58.7274 159.908 59.1581 159.908 59.2729C159.908 59.8759 158.673 59.761 155.774 58.871C152.185 57.7513 148.567 56.689 139.236 53.9901C124.019 49.5974 119.626 48.3628 119.253 48.3628C118.794 48.3628 118.478 47.8747 118.708 47.5015C118.966 47.0995 119.425 47.1282 120.89 47.6737ZM121.579 53.8753C131.369 57.2632 134.671 58.4116 138.375 59.7036C139.868 60.2491 142.968 61.3401 145.265 62.144C150.692 64.039 151.295 64.3261 150.663 64.5845C150.117 64.8142 150.548 64.9577 132.633 58.6987C125.771 56.3157 118.392 53.7605 116.267 53.0427C114.143 52.3249 112.276 51.6358 112.133 51.521C111.76 51.1478 112.248 50.6022 112.793 50.8032C113.052 50.9181 117.014 52.2962 121.579 53.8753ZM120.143 51.8368C120.258 52.0091 120.287 52.2101 120.201 52.2962C119.971 52.4972 118.851 52.0952 118.851 51.7794C118.851 51.4062 119.914 51.4636 120.143 51.8368ZM116.468 54.0188C117.301 54.2773 117.961 54.6218 117.904 54.7941C117.846 54.9376 117.243 55.397 116.526 55.7989L115.234 56.5167L113.597 55.9999C112.707 55.7128 111.903 55.3683 111.817 55.2534C111.645 54.995 113.856 53.6169 114.516 53.5595C114.746 53.5308 115.607 53.7605 116.468 54.0188ZM109.09 55.397C110.755 55.9425 119.54 58.871 128.613 61.8857C137.686 64.9003 145.237 67.4843 145.38 67.6278C145.524 67.7427 145.323 68.0011 144.921 68.2021C144.289 68.4892 143.141 68.1733 136.193 65.8765C116.784 59.4739 105.357 55.5692 104.955 55.2247C104.611 54.9376 105.013 54.3921 105.587 54.3921C105.845 54.3921 107.424 54.8515 109.09 55.397ZM120.804 55.6267C121.177 55.9138 121.292 58.0097 120.918 58.2394C120.804 58.2968 120.287 58.1819 119.77 57.981C118.966 57.6364 118.851 57.4355 118.851 56.4593C118.851 55.8564 118.937 55.2821 119.024 55.196C119.225 54.995 120.316 55.2534 120.804 55.6267ZM117.99 56.8038C117.99 57.3493 117.875 57.4355 117.272 57.3206C116.411 57.177 116.382 57.0335 117.071 56.5167C117.789 55.9712 117.99 56.0286 117.99 56.8038ZM123.1 56.5167C123.991 57.0048 127.149 60.1343 126.747 60.1343C126.575 60.1343 125.483 59.8472 124.306 59.4739L122.153 58.8136L122.067 57.4642C121.981 55.9712 122.009 55.9425 123.1 56.5167ZM109.319 57.78C110.152 58.0671 110.898 58.3829 110.984 58.4978C111.185 58.6987 110.984 58.8136 105.386 61.9718L100.993 64.4409L99.213 63.8954C98.2655 63.6083 97.4616 63.2638 97.4616 63.1776C97.4616 62.9767 107.338 57.2632 107.654 57.2632C107.74 57.2632 108.487 57.4929 109.319 57.78ZM131.053 59.1007C133.58 59.962 138.375 61.6272 141.676 62.7757C145.007 63.9528 147.878 64.9864 148.108 65.0439C148.337 65.13 146.988 65.2161 145.122 65.2735L141.705 65.331L135.848 63.4073L129.962 61.4837L127.867 59.6462C126.689 58.6413 125.742 57.7513 125.742 57.6651C125.742 57.378 126.775 57.6364 131.053 59.1007ZM113.97 59.4452L115.119 59.9046V64.4696C115.119 67.9436 115.033 69.0347 114.774 69.0347C114.573 69.0347 111.645 68.1159 108.257 66.9675C102.744 65.1013 102.17 64.8716 102.658 64.4983C103.721 63.7519 112.104 59.0433 112.449 59.0146C112.65 58.9858 113.339 59.1868 113.97 59.4452ZM162.578 60.3353C163.238 60.7372 166.253 62.6896 169.239 64.6706C172.254 66.6517 177.278 69.9534 180.436 72.0206C183.594 74.1165 187.93 76.9589 190.112 78.3657C192.265 79.8013 194.734 81.4091 195.624 81.9546C196.486 82.5001 199.472 84.4237 202.257 86.2325C206.247 88.8452 207.195 89.5917 206.965 89.9075C206.477 90.4817 206.018 90.3669 204.209 89.1898C203.29 88.5868 201.654 87.5245 200.534 86.8067C199.443 86.1177 196.141 83.9644 193.213 82.0407C190.284 80.1458 186.035 77.3321 183.738 75.8392C181.441 74.3462 176.876 71.3315 173.546 69.1782C166.368 64.4696 162.176 61.7421 161.745 61.4837C161.544 61.3689 159.965 62.1153 158.214 63.1489C156.434 64.1825 154.883 65.0151 154.711 65.0151C154.338 65.0151 154.395 65.5607 154.826 65.9913C155.343 66.5081 187.671 87.8978 196.313 93.4103C197.95 94.4726 198.61 95.0468 198.409 95.2478C198.007 95.6497 197.175 95.2478 194.074 93.238C186.724 88.4146 184.685 87.0651 177.709 82.4714C173.517 79.7151 167.574 75.7817 164.502 73.772C161.43 71.7622 157.582 69.2069 155.946 68.1446L152.989 66.1923L151.352 67.111C148.309 68.8337 148.452 68.6614 149.285 69.3505C150.261 70.1831 156.52 74.6333 161.631 78.0786C168.435 82.7011 169.842 83.6772 175.412 87.5819C178.34 89.6491 182.59 92.5776 184.886 94.0993C190.571 97.8892 190.858 98.1476 190.37 98.7218C190.169 98.9802 189.825 99.1812 189.652 99.1812C189.25 99.1812 185.116 96.4249 177.996 91.4579C175.24 89.5056 171.565 86.979 169.813 85.8019C166.885 83.7921 163.066 81.2081 156.032 76.356C154.453 75.2649 151.84 73.4274 150.232 72.2503C147.648 70.4128 147.16 70.1544 146.414 70.3267C145.954 70.4415 145.495 70.6138 145.409 70.7573C145.323 70.8722 144.519 71.4177 143.629 71.9345C141.763 72.9681 135.504 77.0737 135.504 77.2173C135.504 77.2747 137.341 78.6241 139.609 80.2032C141.849 81.7823 144.203 83.4476 144.835 83.9069C147.074 85.5147 163.985 96.9417 174.12 103.717C175.871 104.866 177.307 105.928 177.364 106.043C177.393 106.187 177.134 106.474 176.761 106.732C176.101 107.163 175.871 107.048 168.923 102.339C154.309 92.5202 141.676 83.9069 137.111 80.6626C135.216 79.3419 133.551 78.337 133.379 78.4231C131.168 79.7726 122.699 85.5147 122.641 85.7157C122.584 85.8593 124.077 86.9503 125.943 88.1562C127.809 89.3907 131.972 92.1183 135.216 94.2429C141.275 98.2337 146.931 101.937 158.243 109.259C164.358 113.221 164.731 113.508 164.243 113.939C163.325 114.771 163.956 115.116 152.587 107.708C140.069 99.5544 127.493 91.2856 124.019 88.9601C122.526 87.9552 121.091 87.1226 120.861 87.1226C120.66 87.1226 117.846 88.8739 114.631 91.0272C109.635 94.3577 108.831 94.9894 109.147 95.3626C109.348 95.5923 110.611 96.511 111.961 97.3724C113.31 98.2624 117.243 100.846 120.717 103.115C132.259 110.694 141.849 116.896 148.51 121.145C150.146 122.15 150.175 122.207 149.687 122.753C149.428 123.04 149.055 123.298 148.883 123.298C148.452 123.298 135.303 114.8 116.497 102.397C111.415 99.0663 107.195 96.3101 107.108 96.3101C107.022 96.3101 106.218 96.8269 105.357 97.4585C104.496 98.0614 101.74 99.9564 99.2704 101.622C96.7726 103.316 94.7341 104.78 94.7341 104.895C94.7341 105.124 111.272 115.69 132.345 128.983C137.198 132.026 137.111 131.94 136.394 132.601C135.819 133.117 135.762 133.117 134.585 132.371C132.144 130.878 117.215 121.49 114.258 119.566C113.08 118.791 111.329 117.671 110.382 117.097C108.171 115.69 97.0597 108.598 95.1073 107.335C94.3034 106.79 93.4421 106.359 93.2124 106.359C93.0114 106.359 91.7194 107.134 90.3987 108.082C89.078 109.029 86.8673 110.579 85.4892 111.527C84.0823 112.474 82.9626 113.393 82.9626 113.508C82.9626 113.824 89.7958 118.36 107.022 129.529C121.062 138.63 125.455 141.53 125.455 141.731C125.455 141.846 125.196 142.075 124.881 142.248C124.421 142.506 123.933 142.276 121.981 140.956C120.717 140.094 119.626 139.376 119.569 139.376C119.54 139.376 117.502 138.056 115.033 136.419C112.564 134.811 108.142 131.94 105.214 130.045C100.132 126.772 96.7438 124.562 86.5802 117.901C84.0823 116.264 81.8716 114.857 81.6706 114.8C81.4696 114.714 80.4647 115.231 79.4886 115.948C77.5075 117.384 77.3065 117.47 76.4739 116.867C75.9571 116.465 75.9571 116.436 76.7897 115.776C78.0243 114.8 84.7427 109.948 87.4128 108.11C88.6761 107.249 90.5423 105.871 91.5759 105.067C92.6095 104.263 95.2509 102.339 97.4616 100.818C99.6724 99.296 102.773 97.1427 104.352 96.0517C116.239 87.6968 140.27 71.7048 144.347 69.4653C144.634 69.2931 145.552 68.7189 146.414 68.1446C147.275 67.5704 150.003 65.9626 152.443 64.5845C154.883 63.1776 157.812 61.4837 158.903 60.8233C160.023 60.1343 160.999 59.5601 161.142 59.5601C161.257 59.5601 161.889 59.9046 162.578 60.3353ZM117.732 60.7085C118.22 60.9956 118.277 61.3689 118.277 65.4458C118.277 67.8575 118.162 69.9247 118.019 70.0108C117.875 70.097 117.358 70.0396 116.87 69.8673L115.98 69.5515V64.9864C115.98 60.5649 116.009 60.4214 116.583 60.4214C116.899 60.4214 117.416 60.5649 117.732 60.7085ZM120.402 61.5698C121.062 61.7995 121.148 62.0005 121.148 63.1202C121.148 65.1587 120.861 66.0774 120.115 66.422C119.167 66.8239 119.253 67.4843 120.287 68.0298C121.062 68.4317 121.148 68.6327 121.148 69.8099V71.1019L120.229 70.9296C119.741 70.8435 119.311 70.7286 119.282 70.6712C119.225 70.6425 119.11 68.5179 119.024 65.9339C118.794 60.8521 118.765 60.9382 120.402 61.5698ZM126.316 63.6083L130.192 64.8716L126.488 64.9577C124.421 64.9864 122.584 64.9577 122.383 64.9003C122.153 64.8142 122.009 64.2399 122.009 63.436C122.009 62.6896 122.096 62.1728 122.239 62.2302C122.354 62.2876 124.191 62.9192 126.316 63.6083ZM169.957 67.8288C174.464 70.786 179.029 73.8007 180.12 74.4897C181.211 75.2075 184.484 77.3321 187.384 79.2271C190.255 81.122 195.596 84.596 199.242 86.9503C202.859 89.2759 205.845 91.2856 205.845 91.4005C205.845 91.6302 200.304 94.5874 199.902 94.5874C199.673 94.5874 190.227 88.5868 189.595 88.0413C189.451 87.8978 188.992 87.6106 188.619 87.4097C188.246 87.2087 187.786 86.9216 187.643 86.778C187.47 86.6632 185.92 85.6296 184.169 84.4812C182.446 83.3614 177.594 80.1745 173.402 77.4183C169.21 74.6333 163.87 71.0732 161.487 69.5228C159.133 67.9436 156.893 66.422 156.52 66.1349L155.86 65.6181L156.951 64.929C159.822 63.0915 160.941 62.4599 161.343 62.4599C161.602 62.4312 165.478 64.8716 169.957 67.8288ZM96.8874 63.9816C98.3229 64.4983 106.764 67.3694 115.693 70.3554C124.622 73.3413 131.972 75.8105 132.058 75.8679C132.144 75.9253 131.915 76.2124 131.57 76.4995C130.967 76.9876 130.824 76.9589 126.976 75.753C123.215 74.5759 107.137 69.1782 97.1745 65.7616C94.6479 64.8716 92.552 64.039 92.4946 63.8667C92.4372 63.6944 92.4659 63.3499 92.552 63.1202C92.753 62.5747 93.2698 62.6608 96.8874 63.9816ZM95.3944 66.0487C96.1409 66.3071 96.6577 66.623 96.5716 66.7665C96.428 67.0249 93.7579 68.4604 93.4421 68.4604C93.356 68.4604 93.2985 67.8001 93.2985 67.0249C93.2985 65.3884 93.3847 65.3597 95.3944 66.0487ZM92.4372 70.0396C92.4372 74.5472 92.4372 74.5185 90.8581 73.9155C90.3413 73.7146 90.1403 73.4562 90.169 72.9968C90.2839 71.7622 90.1403 70.7573 89.8532 70.7573C89.7097 70.7573 88.9345 71.1306 88.1593 71.59L86.7237 72.4513L84.9724 71.8771C84.0249 71.5325 83.2497 71.188 83.2497 71.1019C83.2497 70.8722 91.863 65.8765 92.2362 65.8765C92.3511 65.8765 92.4372 67.7427 92.4372 70.0396ZM135.877 68.7476C137.399 70.2692 138.662 71.59 138.662 71.7048C138.662 71.8196 138.059 72.279 137.341 72.7384L136.02 73.5423L129.101 70.0108C125.283 68.0872 122.124 66.3358 122.067 66.1636C121.981 65.9052 123.33 65.8478 127.493 65.9339L133.063 66.02L135.877 68.7476ZM147.562 66.1636C147.562 66.3071 146.959 66.4507 146.242 66.4507C145.466 66.4507 145.007 66.3358 145.122 66.1636C145.208 65.9913 145.811 65.8765 146.442 65.8765C147.045 65.8765 147.562 65.9913 147.562 66.1636ZM139.351 67.8862C141.246 68.5179 142.854 69.0921 142.882 69.1495C142.94 69.2069 142.251 69.7237 141.361 70.2692L139.695 71.2741L137.456 69.2356C135.417 67.3981 134.614 66.2784 135.59 66.5942C135.762 66.6517 137.485 67.2546 139.351 67.8862ZM105.386 69.494C109.405 70.8435 113.224 72.1355 113.913 72.3938L115.119 72.8532V77.5618C115.119 81.9546 115.09 82.2991 114.631 82.0981C114.344 81.9833 110.956 80.8349 107.08 79.5142C103.204 78.1935 98.5526 76.5856 96.7438 75.954L93.4421 74.8343L93.356 72.1355L93.2985 69.4653L95.6528 68.2595C96.9735 67.5991 98.0358 67.0536 98.0646 67.0536C98.0933 67.0249 101.366 68.1159 105.386 69.494ZM127.177 69.896C131.829 72.2216 133.207 73.0542 132.374 73.0542C131.857 73.0542 120.861 67.4843 120.861 67.2259C120.861 66.8239 121.78 67.2259 127.177 69.896ZM157.123 69.9247L160.769 72.3077V74.2601C160.769 75.3224 160.683 76.2124 160.597 76.2124C159.994 76.2124 150.433 69.3218 150.433 68.8911C150.433 68.4892 152.5 67.3407 153.046 67.4269C153.276 67.4843 155.113 68.604 157.123 69.9247ZM128.986 73.1403C127.465 73.571 126.46 73.1978 124.995 71.6187C124.22 70.786 123.531 70.0108 123.474 69.8386C123.416 69.695 124.823 70.3267 126.575 71.2454C129.56 72.7958 129.704 72.9106 128.986 73.1403ZM123.273 70.9583C123.818 71.5612 124.22 72.1067 124.163 72.1355C124.105 72.1929 123.589 72.1067 123.043 71.9058C122.182 71.6187 122.009 71.4464 122.009 70.7286C122.009 70.2692 122.067 69.896 122.153 69.896C122.239 69.896 122.727 70.3841 123.273 70.9583ZM82.2448 71.7909C83.8239 72.3364 88.6186 74.0304 92.8679 75.4946C97.1458 76.9589 103.261 79.0835 106.506 80.2319C109.75 81.3517 113.97 82.7872 115.923 83.4188C117.846 84.0505 119.425 84.6247 119.425 84.6534C119.425 84.7108 119.11 84.9692 118.708 85.2276C118.019 85.687 117.846 85.6583 115.75 84.9979C112.678 83.9931 103.118 80.7487 94.5905 77.7915C83.5655 73.9442 79.2015 72.48 78.7421 72.48C78.254 72.48 77.9669 71.7909 78.1966 71.188C78.4263 70.5564 79.0579 70.6425 82.2448 71.7909ZM146.988 77.7915C146.988 81.3517 146.931 84.2515 146.844 84.2515C146.758 84.2515 146.299 83.9644 145.84 83.6198L144.978 82.9882V77.6192C144.978 72.3651 145.007 72.2216 145.61 71.7909C146.959 70.8435 146.988 70.9009 146.988 77.7915ZM89.5661 72.6235C89.5661 73.3413 89.1929 73.5136 88.2741 73.1403C87.8435 72.9968 87.8435 72.9106 88.4464 72.4513C89.3651 71.7335 89.5661 71.7622 89.5661 72.6235ZM149.084 72.5661C149.859 73.1691 149.917 73.3413 149.945 75.7817C150.003 78.3083 150.003 78.3657 149.199 78.739C148.768 78.9399 148.28 79.0261 148.136 78.9399C147.792 78.739 147.734 71.9058 148.079 71.9058C148.194 71.9058 148.653 72.1929 149.084 72.5661ZM144.117 73.9155C144.117 74.8917 143.83 75.0065 143.169 74.2601C142.796 73.8581 142.767 73.6571 143.026 73.3987C143.629 72.7958 144.117 73.0255 144.117 73.9155ZM80.7231 73.8581C81.4983 74.1165 82.13 74.461 82.1587 74.6333C82.2161 74.7769 80.637 75.8679 78.656 77.0163C76.6749 78.1935 74.4354 79.5429 73.6315 80.0023L72.2247 80.8636L70.5308 80.3468C68.6358 79.7726 68.3487 79.5142 69.0952 79.0835C73.2583 76.5856 78.8569 73.37 79.0866 73.3987C79.2589 73.3987 79.9767 73.5997 80.7231 73.8581ZM118.047 74.0017C118.162 74.1739 118.277 76.2698 118.277 78.5954C118.277 83.1892 118.22 83.3901 116.755 82.8446L115.98 82.5288V77.9063V73.2552L116.899 73.4562C117.416 73.5423 117.933 73.8007 118.047 74.0017ZM134.527 73.772C134.958 74.0878 134.987 74.1739 134.614 74.2026C134.384 74.2026 133.925 74.0017 133.609 73.772C133.178 73.4562 133.149 73.37 133.523 73.3413C133.752 73.3413 134.212 73.5423 134.527 73.772ZM132.202 74.2026C132.288 74.3462 132.317 74.6046 132.231 74.7482C132.03 75.064 130.049 74.5185 130.049 74.1452C130.049 73.8007 132.001 73.8581 132.202 74.2026ZM153.419 75.5808C154.683 76.4708 155.745 77.3608 155.802 77.5331C155.888 77.8202 151.381 78.538 150.95 78.3083C150.807 78.2509 150.72 77.2173 150.72 76.0401C150.72 74.863 150.807 73.9155 150.95 73.9155C151.065 73.9442 152.185 74.6907 153.419 75.5808ZM167.086 76.4134C173.402 80.519 172.828 79.9161 172.828 82.4427C172.828 83.6772 172.713 84.5386 172.541 84.4812C172.397 84.4237 170.129 82.9021 167.516 81.0933L162.779 77.7915V75.8679C162.779 74.7769 162.894 73.9155 163.009 73.9155C163.124 73.9155 164.961 75.0353 167.086 76.4134ZM119.54 74.8917C119.397 75.4659 119.54 75.6669 120.258 76.0688L121.148 76.5282V79.9161C121.148 83.5624 120.918 84.194 119.713 83.8208C119.167 83.6485 119.138 83.4188 119.138 78.9112C119.138 75.8966 119.253 74.2026 119.425 74.2026C119.598 74.2026 119.655 74.4897 119.54 74.8917ZM142.968 75.2362C143.6 75.8105 144.117 76.5282 144.117 76.8153C144.117 77.3034 143.916 77.2747 142.05 76.3273L139.983 75.2937L140.7 74.7482C141.074 74.461 141.475 74.2026 141.59 74.2026C141.734 74.2026 142.337 74.662 142.968 75.2362ZM124.392 76.5282C128.24 78.4519 128.211 78.4519 127.981 78.6815C127.78 78.8538 120.574 75.2937 120.574 75.0065C120.574 74.6333 120.717 74.6907 124.392 76.5282ZM85.3743 75.4946L86.4079 75.9253V80.8062C86.4079 84.8544 86.3505 85.687 86.006 85.687C85.5466 85.687 81.9003 84.4524 80.4647 83.7921C79.9767 83.5624 79.4886 83.3901 79.345 83.3901C78.9143 83.3901 73.488 81.2942 73.488 81.122C73.488 81.0358 74.2345 80.519 75.1532 80.031C76.0433 79.5142 78.3401 78.1935 80.2351 77.0737C82.13 75.9827 83.8239 75.064 83.9962 75.064C84.1685 75.064 84.8001 75.2649 85.3743 75.4946ZM141.964 77.2747C143.055 77.8489 143.801 78.3657 143.6 78.4519C143.256 78.5667 139.667 76.7292 139.092 76.155C138.604 75.6669 139.81 76.1263 141.964 77.2747ZM89.5087 81.3517C89.5374 83.7921 89.48 85.687 89.3077 85.687C89.1929 85.687 88.9058 85.486 88.7048 85.2563C88.5038 85.0267 88.1018 84.8257 87.8147 84.8257C87.2979 84.8257 87.2692 84.5386 87.2692 80.72C87.2692 78.4519 87.3554 76.5282 87.4415 76.4134C87.5276 76.3273 88.0157 76.4421 88.5038 76.6431L89.4226 77.0163L89.5087 81.3517ZM141.533 78.5093C142.653 79.0835 142.739 79.1983 142.251 79.3993C140.672 80.0023 139.609 79.5716 138.001 77.7341C137.111 76.7005 137.686 76.3847 139.035 77.1599C139.695 77.5618 140.815 78.1647 141.533 78.5093ZM124.622 78.2509C125.914 78.8825 126.862 79.5142 126.718 79.629C125.914 80.3468 122.612 82.5288 122.325 82.5288C122.124 82.5288 122.009 81.6388 122.009 79.8013C122.009 78.3083 122.067 77.0737 122.153 77.0737C122.239 77.0737 123.359 77.5905 124.622 78.2509ZM91.5472 77.6767L92.4372 77.9925V82.8159C92.4372 85.486 92.3224 87.7255 92.1788 87.8403C92.0353 87.9265 91.5759 87.8403 91.1739 87.6681L90.4274 87.3235V82.3278C90.4274 79.6003 90.4849 77.3608 90.5423 77.3608C90.571 77.3608 91.0304 77.5044 91.5472 77.6767ZM98.9833 80.2606C101.768 81.2081 105.616 82.5288 107.51 83.1605C115.377 85.7731 115.119 85.6583 115.119 86.6919C115.119 87.5532 114.86 87.7829 110.927 90.3956L106.707 93.2093L103.376 92.0034C101.539 91.3431 98.5239 90.2808 96.6864 89.6491L93.2985 88.472V83.505C93.2985 80.2894 93.4134 78.5093 93.5856 78.5093C93.7579 78.5093 96.1696 79.2845 98.9833 80.2606ZM65.937 79.4855C67.3151 80.031 80.0628 84.596 96.6003 90.5105C106.247 93.9558 105.644 93.7261 105.644 93.9845C105.644 94.0993 105.328 94.3864 104.926 94.5874C104.209 94.9894 103.003 94.6161 94.0163 91.2569C92.0353 90.5392 66.138 81.2655 64.3866 80.6626C63.9272 80.4903 63.8985 79.8874 64.3579 79.428C64.7886 78.9974 64.645 78.9974 65.937 79.4855ZM161.085 80.72C164.789 83.2179 165.535 83.8495 167.717 86.5196C168.866 87.869 170.474 89.7353 171.335 90.654C172.196 91.5728 172.828 92.3767 172.742 92.4628C172.598 92.6063 169.383 90.9985 159.621 85.888C151.811 81.7823 150.864 81.2081 150.778 80.5765C150.72 80.2319 150.72 79.9161 150.778 79.9161C150.835 79.8874 152.472 79.7151 154.453 79.5142C156.434 79.3132 158.185 79.1409 158.358 79.1122C158.53 79.1122 159.764 79.8013 161.085 80.72ZM149.859 80.2319C149.859 80.3755 149.687 80.519 149.457 80.519C149.256 80.519 148.912 80.72 148.711 80.9497C148.51 81.1794 148.251 81.3804 148.108 81.3804C147.821 81.3804 147.763 80.4042 148.05 80.1458C148.337 79.83 149.859 79.9161 149.859 80.2319ZM144.117 81.2655V82.2991L143.342 81.811C141.562 80.6626 141.475 80.5765 141.877 80.4329C142.078 80.3468 142.681 80.2606 143.198 80.2606C144.059 80.2319 144.117 80.2894 144.117 81.2655ZM137.657 84.3376L143.973 87.5819L144.059 93.238C144.088 96.3388 144.059 98.894 143.945 98.894C143.858 98.894 140.959 97.0278 137.513 94.7597C134.068 92.4915 130.163 89.9362 128.871 89.1036C127.551 88.271 126.402 87.4958 126.316 87.4097C126.23 87.3235 125.684 86.9216 125.082 86.577C124.134 86.0028 124.019 85.8306 124.364 85.486C124.967 84.8831 130.738 81.122 131.053 81.122C131.226 81.122 134.183 82.5575 137.657 84.3376ZM137.341 82.6724C140.643 84.2228 143.141 85.687 142.452 85.687C142.05 85.687 133.494 81.4378 133.494 81.2368C133.494 80.921 134.125 81.1507 137.341 82.6724ZM174.838 81.7249C175.67 82.3278 175.699 82.4427 175.699 84.4524C175.699 85.6009 175.641 86.5483 175.555 86.5483C175.469 86.5483 175.01 86.2612 174.55 85.9167C173.718 85.3138 173.689 85.1989 173.689 83.1892C173.689 82.0407 173.747 81.0933 173.833 81.0933C173.919 81.0933 174.378 81.3804 174.838 81.7249ZM151.065 82.213C151.898 82.6437 153.046 83.2753 153.591 83.5911C154.137 83.9069 156.032 84.9118 157.755 85.8306C161.372 87.7542 161.2 87.6394 160.97 87.869C160.683 88.1562 149.515 82.2417 149.342 81.6962C149.199 81.2368 149.4 81.2942 151.065 82.213ZM66.6835 82.414C67.43 82.6724 68.0329 82.9882 68.0329 83.103C68.0329 83.3327 65.6786 84.8257 65.3341 84.8257C65.2479 84.8257 65.1618 84.1653 65.1618 83.3901C65.1618 82.5862 65.1905 81.9546 65.2479 81.9546C65.3054 81.9546 65.937 82.1556 66.6835 82.414ZM64.3005 87.4097C64.3005 90.4243 64.1856 92.5776 64.0421 92.5776C63.8985 92.5776 63.4392 92.4628 63.0372 92.2905C62.3194 92.0321 62.2907 91.946 62.2907 89.563C62.2907 88.2136 62.1759 87.1226 62.0323 87.1226C61.9175 87.1226 60.6255 87.7542 59.2186 88.5581L56.6347 89.9937L55.1704 89.362C54.3378 89.0175 53.6774 88.6442 53.6774 88.5294C53.6774 88.4146 55.7159 87.1226 58.2138 85.687C60.6829 84.2228 62.9798 82.8446 63.2956 82.6437C63.6114 82.4427 63.956 82.2704 64.0995 82.2704C64.2144 82.2417 64.3005 84.5673 64.3005 87.4097ZM149.084 82.7872C149.773 83.1605 149.859 83.3327 149.859 84.7396C149.859 85.5722 149.773 86.2612 149.658 86.2612C149.515 86.2612 149.084 85.9167 148.653 85.5435C147.993 84.9692 147.849 84.6247 147.849 83.5337C147.849 82.7872 147.935 82.2417 148.079 82.2991C148.194 82.3565 148.625 82.5862 149.084 82.7872ZM177.709 83.5911C178.771 84.3089 178.857 84.5099 178.857 86.6058C178.857 88.7591 178.714 88.9026 177.393 87.9552C176.589 87.4097 176.56 87.2661 176.56 85.2276C176.56 84.0505 176.646 83.103 176.79 83.103C176.905 83.103 177.335 83.3327 177.709 83.5911ZM73.9474 84.9979C76.4452 85.888 79.2015 86.8354 80.0054 87.1226C82.6755 88.07 82.6755 88.0413 80.3499 89.4769C73.2296 93.8696 70.8179 95.1616 70.2149 94.9894C69.8991 94.9032 68.6071 94.4151 67.3726 93.9558L65.1331 93.0944L65.2192 89.4769L65.3054 85.888L67.3151 84.6534C68.4349 83.9931 69.3249 83.4188 69.3536 83.4188C69.3823 83.3901 71.4495 84.1079 73.9474 84.9979ZM155.601 86.2612C158.157 87.6106 158.472 87.8403 157.869 87.9839C156.52 88.3284 155.199 87.9839 154.309 87.0077C152.615 85.1989 152.012 84.4524 152.328 84.5673C152.5 84.6247 153.965 85.3999 155.601 86.2612ZM152.558 86.2899C153.276 87.0938 153.879 87.869 153.879 88.0126C153.879 88.472 152.615 88.2997 151.668 87.6968C150.864 87.2087 150.72 86.979 150.72 85.9741C150.72 85.3425 150.835 84.8257 150.979 84.8257C151.122 84.8257 151.84 85.486 152.558 86.2899ZM185.346 90.0511C188.102 92.7499 190.342 95.0755 190.342 95.1616C190.342 95.2765 189.739 95.3052 189.021 95.219C187.901 95.1042 186.954 94.5874 183.623 92.2905L179.575 89.5056L179.489 88.2423C179.374 86.6919 179.661 85.1128 180.034 85.1128C180.207 85.1128 182.59 87.3235 185.346 90.0511ZM87.987 85.9741C88.0731 86.1177 87.9583 86.2612 87.6999 86.2612C87.4415 86.2612 87.3267 86.1177 87.4128 85.9741C87.4989 85.8019 87.6425 85.687 87.6999 85.687C87.7573 85.687 87.9009 85.8019 87.987 85.9741ZM116.554 86.3761C116.554 86.4622 116.44 86.6058 116.267 86.6919C116.124 86.778 115.98 86.7206 115.98 86.577C115.98 86.4048 116.124 86.2612 116.267 86.2612C116.44 86.2612 116.554 86.3187 116.554 86.3761ZM146.155 88.0126L146.988 88.5868V94.7884V100.961L146.069 100.358L145.122 99.7841L145.036 93.5825C145.007 90.1946 145.036 87.4097 145.15 87.4097C145.237 87.4097 145.696 87.6681 146.155 88.0126ZM121.148 95.1616C121.148 102.54 121.119 102.626 119.77 101.478C119.11 100.933 119.081 100.76 118.966 95.2478C118.851 89.764 118.88 89.563 119.483 88.9314C119.827 88.5581 120.344 88.271 120.631 88.271C121.119 88.271 121.148 88.673 121.148 95.1616ZM166.397 90.3095C171.364 92.8647 172.914 93.7261 172.742 93.9271C172.541 94.0993 161.918 88.7591 161.918 88.472C161.918 88.07 162.434 88.271 166.397 90.3095ZM58.7306 91.5728C63.152 93.238 67.5735 94.9032 68.6071 95.2765C69.6407 95.6784 74.4929 97.4585 79.3737 99.2673C84.2833 101.076 88.9632 102.799 89.7958 103.057C91.6046 103.66 91.8056 103.89 90.9155 104.464C90.3126 104.866 90.1116 104.866 89.1067 104.493C88.5038 104.263 85.7188 103.258 82.9626 102.253C80.2063 101.22 74.8948 99.2673 71.1911 97.8892C67.4874 96.511 63.2956 94.9606 61.8601 94.4438C54.9981 91.9173 49.7727 89.9075 49.5431 89.7065C49.1411 89.3333 49.5718 88.5581 50.2034 88.5581C50.4905 88.5581 54.3378 89.9075 58.7306 91.5728ZM61.4294 90.0224V91.4866L60.5106 91.3144C58.9602 90.9985 58.7019 90.0798 59.879 89.161C61.1136 88.1849 61.4294 88.3571 61.4294 90.0224ZM83.8239 88.7878C83.8239 89.0462 77.0481 93.1519 76.6462 93.1519C76.1581 93.1519 76.3304 92.6638 76.8759 92.4628C77.1343 92.3767 78.7134 91.4579 80.3786 90.453C83.422 88.5581 83.8239 88.3858 83.8239 88.7878ZM126.402 91.5728C128.556 92.9796 133.436 96.1952 137.226 98.6644L144.117 103.172V110.091C144.117 114.082 144.002 116.982 143.858 116.982C143.715 116.982 141.791 115.833 139.609 114.398C137.427 112.991 133.58 110.493 131.053 108.885C128.527 107.249 125.483 105.297 124.306 104.493L122.153 103.028L122.067 95.9081C122.038 92.0034 122.096 88.8452 122.239 88.9026C122.354 88.9314 124.249 90.1372 126.402 91.5728ZM160.769 91.2856V93.7261L160.051 93.2667C159.104 92.6351 156.147 89.2472 156.376 89.0175C156.463 88.9314 157.496 88.8452 158.673 88.8452H160.769V91.2856ZM155.601 89.8501C156.463 90.7689 156.003 90.7689 154.883 89.8501C154.309 89.3907 154.166 89.161 154.482 89.1323C154.711 89.1323 155.228 89.4481 155.601 89.8501ZM190.973 92.1757C193.557 93.8696 195.797 95.3626 195.94 95.5349C196.112 95.7071 195.509 95.7645 194.16 95.6784L192.122 95.5349L189.078 92.5202C184.685 88.1274 184.772 88.1274 190.973 92.1757ZM84.4268 90.1946C84.0823 90.654 83.4507 91.4866 83.02 92.0608C82.3022 93.0657 82.13 93.1519 80.7519 93.1519C79.9192 93.1519 79.2302 93.037 79.2302 92.8935C79.2302 92.7499 80.1776 92.0896 81.3261 91.4579C82.4458 90.8263 83.6517 90.1085 83.9675 89.8788C84.8575 89.1898 85.0872 89.3333 84.4268 90.1946ZM86.4079 91.2856C86.4079 92.8073 86.3792 92.8647 85.6327 92.8647C85.1733 92.8647 84.5417 92.9509 84.1972 93.037C83.8239 93.1519 83.5368 93.0944 83.5368 92.9509C83.5368 92.5776 85.8624 89.7065 86.1782 89.7065C86.2931 89.7065 86.4079 90.4243 86.4079 91.2856ZM174.866 90.3095L175.699 90.8837V97.2001C175.699 100.645 175.584 103.488 175.441 103.488C175.326 103.488 174.866 103.229 174.436 102.885L173.689 102.311V95.9942C173.689 92.5489 173.775 89.7065 173.861 89.7065C173.948 89.7065 174.407 89.9649 174.866 90.3095ZM58.2712 90.2808C58.2712 90.4243 58.1563 90.5679 57.9841 90.5679C57.8405 90.5679 57.697 90.4243 57.697 90.2808C57.697 90.1085 57.8405 89.9937 57.9841 89.9937C58.1563 89.9937 58.2712 90.1085 58.2712 90.2808ZM89.1929 90.6253C89.5948 90.9411 89.681 92.5202 89.3364 93.037C89.1929 93.2667 88.877 93.238 88.2167 92.9509C87.3267 92.6063 87.2692 92.4628 87.2692 91.2569C87.2692 89.9649 87.2692 89.9362 88.0444 90.1372C88.5038 90.2521 89.0206 90.453 89.1929 90.6253ZM118.133 99.6692L117.99 100.33L116.985 99.6692L115.98 99.0376V95.1042V91.1995L116.928 90.5966L117.846 90.0224L118.076 94.53C118.191 96.9991 118.22 99.3247 118.133 99.6692ZM149.084 90.5966C149.428 90.7976 149.802 91.056 149.888 91.1995C149.974 91.3431 150.089 93.9845 150.117 97.0565C150.175 103.143 150.146 103.258 148.596 102.024L147.849 101.449V95.8507C147.849 92.0896 147.935 90.2808 148.165 90.2808C148.337 90.2808 148.739 90.4243 149.084 90.5966ZM165.363 92.5776C166.511 93.8696 167.401 94.9606 167.344 94.9894C167.229 95.1042 164.157 95.2478 163.296 95.1903C162.836 95.1616 162.779 94.8458 162.779 92.7212C162.779 91.3718 162.894 90.2808 163.037 90.2808C163.152 90.2808 164.215 91.3144 165.363 92.5776ZM207.712 90.5679C207.625 90.7114 207.396 90.855 207.252 90.855C207.08 90.855 207.051 90.7114 207.137 90.5679C207.224 90.3956 207.453 90.2808 207.597 90.2808C207.769 90.2808 207.798 90.3956 207.712 90.5679ZM51.5241 91.4866C53.4765 92.2331 53.7349 91.9173 48.2798 95.219C45.2651 97.0278 44.289 97.4872 43.686 97.3724C42.4802 97.114 40.7575 96.4823 40.7575 96.2526C40.7575 96.1378 42.0208 95.3339 43.5712 94.4726C45.0929 93.6112 47.0165 92.4341 47.7917 91.8886C48.5956 91.3431 49.3708 90.9124 49.5718 90.8837C49.744 90.855 50.6341 91.1421 51.5241 91.4866ZM92.3798 97.2862C92.4085 100.732 92.3511 102.914 92.1788 102.914C92.0353 102.914 91.5759 102.799 91.1739 102.626L90.4274 102.339V96.6259V90.8837L91.3749 91.2856L92.2937 91.6589L92.3798 97.2862ZM159.822 97.2575C171.191 104.866 172.828 106.043 172.828 106.589C172.828 106.847 172.914 107.536 173 108.139C173.172 109.115 173.115 109.23 171.938 109.976C170.646 110.78 167.717 112.446 166.598 113.02C166.081 113.278 165.765 113.163 164.731 112.474C164.071 111.986 162.492 110.981 161.286 110.206C160.051 109.431 157.267 107.622 155.056 106.215L151.036 103.631L150.95 97.803C150.893 94.5874 150.921 91.8886 150.979 91.8312C151.266 91.5728 151.926 91.9747 159.822 97.2575ZM169.038 93.238C170.502 93.9845 171.622 94.731 171.536 94.8745C171.45 95.0468 170.761 95.1616 170.043 95.1616C168.866 95.1616 168.665 95.0468 167.43 93.6974C166.081 92.2044 165.621 91.544 166.109 91.745C166.253 91.8024 167.574 92.4915 169.038 93.238ZM177.824 92.3192C178.455 92.8073 178.57 93.1231 178.57 94.3003C178.57 95.5636 178.484 95.7358 177.651 96.1378C177.163 96.3962 176.704 96.5972 176.646 96.5972C176.618 96.5972 176.56 95.5062 176.56 94.1567C176.56 92.8073 176.675 91.7163 176.819 91.7163C176.933 91.7163 177.393 91.9747 177.824 92.3192ZM98.3804 93.7548C101.022 94.7022 103.233 95.5349 103.29 95.5636C103.405 95.6784 94.3895 101.995 93.7579 102.225C93.356 102.397 93.2985 101.88 93.2985 97.2001C93.2985 94.329 93.356 92.0034 93.4134 92.0034C93.4995 92.0034 95.7103 92.7786 98.3804 93.7548ZM115.119 95.1903C115.119 96.9417 115.004 98.3198 114.86 98.2624C114.315 98.0614 110.238 95.3052 110.238 95.1329C110.238 94.9319 114.573 92.0034 114.918 92.0034C115.033 92.0034 115.119 93.439 115.119 95.1903ZM56.7782 93.5251L58.2712 94.128V95.7358C58.2712 96.6259 58.3573 98.5495 58.4435 99.9851C58.6157 102.225 58.587 102.626 58.1851 102.77C57.9554 102.885 56.2327 102.368 54.3378 101.622C52.4716 100.904 49.6866 99.8128 48.1649 99.2386C46.6145 98.6644 45.38 98.1189 45.38 98.0327C45.38 97.9466 47.3323 96.712 49.744 95.2478C54.4239 92.4628 54.2229 92.4915 56.7782 93.5251ZM75.4977 93.6687C75.4977 94.0419 72.6554 95.7933 72.2534 95.6497C72.0811 95.5923 72.6267 95.0755 73.488 94.5013C75.1245 93.439 75.4977 93.2667 75.4977 93.6687ZM81.2399 93.9558C81.2399 94.4726 78.254 97.7456 77.7659 97.7456C77.2778 97.7456 77.2204 97.5159 77.2204 95.7358V93.7261H79.2302C80.3499 93.7261 81.2399 93.8122 81.2399 93.9558ZM85.8337 93.8409C85.8337 93.9845 80.1776 97.4585 79.9479 97.4585C79.7183 97.4585 80.9815 95.6784 82.0438 94.5013C82.6755 93.8409 83.02 93.7261 84.312 93.7261C85.1446 93.7261 85.8337 93.7835 85.8337 93.8409ZM88.0731 94.0706C87.8722 94.6735 81.1251 98.6069 80.3212 98.6069C79.9479 98.6069 81.3548 97.6882 85.5466 95.1042C87.8722 93.6687 88.2454 93.5251 88.0731 94.0706ZM180.379 94.128C180.723 94.3864 180.781 94.5874 180.58 94.731C180.235 94.9319 179.431 94.4151 179.431 93.9845C179.431 93.6112 179.776 93.6687 180.379 94.128ZM60.5681 95.0181L61.4294 95.4774V99.7554C61.4294 104.407 61.4294 104.378 59.879 103.775L59.1325 103.488V99.2386C59.1325 95.4487 59.2186 94.5874 59.6206 94.5874C59.678 94.5874 60.1087 94.7884 60.5681 95.0181ZM89.4513 98.1476C89.5948 101.88 89.48 102.167 88.2167 101.622L87.2692 101.22V98.4921C87.2692 95.7933 87.2692 95.7358 88.0731 95.3339C88.5038 95.1042 88.9632 94.9319 89.1067 94.9606C89.2503 95.0181 89.3938 96.4249 89.4513 98.1476ZM75.2106 96.0229C75.2106 96.3962 75.0097 96.5972 74.6938 96.5972C73.8899 96.5972 73.7177 96.2813 74.2919 95.8507C74.981 95.3052 75.2106 95.3626 75.2106 96.0229ZM185.518 97.6595C188.734 99.8128 189.193 100.243 188.533 100.502C188.131 100.645 181.154 97.3437 179.833 96.3962C179.029 95.7933 179.833 95.3913 181.441 95.5923C182.389 95.7071 183.451 96.2526 185.518 97.6595ZM63.4104 96.0517L64.3005 96.3675V100.789C64.3005 105.526 64.2431 105.67 62.8362 104.923C62.3194 104.636 62.2907 104.263 62.2907 100.186C62.2907 97.7456 62.3481 95.7358 62.4056 95.7358C62.4343 95.7358 62.8936 95.8794 63.4104 96.0517ZM172.943 96.3675C173.201 97.3437 173.144 99.4683 172.857 99.4683C172.512 99.4683 169.67 96.3962 169.67 96.0517C169.67 95.8507 170.33 95.7358 171.22 95.7358C172.569 95.7358 172.77 95.822 172.943 96.3675ZM201.252 97.0278C201.252 97.2575 201.166 97.4585 201.022 97.4585C200.85 97.4585 199.931 96.913 199.271 96.4249C199.242 96.3962 199.271 96.2239 199.385 96.0517C199.644 95.621 201.252 96.4823 201.252 97.0278ZM42.394 97.9179C45.0354 98.9515 47.8778 100.042 48.653 100.33C49.4569 100.617 52.2993 101.708 54.9694 102.77C61.6017 105.354 64.6163 106.531 71.3347 109.086C80.2351 112.474 80.2925 112.503 79.4311 112.848C79.1727 112.934 78.3976 112.819 77.7372 112.589C74.981 111.613 36.939 96.8843 36.7667 96.7407C36.6231 96.5685 37.0251 96.0229 37.3122 96.0229C37.427 96.0229 39.7239 96.8843 42.394 97.9179ZM170.072 97.9179C170.99 98.9515 171.708 99.8415 171.622 99.8989C171.478 100.042 165.076 96.4823 165.076 96.2239C165.076 96.1091 165.822 96.0229 166.741 96.0229H168.378L170.072 97.9179ZM192.437 96.9991C193.126 97.5733 193.184 97.6882 192.811 98.004C192.466 98.3198 192.15 98.205 191.031 97.3437L189.681 96.3101H190.657C191.232 96.3388 191.949 96.5972 192.437 96.9991ZM194.39 97.0278C194.418 97.5733 193.816 97.4872 193.5 96.913C193.241 96.3962 193.27 96.3388 193.816 96.5397C194.131 96.6833 194.39 96.8843 194.39 97.0278ZM86.4079 98.7505C86.4079 99.9276 86.3505 100.904 86.2931 100.904C86.0347 100.904 82.2161 99.4108 82.0438 99.2386C81.8429 99.0376 85.7188 96.5972 86.1782 96.5972C86.3218 96.5972 86.4079 97.5733 86.4079 98.7505ZM178.828 96.9991C179.029 97.2288 179.517 97.4872 179.948 97.6021C181.068 97.8892 187.356 101.277 186.982 101.392C186.58 101.535 177.996 97.2001 177.996 96.8556C177.996 96.4536 178.455 96.5397 178.828 96.9991ZM208.027 97.0278C208.487 97.4011 208.516 97.4872 208.142 97.7456C207.539 98.1476 206.822 98.0901 206.448 97.6308C206.161 97.3149 206.219 97.1427 206.621 96.913C207.31 96.511 207.367 96.511 208.027 97.0278ZM66.8845 97.3724C67.0854 97.5446 65.9944 98.3198 65.5351 98.3198C65.3341 98.3198 65.1618 98.004 65.1618 97.5733C65.1618 96.8843 65.2479 96.8556 65.937 97.0278C66.3964 97.1427 66.7983 97.2862 66.8845 97.3724ZM198.897 97.4585C199.558 97.7456 200.103 98.1189 200.103 98.2337C200.103 98.3773 199.242 98.7792 198.208 99.1524L196.313 99.8415L195.423 98.9515C194.418 97.9466 194.447 97.8605 195.998 97.3149C197.404 96.7981 197.433 96.7981 198.897 97.4585ZM202.113 97.4585C202.113 97.6021 201.998 97.7456 201.826 97.7456C201.682 97.7456 201.539 97.6021 201.539 97.4585C201.539 97.2862 201.682 97.1714 201.826 97.1714C201.998 97.1714 202.113 97.2862 202.113 97.4585ZM111.243 99.9851L114.975 102.512L115.061 104.206L115.148 105.928L116.928 106.818L118.708 107.737L119.713 107.192C120.258 106.904 120.861 106.675 121.033 106.646C121.206 106.646 125.483 109.345 130.508 112.618C135.532 115.891 140.471 119.078 141.418 119.681C142.394 120.255 143.428 120.973 143.744 121.26C144.031 121.547 144.921 122.121 145.696 122.581C147.964 123.873 147.935 123.815 146.758 124.82C146.184 125.308 145.036 126.313 144.232 127.031C143.457 127.749 141.849 129.127 140.729 130.132L138.662 131.969L135.992 130.304C134.556 129.385 131.283 127.318 128.757 125.739C126.23 124.131 121.636 121.231 118.564 119.279C115.492 117.326 111.559 114.829 109.807 113.709C108.085 112.56 104.295 110.177 101.424 108.369C98.5239 106.56 96.1696 105.009 96.1696 104.923C96.1696 104.837 97.6052 103.804 99.3565 102.626C101.108 101.449 103.462 99.8128 104.611 98.9802C105.73 98.1476 106.85 97.4872 107.08 97.4872C107.309 97.4872 109.204 98.6069 111.243 99.9851ZM178.8 100.846C178.886 103.115 178.857 103.229 178.168 103.459C177.795 103.631 177.393 103.89 177.278 104.033C176.761 104.895 176.56 104.062 176.56 101.105C176.56 99.296 176.646 97.7456 176.761 97.6595C176.847 97.5446 177.335 97.6882 177.824 97.9753C178.685 98.4921 178.714 98.5495 178.8 100.846ZM68.7507 98.0327C68.8368 98.205 68.6933 98.406 68.4061 98.5208C68.119 98.6356 67.4013 99.0089 66.7983 99.3821C65.047 100.473 64.846 99.9564 66.5974 98.8079C68.3487 97.6595 68.4923 97.6021 68.7507 98.0327ZM206.161 98.205C207.166 99.095 206.534 99.6405 203.032 100.846C201.166 101.507 199.472 102.052 199.242 102.11C198.754 102.196 197.232 101.133 197.232 100.703C197.232 100.416 204.238 97.803 205.099 97.7743C205.415 97.7456 205.874 97.9466 206.161 98.205ZM40.011 99.0376L41.1595 99.5257L39.1497 100.789C37.0538 102.167 36.9102 102.167 34.7282 101.248L33.4936 100.732L35.3311 99.5257C37.3409 98.205 37.9438 98.1476 40.011 99.0376ZM209.291 126.543V154.794L208.516 155.196C208.056 155.397 207.625 155.627 207.511 155.684C207.367 155.742 207.281 143.051 207.281 127.49V99.2099L207.913 98.7792C209.348 97.7456 209.291 96.3962 209.291 126.543ZM70.703 98.7792C70.7892 98.894 70.5882 99.3247 70.2724 99.7841C69.7268 100.502 69.4685 100.617 68.2052 100.617C66.5974 100.617 66.6548 100.416 68.521 99.296C69.6407 98.6356 70.3872 98.4634 70.703 98.7792ZM194.648 99.3247C195.165 99.8702 195.222 100.071 194.907 100.186C192.093 101.248 190.37 101.65 189.739 101.363C189.05 101.076 189.078 101.076 189.968 100.961C190.456 100.904 191.232 100.531 191.691 100.1C192.437 99.3821 193.442 98.6931 193.816 98.6356C193.902 98.6069 194.275 98.9228 194.648 99.3247ZM73.4019 99.6405C74.0622 99.8989 74.5503 100.215 74.4642 100.358C74.3206 100.617 70.904 100.732 70.904 100.473C70.904 100.129 71.6505 99.1812 71.9089 99.1812C72.0524 99.1812 72.7415 99.3821 73.4019 99.6405ZM183.164 103.258C183.164 103.603 181.929 103.832 180.723 103.717L179.604 103.631L179.575 101.765C179.575 100.732 179.604 99.7841 179.661 99.6692C179.776 99.4108 183.135 102.885 183.164 103.258ZM190.772 99.7554C190.686 99.8989 190.456 100.042 190.313 100.042C190.141 100.042 190.112 99.8989 190.198 99.7554C190.284 99.5831 190.514 99.4683 190.657 99.4683C190.83 99.4683 190.858 99.5831 190.772 99.7554ZM47.2749 101.794C59.3622 106.502 58.2712 105.957 58.3286 107.048C58.3286 107.536 58.386 108.311 58.4147 108.742C58.4435 109.23 58.2999 109.632 58.0702 109.718C57.8405 109.804 56.4624 109.431 55.0268 108.857C53.5626 108.283 51.1509 107.392 49.6579 106.847C41.9921 104.033 38.8626 102.827 38.4894 102.626C38.1735 102.454 38.4032 102.196 39.3507 101.622C40.0397 101.191 40.8724 100.674 41.1882 100.444C41.504 100.243 41.9921 100.071 42.2505 100.071C42.5089 100.042 44.777 100.846 47.2749 101.794ZM183.824 101.076C184.886 101.622 185.748 102.196 185.748 102.339C185.748 102.512 185.403 102.713 185.001 102.799C184.37 102.971 184.025 102.77 182.791 101.507C181.958 100.703 181.441 100.042 181.585 100.042C181.757 100.042 182.762 100.502 183.824 101.076ZM35.5321 102.512C37.8577 103.402 40.6427 104.435 41.7337 104.808C42.796 105.182 44.6909 105.871 45.8968 106.33C47.1026 106.818 50.0886 107.909 52.529 108.828C54.9694 109.718 60.8552 111.871 65.5925 113.594C70.3298 115.317 74.4642 116.81 74.7513 116.925C75.3255 117.068 77.852 118.676 87.2692 124.82C90.0255 126.629 94.1599 129.299 96.4567 130.763C98.7536 132.227 101.854 134.237 103.347 135.213C104.84 136.19 107.884 138.113 110.094 139.52C121.32 146.64 121.407 146.669 120.976 147.128C120.717 147.387 120.172 147.157 118.679 146.181C117.588 145.463 113.741 142.994 110.094 140.668C103.692 136.563 101.165 134.955 93.0114 129.643C90.8868 128.265 88.2454 126.543 87.1257 125.825C86.0347 125.136 83.9675 123.815 82.5894 122.896C74.6938 117.786 74.9522 117.929 68.0329 115.432C65.1044 114.369 61.5729 113.049 60.1374 112.503C58.7306 111.986 55.2278 110.694 52.3854 109.632C45.0067 106.933 42.2218 105.928 38.3171 104.435C36.4222 103.717 34.2401 102.942 33.4362 102.713C31.6561 102.167 30.4216 101.564 30.4216 101.191C30.4216 100.674 31.3116 100.904 35.5321 102.512ZM197.089 101.593C197.577 101.966 197.864 102.368 197.778 102.454C197.376 102.885 184.054 107.22 183.164 107.22C182.733 107.22 182.59 107.048 182.59 106.416C182.59 105.756 182.819 105.526 184.054 104.952C185.719 104.177 195.136 100.933 195.797 100.904C196.026 100.904 196.629 101.22 197.089 101.593ZM206.42 108.598C206.42 112.848 206.333 116.379 206.247 116.494C206.133 116.58 205.874 116.465 205.644 116.235C205.386 116.006 205.013 115.862 204.812 115.948C204.381 116.121 204.352 114.943 204.41 105.498C204.439 101.392 204.582 100.904 205.903 100.904C206.391 100.904 206.42 101.363 206.42 108.598ZM75.2106 102.052C74.8087 102.339 74.0335 102.856 73.488 103.143C72.9425 103.459 71.2772 104.378 69.8417 105.21C68.3774 106.014 67.028 106.646 66.827 106.589C66.6548 106.531 67.5161 105.871 68.7794 105.153C70.014 104.435 72.0811 103.258 73.3444 102.54C75.5552 101.248 76.6462 100.961 75.2106 102.052ZM68.4061 101.65C68.5784 101.851 65.8796 105.268 65.4202 105.44C65.2767 105.498 65.1618 104.636 65.1618 103.517V101.478H66.6835C67.5448 101.478 68.32 101.564 68.4061 101.65ZM73.2009 101.593C73.2009 101.823 67.43 104.981 67.2864 104.837C67.2003 104.78 67.7745 103.976 68.521 103.115C69.8991 101.507 69.8991 101.507 71.5644 101.478C72.4544 101.478 73.2009 101.535 73.2009 101.593ZM79.8905 102.052C80.8667 102.397 81.929 102.77 82.2448 102.914C82.5606 103.057 83.6229 103.459 84.5991 103.832L86.4079 104.493V106.1V107.737L83.7665 109.632C82.3022 110.666 80.838 111.527 80.5222 111.527C80.2351 111.527 77.8233 110.694 75.2106 109.689C72.5979 108.684 70.1288 107.766 69.6981 107.622C69.2388 107.479 68.8942 107.249 68.8655 107.105C68.8368 106.876 77.3927 101.535 77.8808 101.507C77.9956 101.478 78.9143 101.736 79.8905 102.052ZM203.491 104.292C203.549 105.584 203.462 106.646 203.348 106.646C202.888 106.646 199.701 103.229 199.931 103C200.218 102.684 202.745 101.823 203.118 101.909C203.29 101.937 203.434 103 203.491 104.292ZM32.0007 103.258L32.7185 103.574L32.7472 109.775C32.8333 133.778 32.7759 154.909 32.6036 155.081C32.4888 155.196 32.0581 155.081 31.6274 154.823L30.8522 154.335L30.7661 128.639C30.7374 112.359 30.7948 102.914 30.9671 102.914C31.1394 102.914 31.5987 103.057 32.0007 103.258ZM117.416 104.091C118.133 104.579 118.507 105.9 118.019 106.215C117.875 106.301 117.358 106.129 116.87 105.871C116.124 105.44 115.98 105.182 115.98 104.263C115.98 103.115 116.009 103.086 117.416 104.091ZM201.223 105.928C202.515 107.278 203.491 108.512 203.405 108.656C203.29 108.857 202.113 108.369 200.448 107.479C198.926 106.646 197.29 105.785 196.801 105.555C195.079 104.694 195.05 104.55 196.543 104.033C197.318 103.746 198.151 103.517 198.409 103.517C198.639 103.488 199.931 104.579 201.223 105.928ZM35.0153 104.206L35.8767 104.665V108.656C35.8767 112.044 35.8192 112.675 35.446 112.675C34.9579 112.675 34.8718 113.135 35.3024 113.393C35.8767 113.738 35.5895 114.398 34.8718 114.398C34.4698 114.398 34.154 114.57 34.154 114.742C34.154 115.001 34.0392 114.972 33.8669 114.685C33.5511 114.197 33.4649 104.263 33.7808 103.976C34.0392 103.717 34.0679 103.717 35.0153 104.206ZM146.5 104.722C146.931 105.096 146.988 105.813 146.988 112.072C146.988 115.862 146.902 118.992 146.816 118.992C146.73 118.992 146.27 118.733 145.811 118.389L144.978 117.815V110.78C144.978 103.115 144.892 103.488 146.5 104.722ZM179.144 105.153C178.656 105.325 177.938 104.952 178.139 104.636C178.254 104.464 178.513 104.493 178.886 104.722C179.173 104.895 179.316 105.096 179.144 105.153ZM38.9487 105.641C39.8101 106.014 46.7868 112.647 46.7868 113.106C46.7868 113.336 38.1161 113.02 37.2548 112.79C36.7954 112.647 36.738 112.216 36.738 108.771V104.895L37.3983 105.096C37.7429 105.182 38.4319 105.44 38.9487 105.641ZM88.3602 105.096C89.2216 105.354 89.1642 105.842 88.1306 106.445L87.2692 106.962V105.957C87.2692 104.866 87.3267 104.837 88.3602 105.096ZM194.792 105.297C195.395 105.699 199.586 107.967 201.912 109.173C202.658 109.546 203.261 109.976 203.261 110.12C203.261 110.493 203.319 110.493 200.936 109.259C194.418 105.9 192.839 104.923 193.816 104.923C194.045 104.923 194.476 105.096 194.792 105.297ZM120 105.785C120 105.928 119.856 106.129 119.684 106.244C119.282 106.474 118.736 105.928 118.966 105.526C119.167 105.21 120 105.411 120 105.785ZM150.089 113.709C150.117 117.326 150.031 120.37 149.888 120.513C149.744 120.657 149.285 120.571 148.739 120.312L147.849 119.824V112.991C147.849 109.23 147.935 106.072 148.05 105.986C148.136 105.871 148.625 106.1 149.113 106.474L150.003 107.163L150.089 113.709ZM180.006 106.215C179.805 106.445 179.46 106.646 179.23 106.646C178.857 106.646 178.857 106.56 179.144 106.215C179.345 105.986 179.69 105.785 179.919 105.785C180.293 105.785 180.293 105.871 180.006 106.215ZM190.629 107.794C190.629 108.742 190.542 109.517 190.428 109.517C190.083 109.517 188.045 107.421 188.045 107.048C188.045 106.761 189.394 106.158 190.284 106.1C190.514 106.072 190.629 106.589 190.629 107.794ZM194.734 108.196C195.797 109.374 196.658 110.465 196.658 110.637C196.658 110.838 195.854 110.953 194.505 110.953H192.351V108.512C192.351 107.163 192.466 106.072 192.581 106.072C192.725 106.072 193.701 107.019 194.734 108.196ZM47.5046 108.771C56.9505 112.187 58.2712 112.733 58.2712 113.278C58.2712 113.91 57.697 113.939 51.9835 113.623L48.452 113.45L45.4087 110.321C43.7147 108.598 42.2792 107.077 42.2218 106.904C42.1644 106.732 42.5089 106.79 42.9395 107.019C43.3989 107.249 45.4661 108.053 47.5046 108.771ZM61.0849 107.278C61.2858 107.45 61.4294 108.254 61.4294 109.287V111.01L60.6542 110.809C59.5345 110.551 59.3622 110.321 59.2186 108.828C59.0177 107.105 59.2474 106.56 60.0513 106.818C60.4245 106.904 60.8839 107.134 61.0849 107.278ZM181.441 139.348V171.734L180.666 172.136C180.207 172.337 179.776 172.566 179.661 172.624C179.517 172.681 179.431 158.096 179.431 140.18V107.651L180.207 107.163C180.637 106.904 181.097 106.761 181.211 106.818C181.355 106.904 181.441 121.547 181.441 139.348ZM174.838 107.392C175.153 107.737 175.125 107.909 174.723 108.311C174.292 108.742 174.206 108.742 173.976 108.369C173.258 107.249 174.034 106.388 174.838 107.392ZM196.6 107.909C197.203 108.283 198.524 109.029 199.529 109.546L201.395 110.522L199.845 110.608L198.266 110.694L196.543 108.972C194.734 107.134 194.763 106.732 196.6 107.909ZM98.122 110.292C102.572 113.163 106.821 115.862 114.258 120.571C125.168 127.461 129.589 130.246 132.575 132.084C134.326 133.175 135.762 134.208 135.733 134.409C135.647 134.783 127.522 141.96 127.177 141.96C127.034 141.96 126.89 141.817 126.833 141.673C126.775 141.501 125.053 140.295 123.014 138.946C120.947 137.625 119.167 136.419 118.995 136.304C118.851 136.161 117.818 135.5 116.698 134.811C115.607 134.094 113.08 132.486 111.099 131.194C109.118 129.902 106.534 128.208 105.357 127.461C104.18 126.686 100.964 124.619 98.2655 122.81L93.2985 119.566V113.537C93.2985 110.206 93.3847 107.507 93.5282 107.507C93.6431 107.507 95.7103 108.771 98.122 110.292ZM187.47 107.938C187.7 108.196 187.7 108.369 187.528 108.369C187.011 108.369 186.322 108.024 186.322 107.766C186.322 107.364 187.068 107.479 187.47 107.938ZM63.4104 108.11C64.2718 108.426 64.3005 108.455 64.3005 110.264C64.3005 112.187 64.2144 112.302 63.0085 111.757C62.3481 111.469 62.2907 111.297 62.2907 109.603C62.2907 108.627 62.3481 107.794 62.4056 107.794C62.4343 107.794 62.8936 107.938 63.4104 108.11ZM92.3224 118.618C92.2362 118.705 91.8056 118.532 91.3175 118.245L90.4274 117.728V113.364V109L91.3749 108.397L92.2937 107.823L92.3798 113.163C92.4085 116.092 92.3798 118.561 92.3224 118.618ZM157.295 111.757C159.908 113.393 162.233 114.915 162.463 115.116C162.865 115.489 162.176 115.948 154.883 120.111C152.271 121.604 150.433 122.035 150.433 121.174C150.433 120.944 150.577 120.657 150.72 120.571C150.893 120.456 151.008 117.987 151.008 114.053V107.737L151.783 108.225C152.185 108.512 154.683 110.091 157.295 111.757ZM178.513 119.853C178.57 131.625 178.484 132.802 177.651 131.969C177.45 131.768 177.077 131.625 176.819 131.625C176.388 131.625 176.331 130.734 176.388 120.111L176.417 108.598L177.134 108.225C177.536 107.995 177.996 107.852 178.139 107.909C178.312 107.967 178.455 112.245 178.513 119.853ZM187.126 109.259C189.48 110.493 190.112 110.953 189.538 110.953C189.136 110.953 184.915 108.771 184.484 108.34C183.853 107.737 185.059 108.139 187.126 109.259ZM184.398 109.201C185.059 109.632 186.781 110.608 188.188 111.326C191.892 113.163 199.902 117.527 200.218 117.843C200.534 118.159 200.017 118.618 198.409 119.451C197.835 119.738 196.744 120.37 195.94 120.858C195.165 121.346 193.471 122.293 192.236 122.983C190.973 123.672 189.48 124.533 188.877 124.906C188.274 125.279 187.729 125.595 187.643 125.595C187.585 125.595 186.523 126.169 185.288 126.887C184.025 127.605 182.848 128.179 182.676 128.179C182.389 128.179 182.302 126.055 182.302 118.446C182.302 108.914 182.331 108.598 183.106 108.397C183.164 108.369 183.738 108.742 184.398 109.201ZM71.3921 111.096C74.5216 112.302 77.2491 113.336 77.4501 113.393C78.053 113.623 77.8233 113.967 76.3878 115.03L74.981 116.092L73.4306 115.546C72.5979 115.259 70.8179 114.599 69.4685 114.111C68.119 113.594 66.5974 113.049 66.1093 112.876C65.1618 112.589 65.1618 112.56 65.1618 110.752C65.1618 109.747 65.2767 108.943 65.4489 108.943C65.5925 108.943 68.2626 109.919 71.3921 111.096ZM175.699 119.078C175.699 124.504 175.613 129.012 175.527 129.127C175.441 129.213 175.067 129.155 174.723 128.983C174.091 128.725 174.062 128.524 173.89 123.499C173.775 120.657 173.689 116.494 173.689 114.226C173.689 110.321 173.718 110.091 174.321 109.689C175.728 108.713 175.699 108.57 175.699 119.078ZM89.5661 113.565C89.5661 115.633 89.4513 116.695 89.2503 116.695C89.078 116.695 88.5612 116.436 88.1018 116.092C87.3267 115.546 87.2692 115.374 87.2692 113.594C87.2692 112.532 87.3841 111.527 87.4989 111.355C87.8435 110.838 89.078 110.12 89.3364 110.264C89.4513 110.35 89.5661 111.814 89.5661 113.565ZM173.115 119.853V129.041L174.263 129.615C174.895 129.931 175.412 130.361 175.441 130.562C175.441 130.734 175.498 131.194 175.584 131.538C175.728 132.314 175.814 132.256 163.21 139.376C161.631 140.267 158.96 141.788 157.267 142.764C155.601 143.741 154.137 144.544 154.051 144.544C153.965 144.544 153.879 139.405 153.879 133.089V121.662L156.979 119.91C160.339 118.016 162.894 116.695 164.617 115.977C165.219 115.747 165.765 115.288 165.851 114.972C165.995 114.427 166.684 113.967 169.813 112.245C170.617 111.785 171.507 111.268 171.823 111.067C173.115 110.149 173.115 110.12 173.115 119.853ZM190.772 111.24C190.858 111.383 190.743 111.527 190.514 111.527C190.255 111.527 190.054 111.383 190.054 111.24C190.054 111.067 190.169 110.953 190.313 110.953C190.485 110.953 190.686 111.067 190.772 111.24ZM198.811 112.733C199.414 113.422 200.304 114.398 200.792 114.943L201.682 115.92L199.385 114.685C198.122 113.996 196.457 113.135 195.653 112.733L194.217 111.986L195.222 111.814C197.548 111.441 197.663 111.469 198.811 112.733ZM203.491 113.881C203.549 115.116 203.462 116.121 203.319 116.121C203.003 116.121 199.242 112.13 199.242 111.785C199.242 111.613 200.132 111.527 201.338 111.584L203.405 111.67L203.491 113.881ZM195.797 113.766C197.778 114.829 200.017 116.006 200.735 116.408C201.481 116.781 201.998 117.212 201.855 117.355C201.74 117.47 200.735 117.068 199.644 116.465C198.553 115.862 196.342 114.656 194.734 113.824C192.15 112.474 191.232 111.814 192.007 111.814C192.122 111.814 193.816 112.704 195.797 113.766ZM86.3505 114.254L86.2644 114.972L85.3456 114.341C84.8288 113.967 84.3981 113.594 84.3981 113.45C84.3981 113.336 84.8288 112.991 85.3456 112.675L86.2644 112.101L86.3505 112.819C86.4079 113.221 86.4079 113.852 86.3505 114.254ZM60.5968 113.537C60.7403 113.537 60.8552 113.651 60.8552 113.824C60.8552 113.967 60.5394 114.111 60.1374 114.111C59.678 114.111 59.4196 113.939 59.4196 113.651C59.4196 113.336 59.5632 113.25 59.879 113.364C60.1374 113.45 60.4532 113.537 60.5968 113.537ZM43.5138 113.996L47.7917 114.168L53.0458 119.394C56.7495 123.069 58.2712 124.763 58.2712 125.222C58.2712 125.595 58.1276 125.882 57.9267 125.882C57.7544 125.882 56.3763 125.222 54.8546 124.389C51.7251 122.724 49.4569 121.518 44.9206 119.135C35.6183 114.254 36.2786 114.656 36.5657 113.939C36.7093 113.565 36.9964 113.479 38.0013 113.623C38.6616 113.738 41.1595 113.881 43.5138 113.996ZM55.1704 114.57L58.1851 114.771L58.3573 118.819C58.4147 121.059 58.4147 122.983 58.3573 123.126C58.1851 123.356 49.6579 115.03 49.6579 114.628C49.6579 114.341 51.2083 114.341 55.1704 114.57ZM63.554 114.685L64.3005 114.972V120.858V126.744L63.6114 127.059C62.2333 127.691 62.1472 127.26 62.2333 120.542C62.262 117.154 62.4343 114.398 62.5778 114.398C62.7214 114.398 63.152 114.513 63.554 114.685ZM164.932 114.972C164.846 115.116 164.617 115.259 164.473 115.259C164.301 115.259 164.272 115.116 164.358 114.972C164.444 114.8 164.674 114.685 164.817 114.685C164.99 114.685 165.018 114.8 164.932 114.972ZM36.9102 115.805C37.829 116.264 40.5278 117.671 42.8821 118.963C45.2364 120.226 47.2749 121.289 47.3897 121.289C47.5333 121.289 47.6481 121.403 47.6481 121.576C47.6481 122.092 47.1313 121.892 44.1454 120.284C42.5089 119.394 39.8101 117.987 38.1161 117.125C36.3935 116.235 35.0153 115.403 35.0153 115.259C35.0153 114.886 34.9866 114.857 36.9102 115.805ZM61.3145 119.997C61.3433 122.667 61.2571 125.107 61.171 125.423C60.97 125.911 60.9126 125.911 60.1661 125.279C59.4196 124.619 59.3909 124.504 59.2186 120.542C59.1325 118.331 59.1325 116.149 59.2474 115.719C59.4196 115.03 59.5632 114.943 60.3671 115.03L61.2858 115.116L61.3145 119.997ZM70.3872 117.154C72.7989 118.044 75.1532 119.049 75.5839 119.336C76.3591 119.91 76.3878 119.939 76.3017 122.667L76.2155 125.452L70.904 126.198C67.9755 126.629 65.5351 126.916 65.4489 126.83C65.3628 126.772 65.2767 124.188 65.2192 121.116C65.1331 116.293 65.1905 115.546 65.5638 115.546C65.7935 115.546 67.9755 116.264 70.3872 117.154ZM84.4556 117.556L86.3792 118.848L86.4653 120.427L86.5515 122.006L88.2454 122.896L89.9394 123.815L90.8294 123.27C91.3175 122.983 91.8917 122.724 92.0927 122.724C92.3224 122.724 93.6144 123.471 94.9638 124.361C96.3419 125.251 103.204 129.73 110.238 134.295C117.272 138.831 123.416 142.879 123.876 143.252L124.737 143.942L123.531 145.147L122.354 146.353L121.234 145.664C120.631 145.291 119.052 144.286 117.703 143.396C116.353 142.535 114.918 141.616 114.516 141.386C114.114 141.157 112.592 140.18 111.128 139.233C109.664 138.285 103.606 134.352 97.6626 130.534C91.7194 126.686 86.1208 123.069 85.2595 122.523C84.3981 121.949 82.5894 120.772 81.2399 119.91C79.8905 119.02 78.6847 118.217 78.5698 118.102C78.4263 117.987 79.0005 117.384 79.8331 116.752C81.5558 115.432 81.2399 115.374 84.4556 117.556ZM35.8767 119.451V121.863L34.9579 122.265C34.4411 122.466 33.9243 122.581 33.8095 122.523C33.5511 122.38 33.4936 116.953 33.752 116.322C33.8956 115.948 34.0392 115.948 34.9005 116.465L35.8767 117.039V119.451ZM204.984 117.212C204.984 117.326 203.864 118.016 202.486 118.762C201.079 119.508 198.553 120.944 196.83 121.978C195.079 123.011 193.615 123.786 193.528 123.7C193.241 123.413 194.792 122.408 199.759 119.623C204.467 117.011 204.984 116.781 204.984 117.212ZM206.42 121.145C206.42 122.954 206.362 124.447 206.276 124.447C206.19 124.447 205.903 124.332 205.616 124.188C205.357 124.045 204.927 123.844 204.697 123.786C204.352 123.672 204.295 123.212 204.41 121.145C204.553 118.848 204.611 118.618 205.271 118.245C205.673 118.044 206.075 117.872 206.219 117.843C206.333 117.843 206.42 119.336 206.42 121.145ZM39.8962 121.633C39.8962 121.777 39.1784 121.863 38.3171 121.863H36.738V119.91V117.987L38.3171 119.709C39.1784 120.657 39.8675 121.518 39.8962 121.633ZM41.5614 119.796C43.1692 120.657 44.4899 121.461 44.4899 121.604C44.4899 121.748 43.7147 121.863 42.796 121.863H41.102L39.6378 120.169C38.2884 118.59 37.8577 117.958 38.4032 118.188C38.5181 118.217 39.9249 118.963 41.5614 119.796ZM88.8196 120.456C89.2503 120.8 89.5661 121.317 89.5661 121.748C89.5661 122.581 89.3938 122.609 88.2167 121.863C87.5563 121.461 87.2692 121.088 87.2692 120.571C87.2692 119.681 87.786 119.652 88.8196 120.456ZM201.079 121.863L199.673 123.585H198.036C197.117 123.585 196.371 123.499 196.371 123.356C196.371 123.097 202.17 119.824 202.343 119.997C202.429 120.054 201.855 120.887 201.079 121.863ZM203.491 122.207L203.405 123.729L202.257 123.643C201.625 123.585 201.079 123.499 201.022 123.442C200.85 123.298 203.06 120.714 203.348 120.714C203.462 120.714 203.549 121.403 203.491 122.207ZM82.1587 123.614C84.0823 124.877 86.2931 126.342 87.0395 126.83L88.4177 127.749V132.256C88.4177 134.926 88.3028 136.792 88.1593 136.792C87.987 136.792 85.6614 134.381 82.9913 131.395L78.0817 126.026V123.643C78.0817 122.351 78.1966 121.289 78.3401 121.289C78.4837 121.289 80.2063 122.322 82.1587 123.614ZM90.8868 122.351C90.5997 122.638 90.3413 122.207 90.5997 121.834C90.772 121.518 90.8294 121.518 90.9442 121.834C91.0017 122.035 90.9729 122.265 90.8868 122.351ZM51.7825 123.7C56.2327 126.026 58.0702 127.031 58.4147 127.347C59.0751 127.978 57.8692 127.461 54.2517 125.595C52.127 124.475 49.8302 123.298 49.1698 122.954C48.0788 122.408 47.562 121.863 48.1075 121.863C48.2224 121.863 49.8589 122.695 51.7825 123.7ZM46.7294 125.078C46.7581 126.485 46.7007 127.605 46.5571 127.605C46.069 127.605 41.906 122.782 42.2792 122.609C42.4515 122.552 43.5425 122.494 44.6335 122.523L46.6433 122.581L46.7294 125.078ZM42.4515 124.504C43.2554 125.48 43.8583 126.342 43.8009 126.399C43.6573 126.514 38.6042 123.844 37.7429 123.183C37.1974 122.782 37.3122 122.753 39.0923 122.724H41.0159L42.4515 124.504ZM39.1497 124.964C44.1167 127.576 46.3274 128.811 46.4423 129.098C46.4997 129.213 46.7294 129.328 46.9591 129.328C47.1888 129.328 47.361 129.442 47.361 129.615C47.361 130.074 48.4808 130.648 36.6806 124.361C35.2163 123.585 34.6134 123.011 35.2163 123.011C35.3024 123.011 37.0825 123.901 39.1497 124.964ZM153.017 155.311V187.295L152.156 187.754C151.697 187.984 151.266 188.185 151.151 188.185C151.065 188.185 151.008 173.801 151.008 156.201V124.217L151.668 123.786C152.012 123.528 152.472 123.327 152.673 123.327C152.931 123.298 153.017 129.873 153.017 155.311ZM35.8767 139.577V154.277L34.9866 154.737C34.4985 154.995 34.0392 155.167 33.9817 155.081C33.8956 154.995 33.7808 128.294 33.8669 124.389C33.8669 123.901 33.9243 123.901 34.8718 124.361L35.8767 124.849V139.577ZM51.0647 126.169C52.1845 127.461 53.1032 128.61 53.1032 128.753C53.1032 128.926 52.0983 129.041 50.8063 129.041H48.5095V126.457C48.5095 125.021 48.6243 123.873 48.7679 123.873C48.9114 123.873 49.945 124.906 51.0647 126.169ZM192.638 124.131C192.638 124.533 182.676 130.074 182.417 129.816C182.36 129.758 182.475 129.529 182.704 129.328C183.106 129.041 192.38 123.873 192.581 123.873C192.61 123.873 192.638 123.987 192.638 124.131ZM150.089 125.337C150.146 125.94 148.711 127.318 140.528 134.496C125.397 147.76 125.139 147.99 124.967 147.99C124.68 147.99 123.158 146.985 123.158 146.813C123.158 146.698 123.847 146.037 124.68 145.377C126.46 143.884 135.446 136.017 143.227 129.127C147.935 124.964 148.854 124.246 149.4 124.418C149.744 124.562 150.031 124.935 150.089 125.337ZM198.582 124.562C198.84 124.791 194.619 129.643 194.332 129.442C193.93 129.213 194.016 124.906 194.447 124.475C194.792 124.102 198.208 124.16 198.582 124.562ZM203.06 124.648C203.175 124.734 202.831 125.078 202.314 125.394C201.051 126.169 196.888 128.466 196.773 128.466C196.715 128.466 197.404 127.548 198.294 126.457L199.931 124.447H201.395C202.228 124.447 202.974 124.533 203.06 124.648ZM57.4099 128.351C57.7544 128.696 57.5534 128.753 56.0604 128.753H54.3091L52.8448 127.117C52.0409 126.227 51.3806 125.366 51.3806 125.222C51.3806 124.964 56.7208 127.749 57.4099 128.351ZM205.271 125.222C205.242 125.595 194.39 131.596 194.217 131.337C194.131 131.223 195.079 130.534 196.285 129.816C204.439 125.078 205.271 124.648 205.271 125.222ZM192.351 128.466V131.05H190.255C189.078 131.05 188.073 130.964 187.958 130.878C187.758 130.677 191.748 125.882 192.122 125.882C192.236 125.882 192.351 127.031 192.351 128.466ZM206.42 140.956C206.42 149.081 206.333 155.742 206.247 155.742C206.133 155.742 205.616 155.483 205.099 155.139L204.123 154.536V140.869V127.174L204.927 126.686C205.357 126.399 205.874 126.169 206.075 126.169C206.333 126.169 206.42 129.328 206.42 140.956ZM61.0849 127.404L61.7165 128.064L61.6591 150.545L61.5729 172.997L60.6255 172.337L59.678 171.676V150.086C59.7067 138.228 59.7929 128.093 59.879 127.634C60.1087 126.571 60.281 126.543 61.0849 127.404ZM78.1392 127.002C78.1966 127.146 79.0579 128.179 80.0915 129.328C81.1251 130.476 82.1874 131.682 82.4745 132.026C82.7616 132.371 83.5368 133.204 84.1972 133.921C87.5851 137.596 88.1306 138.228 88.1306 138.515C88.1306 138.888 88.188 138.946 85.1159 135.5C83.8526 134.065 82.7616 132.859 82.6755 132.773C82.0151 132.141 77.5075 127.002 77.5075 126.887C77.5075 126.629 78.0243 126.744 78.1392 127.002ZM79.2302 130.103C87.8147 139.778 88.4177 140.525 88.4177 141.243C88.4177 141.645 88.3028 141.96 88.1593 141.96C87.6712 141.96 85.6327 141.013 82.6755 139.376C81.0103 138.486 78.5698 137.166 77.2204 136.448C75.871 135.73 73.6028 134.496 72.196 133.72C70.7604 132.917 68.6645 131.797 67.5161 131.223C65.6786 130.304 65.4489 130.103 65.4489 129.356V128.552L69.411 128.036C71.5644 127.749 73.8612 127.433 74.4929 127.318C75.1245 127.203 75.8423 127.088 76.072 127.059C76.3017 127.059 77.7372 128.409 79.2302 130.103ZM189.308 127.662C189.193 127.863 188.561 128.639 187.93 129.385C186.781 130.734 186.724 130.763 185.059 130.763C183.968 130.763 183.451 130.648 183.623 130.505C183.968 130.132 188.992 127.318 189.279 127.318C189.423 127.318 189.423 127.49 189.308 127.662ZM150.146 138.084C150.146 143.913 150.031 148.564 149.888 148.564C149.744 148.564 149.486 148.363 149.285 148.133C149.084 147.875 148.682 147.76 148.395 147.846C147.878 148.018 147.849 147.645 147.849 138.601V129.184L148.768 128.409C149.285 127.978 149.802 127.605 149.945 127.605C150.06 127.605 150.146 132.314 150.146 138.084ZM64.3005 128.897C64.3005 129.299 64.1569 129.615 63.956 129.615C63.7837 129.615 63.3817 129.844 63.0659 130.103C62.5491 130.591 62.5491 130.562 62.6353 129.615C62.6927 128.84 62.8936 128.581 63.4392 128.438C63.8411 128.323 64.1856 128.237 64.2431 128.208C64.2718 128.179 64.3005 128.495 64.3005 128.897ZM90.4562 129.069L91.2888 129.643V158.498C91.2888 178.423 91.2026 187.324 91.0017 187.324C90.8294 187.324 90.2839 187.123 89.8245 186.864L88.9632 186.434L89.0206 157.952C89.0206 142.276 89.1067 129.242 89.1929 128.954C89.3651 128.323 89.4513 128.351 90.4562 129.069ZM55.5724 131.251C56.3476 132.17 57.1802 133.06 57.4099 133.261C57.6395 133.433 57.7831 133.634 57.697 133.72C57.6108 133.807 55.9456 133.003 53.9933 131.969C50.1747 129.959 50.0311 129.672 52.8448 129.643C54.1368 129.615 54.2517 129.672 55.5724 131.251ZM58.0989 130.074C58.1851 130.333 58.2712 131.05 58.2712 131.711V132.888L56.8356 131.481C56.0604 130.706 55.4001 129.959 55.4001 129.844C55.4001 129.73 55.9743 129.615 56.6634 129.615C57.5534 129.615 57.9841 129.758 58.0989 130.074ZM51.0935 131.337C52.2706 131.969 54.5101 133.146 56.0604 133.95C57.5821 134.754 58.8454 135.529 58.8454 135.701C58.8454 136.046 57.8118 135.73 56.5485 134.926C56.003 134.61 54.4526 133.749 53.1032 133.089C50.2321 131.625 48.2224 130.476 48.2224 130.304C48.2224 129.959 49.1698 130.304 51.0935 131.337ZM146.988 139.463V148.708L145.926 149.282C145.323 149.598 143.858 150.43 142.681 151.119C131.943 157.407 125.713 160.91 125.311 160.91C125.225 160.91 125.168 158.24 125.196 154.938V148.995L129.819 144.975C132.374 142.764 137.198 138.544 140.585 135.558C143.945 132.601 146.758 130.189 146.844 130.189C146.931 130.189 146.988 134.352 146.988 139.463ZM68.8368 132.83C71.306 134.094 73.8038 135.443 74.3493 135.788C74.8948 136.132 75.5839 136.477 75.871 136.592C76.1581 136.706 76.3017 136.907 76.2155 137.08C76.0433 137.367 74.3206 136.534 68.6933 133.405C67.2577 132.601 65.6212 131.739 65.047 131.51C64.4727 131.28 64.0134 130.935 64.0134 130.792C64.0134 130.62 64.0708 130.476 64.1569 130.476C64.2431 130.476 66.339 131.538 68.8368 132.83ZM93.3272 130.964L94.1599 131.452V137.367C94.1599 143.511 93.9876 145.406 93.4995 145.406C93.3272 145.406 92.954 145.607 92.6669 145.894C92.1788 146.353 92.1501 146.095 92.1501 138.429C92.1501 134.036 92.2362 130.476 92.3224 130.476C92.4085 130.476 92.8679 130.706 93.3272 130.964ZM63.8698 131.797C64.5302 132.227 64.5876 132.428 64.5876 134.754L64.5589 137.223L63.5827 137.855L62.5778 138.486V134.926C62.5778 132.629 62.6927 131.337 62.8649 131.337C63.0372 131.337 63.4966 131.538 63.8698 131.797ZM184.484 131.625C185.087 131.625 185.461 131.768 185.461 131.969C185.432 132.17 184.743 133.117 183.882 134.065L182.302 135.788V133.749C182.302 131.625 182.446 131.223 183.106 131.481C183.307 131.567 183.939 131.625 184.484 131.625ZM189.911 131.883C190.514 132.113 190.37 132.227 185.633 134.783C183.135 136.132 183.135 136.161 185.748 133.117C186.925 131.768 187.155 131.625 188.188 131.653C188.82 131.653 189.595 131.768 189.911 131.883ZM192.897 132.314C192.208 132.974 182.848 137.97 182.503 137.855C182.13 137.74 184.456 136.333 188.762 134.065C190.514 133.146 192.179 132.227 192.466 132.026C193.155 131.567 193.471 131.768 192.897 132.314ZM177.077 132.83C177.02 133.003 175.555 133.95 173.804 134.926C172.081 135.902 169.612 137.309 168.349 138.027C165.908 139.434 165.535 139.577 165.708 139.089C165.794 138.802 176.474 132.543 176.933 132.515C177.077 132.486 177.134 132.629 177.077 132.83ZM137.513 132.888C137.513 132.974 137.399 133.117 137.226 133.204C137.083 133.29 136.939 133.232 136.939 133.089C136.939 132.917 137.083 132.773 137.226 132.773C137.399 132.773 137.513 132.83 137.513 132.888ZM99.5575 137.568C104.209 142.477 105.931 144.458 105.931 144.86C105.931 145.033 105.443 145.09 104.725 145.004C104.036 144.918 102.716 144.774 101.768 144.688C97.0884 144.286 96.2558 144.229 95.6815 144.085C95.0212 143.97 95.0212 143.913 95.0212 138.659C95.0212 135.615 95.136 133.347 95.2796 133.347C95.4231 133.347 97.3468 135.242 99.5575 137.568ZM105.271 138.515C113.97 144.085 116.899 146.037 116.784 146.124C116.727 146.152 114.659 145.98 112.162 145.722C108.458 145.32 107.539 145.119 107.108 144.659C106.821 144.372 105.903 143.339 105.07 142.391C104.237 141.444 102.515 139.577 101.223 138.228C97.3181 134.122 96.5716 133.261 97.0884 133.433C97.3468 133.519 101.022 135.816 105.271 138.515ZM68.8942 137.137C68.8942 137.281 68.2052 137.367 67.3438 137.367C65.5925 137.367 65.4489 137.137 65.6786 134.84L65.7935 133.606L67.3438 135.271C68.1765 136.19 68.8655 137.022 68.8942 137.137ZM70.5595 135.357C72.1673 136.218 73.488 137.022 73.488 137.137C73.488 137.252 72.7415 137.367 71.794 137.367H70.1288L68.6358 135.673C67.2577 134.065 66.8845 133.462 67.4013 133.692C67.5161 133.72 68.9229 134.496 70.5595 135.357ZM178.57 136.965C178.57 140.037 178.541 140.295 178.082 140.094C177.795 139.979 177.278 139.807 176.933 139.75C176.302 139.606 176.273 139.463 176.273 137.223C176.273 134.984 176.331 134.783 177.02 134.237C178.455 133.117 178.57 133.318 178.57 136.965ZM174.206 136.132C173.976 136.419 173.258 137.338 172.569 138.142C171.421 139.549 171.249 139.664 170.158 139.635C167.631 139.606 167.746 139.319 171.019 137.453C174.263 135.587 174.924 135.3 174.206 136.132ZM175.613 138.429C175.555 139.118 175.412 139.75 175.326 139.836C175.268 139.922 174.608 139.865 173.861 139.75L172.541 139.52L173.89 137.855C175.01 136.477 175.268 136.276 175.498 136.678C175.641 136.936 175.699 137.711 175.613 138.429ZM85.9198 141.932C88.5612 143.396 88.9058 144.085 86.3505 142.793C80.8954 140.066 76.962 137.855 77.1056 137.625C77.2491 137.367 79.9479 138.687 85.9198 141.932ZM75.7274 140.582C75.7561 141.989 75.6987 143.109 75.5552 143.109C75.4116 143.109 74.3493 142.075 73.2009 140.783C70.7892 138.113 70.8179 137.883 73.7751 137.998L75.6413 138.084L75.7274 140.582ZM71.4208 139.979C72.2534 140.956 72.9138 141.846 72.9138 141.96C72.9138 142.248 66.339 138.745 66.3102 138.429C66.3102 138.314 67.1429 138.228 68.119 138.228H69.9565L71.4208 139.979ZM65.736 139.175C67.028 139.836 68.8081 140.812 72.4257 142.85C73.5167 143.482 74.4929 143.97 74.579 143.97C74.6938 143.97 75.0958 144.229 75.4977 144.544C76.962 145.693 75.3829 145.061 70.9901 142.707C64.5302 139.262 64.0134 138.975 64.0134 138.716C64.0134 138.372 64.3579 138.486 65.736 139.175ZM64.8173 156.086L64.8747 171.762L63.8985 172.365C63.3817 172.71 62.8649 172.968 62.7501 172.968C62.5204 172.968 62.5204 139.807 62.7788 139.577C62.8649 139.463 63.353 139.606 63.8411 139.893L64.7311 140.41L64.8173 156.086ZM81.527 143.425L82.3884 144.487L80.2925 144.602C79.1727 144.688 78.053 144.688 77.8808 144.602C77.4788 144.458 77.3352 139.922 77.7372 139.549C77.9382 139.348 79.6034 141.042 81.527 143.425ZM164.932 139.922C164.243 140.554 154.395 146.009 154.108 145.923C153.62 145.75 164.014 139.664 164.789 139.664C165.018 139.664 165.076 139.75 164.932 139.922ZM170.359 140.467C170.416 140.582 169.842 141.472 169.038 142.391C168.234 143.339 167.401 144.401 167.172 144.745C166.913 145.119 166.626 145.406 166.483 145.406C166.339 145.406 166.224 144.229 166.224 142.822V140.238H168.205C169.325 140.238 170.273 140.353 170.359 140.467ZM174.78 140.812C174.694 141.128 168.722 144.544 168.55 144.401C168.492 144.343 169.153 143.453 169.985 142.42L171.536 140.554H173.201C174.206 140.525 174.838 140.64 174.78 140.812ZM83.8526 142.449C85.5753 143.367 86.9821 144.2 86.9821 144.315C86.9821 144.458 86.2356 144.544 85.3169 144.544C83.7665 144.544 83.5942 144.487 82.6468 143.453C80.838 141.501 80.2638 140.812 80.5222 140.812C80.637 140.812 82.1587 141.558 83.8526 142.449ZM176.876 141.386C176.503 141.702 174.838 142.707 173.144 143.597C171.478 144.487 169.383 145.664 168.521 146.181C166.913 147.157 166.511 147.301 166.511 146.899C166.511 146.698 168.952 145.233 173.976 142.391C176.79 140.812 178.139 140.353 176.876 141.386ZM164.157 144.315L164.071 146.985L162.061 146.87C160.97 146.813 159.994 146.726 159.937 146.669C159.879 146.64 160.08 146.267 160.367 145.894C162.722 142.908 163.755 141.673 163.985 141.673C164.128 141.673 164.186 142.879 164.157 144.315ZM178.57 157.177C178.57 165.704 178.484 172.681 178.398 172.681C178.283 172.681 177.766 172.423 177.249 172.078L176.273 171.475V157.177V142.879L177.221 142.305C177.709 141.989 178.225 141.702 178.369 141.702C178.484 141.673 178.57 148.65 178.57 157.177ZM126.029 142.793C126.029 142.965 125.914 143.166 125.742 143.252C125.598 143.339 125.455 143.224 125.455 142.994C125.455 142.736 125.598 142.535 125.742 142.535C125.914 142.535 126.029 142.65 126.029 142.793ZM161.085 143.597C160.941 143.884 160.281 144.717 159.621 145.463C158.501 146.755 158.329 146.841 157.066 146.841C156.319 146.841 155.601 146.755 155.515 146.64C155.343 146.497 160.597 143.224 161.142 143.138C161.257 143.109 161.229 143.339 161.085 143.597ZM102.199 145.549L107.223 146.009L108.487 147.358C109.176 148.105 111.702 150.746 114.085 153.273C116.468 155.77 118.449 157.924 118.507 158.039C118.736 158.642 117.904 158.527 116.382 157.723C115.435 157.235 114.573 156.718 114.401 156.603C114.258 156.488 112.305 155.455 110.094 154.306C107.884 153.158 104.582 151.378 102.773 150.344C100.964 149.339 98.4378 147.904 97.1745 147.186C94.4183 145.635 94.6192 145.808 94.8489 145.262C94.9925 144.889 95.2796 144.832 96.1122 144.946C96.6864 145.033 99.4427 145.32 102.199 145.549ZM88.2454 145.578C88.5038 146.21 88.4464 149.138 88.2167 149.138C87.9009 149.109 86.9821 148.306 85.6901 146.841L84.5704 145.549L85.403 145.377C87.0108 145.033 88.0731 145.09 88.2454 145.578ZM84.7714 149.425C86.6089 150.43 88.1306 151.435 88.1306 151.665C88.1306 151.923 87.6712 151.808 86.6376 151.205C83.9962 149.77 82.0151 148.679 79.4311 147.301C78.053 146.554 76.9907 145.808 77.1056 145.664C77.2491 145.406 77.9382 145.722 84.7714 149.425ZM85.202 147.444C86.2069 148.564 86.9534 149.54 86.896 149.626C86.8099 149.684 86.2644 149.454 85.6327 149.052C85.0298 148.679 83.4794 147.817 82.1874 147.157C80.8667 146.468 79.8044 145.808 79.8044 145.664C79.8044 145.521 80.6083 145.406 81.6132 145.434H83.3933L85.202 147.444ZM104.754 152.383C106.247 153.273 105.357 153.301 103.749 152.411C101.452 151.119 94.045 147.128 93.7579 147.042C93.6144 146.985 93.5856 146.813 93.6718 146.64C93.844 146.353 100.907 150.028 104.754 152.383ZM113.97 146.698C115.951 146.956 117.99 147.215 118.507 147.301C119.454 147.473 119.741 148.105 118.995 148.392C118.65 148.507 118.564 149.253 118.564 152.44C118.564 154.593 118.449 156.316 118.306 156.316C118.047 156.316 110.525 148.507 109.377 147.042L108.774 146.267H109.578C110.037 146.267 112.018 146.468 113.97 146.698ZM94.1024 150.803C94.1599 152.985 94.1024 153.445 93.7579 153.445C93.5282 153.445 93.0688 153.732 92.7243 154.076L92.1501 154.708V150.89V147.071L93.0976 147.617L94.0163 148.162L94.1024 150.803ZM157.439 147.674C157.611 147.932 154.625 151.78 154.137 151.952C153.993 152.009 153.879 151.004 153.879 149.741V147.416H155.573C156.52 147.416 157.353 147.53 157.439 147.674ZM165.937 147.53C165.937 147.617 165.822 147.76 165.65 147.846C165.507 147.932 165.363 147.875 165.363 147.731C165.363 147.559 165.507 147.416 165.65 147.416C165.822 147.416 165.937 147.473 165.937 147.53ZM162.492 147.904C162.463 148.191 155.888 151.808 155.716 151.636C155.659 151.579 156.348 150.66 157.238 149.626L158.903 147.731L160.712 147.703C161.688 147.703 162.492 147.789 162.492 147.904ZM123.158 148.679C123.158 149.253 121.751 149.712 120.976 149.368C120.028 148.908 120.115 148.65 121.378 148.363C122.555 148.047 123.158 148.162 123.158 148.679ZM165.076 148.105C165.076 148.191 163.755 148.995 162.147 149.885C160.511 150.803 158.128 152.153 156.807 152.928C155.515 153.675 154.309 154.306 154.166 154.306C153.362 154.306 154.166 153.675 156.692 152.268C158.214 151.435 160.511 150.114 161.774 149.368C163.784 148.191 165.076 147.703 165.076 148.105ZM148.883 149.109C148.768 149.253 147.706 149.913 146.471 150.574C145.265 151.263 142.882 152.612 141.217 153.617C138.289 155.368 137.513 155.713 137.513 155.225C137.513 154.967 148.165 148.851 148.653 148.851C148.854 148.851 148.969 148.966 148.883 149.109ZM124.306 175.839V202.225L123.445 202.684C122.986 202.914 122.555 203.115 122.44 203.115C122.354 203.115 122.297 191.257 122.297 176.758V150.43L123.1 149.942C123.531 149.655 123.962 149.425 124.105 149.425C124.22 149.425 124.306 161.312 124.306 175.839ZM97.031 151.32C97.7487 152.182 98.3804 153.014 98.4091 153.158C98.4665 153.33 97.7487 153.445 96.7726 153.445H95.0212V151.579C95.0212 150.258 95.136 149.712 95.3944 149.712C95.5667 149.741 96.3132 150.459 97.031 151.32ZM99.9882 151.32C101.682 152.182 103.118 153.014 103.204 153.186C103.319 153.33 102.63 153.445 101.567 153.445C99.9595 153.445 99.7011 153.359 99.1269 152.641C97.3755 150.545 96.7151 149.712 96.8013 149.712C96.8874 149.712 98.3229 150.43 99.9882 151.32ZM120.717 150.172L121.435 150.631V176.873C121.435 195.018 121.349 203.115 121.148 203.115C120.976 203.115 120.459 202.914 120 202.684L119.138 202.225V175.983C119.138 147.272 119.024 149.052 120.717 150.172ZM150.146 153.186V156.632L149.543 156.201C149.199 155.971 148.739 155.857 148.538 155.943C148.223 156.058 148.136 155.569 148.136 153.387C148.136 150.775 148.165 150.689 148.94 150.229C149.371 149.942 149.802 149.712 149.945 149.712C150.06 149.712 150.146 151.263 150.146 153.186ZM146.242 152.067C146.127 152.268 145.409 153.158 144.634 154.076L143.256 155.684L141.763 155.569C140.93 155.483 140.241 155.397 140.183 155.34C140.126 155.282 140.959 154.737 142.021 154.163C143.083 153.56 144.433 152.756 144.978 152.383C146.069 151.665 146.557 151.521 146.242 152.067ZM147.275 154.076C147.275 154.766 147.16 155.455 147.045 155.627C146.844 155.971 144.691 155.828 144.691 155.483C144.691 155.139 146.73 152.871 147.017 152.871C147.16 152.871 147.275 153.416 147.275 154.076ZM108.171 154.105C108.745 154.478 110.669 155.541 112.391 156.459C115.349 158.01 117.99 159.445 118.248 159.675C118.306 159.733 118.306 159.847 118.191 159.933C118.105 160.02 116.813 159.474 115.349 158.699C113.884 157.895 111.3 156.517 109.578 155.627C107.884 154.708 106.563 153.847 106.678 153.703C106.879 153.33 106.965 153.359 108.171 154.105ZM102.773 158.125C102.773 158.326 98.5526 156.172 96.3419 154.852L95.4806 154.335L97.3468 154.249L99.1843 154.163L100.964 156.029C101.941 157.062 102.773 158.01 102.773 158.125ZM105.242 154.392C105.328 154.622 105.357 155.857 105.3 157.177L105.214 159.56L102.974 157.062C101.768 155.684 100.821 154.45 100.907 154.277C101.194 153.847 105.07 153.962 105.242 154.392ZM97.8349 156.574C103.692 159.761 105.472 160.795 105.587 161.197C105.673 161.398 105.616 161.513 105.472 161.426C105.328 161.34 102.543 159.819 99.2704 158.067C95.9687 156.287 93.2985 154.794 93.2985 154.708C93.2985 154.306 94.6192 154.823 97.8349 156.574ZM94.0163 171.389V186.491L93.0976 187.065L92.1501 187.668V171.389V155.11L93.0976 155.713L94.0163 156.287V171.389ZM109.779 158.01L111.961 160.565L110.094 160.766C107.74 161.025 107.367 160.881 107.338 159.704C107.338 159.187 107.281 158.297 107.195 157.751C107.08 156.804 107.252 155.455 107.51 155.455C107.568 155.455 108.601 156.603 109.779 158.01ZM136.652 156.144C136.279 156.517 132.001 159.015 127.149 161.714C126.259 162.202 125.455 162.517 125.34 162.431C125.11 162.173 125.799 161.714 130.192 159.331C132.317 158.153 134.527 156.89 135.13 156.488C136.336 155.656 137.37 155.426 136.652 156.144ZM142.48 156.488C142.681 156.689 138.719 161.484 138.346 161.484C138.202 161.484 138.088 160.307 138.088 158.9V156.316H140.183C141.361 156.316 142.366 156.402 142.48 156.488ZM146.414 157.177C145.38 157.981 140.959 160.422 140.815 160.278C140.729 160.221 141.361 159.359 142.165 158.383L143.658 156.603H145.409H147.132L146.414 157.177ZM115.061 159.532C115.865 159.991 116.554 160.422 116.554 160.508C116.554 160.565 115.75 160.623 114.774 160.594H112.966L111.616 158.9C110.841 157.981 110.238 157.177 110.238 157.091C110.238 156.919 112.363 158.01 115.061 159.532ZM148.998 157.149C148.998 157.493 138.432 163.666 138.202 163.436C137.973 163.178 138.892 162.575 143.772 159.733C148.711 156.861 148.998 156.718 148.998 157.149ZM136.365 160.335V162.919H134.212C133.034 162.919 132.058 162.833 132.058 162.718C132.058 162.345 135.934 157.78 136.308 157.751C136.336 157.751 136.365 158.9 136.365 160.335ZM150.146 173.112C150.146 183.448 150.06 188.185 149.859 188.185C149.687 188.185 149.17 187.984 148.711 187.754L147.849 187.295V173.169V159.043L148.653 158.555C149.084 158.297 149.601 158.067 149.802 158.067C150.06 158.039 150.146 161.225 150.146 173.112ZM132.432 160.824C131.685 161.742 130.967 162.546 130.852 162.632C130.565 162.862 127.666 162.604 127.953 162.345C128.326 161.972 133.293 159.187 133.58 159.187C133.724 159.187 133.207 159.933 132.432 160.824ZM118.564 163.781C118.564 165.015 118.449 166.106 118.334 166.192C118.22 166.25 117.186 165.274 116.066 163.982C114.717 162.403 114.171 161.57 114.43 161.484C114.631 161.398 115.636 161.398 116.669 161.426L118.564 161.541V163.781ZM114.602 163.436C115.521 164.47 116.21 165.36 116.152 165.417C116.095 165.475 114.602 164.728 112.822 163.781C111.013 162.833 109.434 162.058 109.319 162.058C109.204 162.058 109.09 161.915 109.09 161.771C109.09 161.599 109.922 161.484 111.042 161.513H112.966L114.602 163.436ZM109.893 163.092C115.75 166.221 118.65 167.915 118.334 168.03C118.162 168.087 116.813 167.484 115.349 166.709C113.884 165.934 111.53 164.671 110.094 163.924C107.396 162.489 106.362 161.771 107.051 161.771C107.252 161.771 108.544 162.374 109.893 163.092ZM130.049 163.723C130.049 163.809 129.417 164.613 128.67 165.475C127.895 166.365 126.976 167.484 126.603 168.001C125.369 169.695 125.168 169.494 125.168 166.48C125.168 164.068 125.225 163.752 125.713 163.551C126.345 163.321 130.049 163.465 130.049 163.723ZM134.585 163.924C134.671 164.01 128.096 167.8 127.867 167.8C127.78 167.8 128.527 166.853 129.503 165.676L131.283 163.551L132.891 163.695C133.781 163.781 134.527 163.896 134.585 163.924ZM137.226 164.01C137.226 164.154 136.422 164.7 135.446 165.245C134.441 165.819 131.829 167.312 129.647 168.604C125.742 170.901 125.168 171.188 125.168 170.729C125.168 170.528 125.828 170.04 127.034 169.408C127.579 169.092 133.465 165.647 135.504 164.441C136.566 163.781 137.226 163.637 137.226 164.01Z" fill="#00417E"/>
</svg>
