<svg width="1529" height="1550" viewBox="0 0 1529 1550" fill="none" xmlns="http://www.w3.org/2000/svg">
<g style="mix-blend-mode:soft-light" opacity="0.4" clip-path="url(#clip0_196_19)">
<path d="M775.42 934.54L73.5823 1336.42L775.42 756.704L1476.64 1336.42L775.42 934.54Z" fill="white"/>
<path d="M775.417 1048.4L385.712 1234.79L775.417 993.904L1164.51 1234.79L775.417 1048.4Z" fill="white"/>
<path d="M710.413 1164.39H765.906V1219.82H710.413V1164.39ZM784.292 1164.39H839.811V1219.82H784.292V1164.39ZM839.811 1238.17V1293.57H784.292V1238.17H839.811ZM765.906 1293.26H710.413V1237.86H765.906V1293.26Z" fill="white"/>
<mask id="mask0_196_19" style="mask-type:luminance" maskUnits="userSpaceOnUse" x="219" y="1255" width="1110" height="284">
<path d="M219.261 1255.89H1328.7V1538.11H219.261V1255.89Z" fill="white"/>
</mask>
<g mask="url(#mask0_196_19)">
<path d="M1328.24 1305.19C1324.24 1309.18 1320.88 1312.54 1317.8 1315.61C1178.92 1454.25 987.285 1539.96 775.418 1539.96C563.551 1539.96 371.917 1454.25 233.006 1315.61C229.032 1312.54 225.647 1309.18 221.672 1305.19L300.167 1260.21C422.794 1379.58 589.913 1453.36 775.11 1453.36C959.693 1453.36 1126.48 1379.58 1249.13 1260.21L1328.24 1305.19Z" fill="white"/>
</g>
<mask id="mask1_196_19" style="mask-type:luminance" maskUnits="userSpaceOnUse" x="1236" y="161" width="304" height="1056">
<path d="M1236.8 161.476H1539.8V1216.57H1236.8V161.476Z" fill="white"/>
</mask>
<g mask="url(#mask1_196_19)">
<path d="M1239.93 165.648C1267.21 186.46 1292.98 208.808 1317.81 233.614C1455.79 371.337 1541.65 562.639 1541.65 774.138C1541.65 938.202 1490.44 1090.34 1402.74 1214.6L1335.3 1159.2C1410.71 1049.63 1454.87 917.39 1454.87 773.831C1454.87 587.137 1378.53 417.569 1255.88 294.207C1250.36 289.317 1245.44 284.71 1239.93 278.899V165.648Z" fill="white"/>
</g>
<mask id="mask2_196_19" style="mask-type:luminance" maskUnits="userSpaceOnUse" x="8" y="9" width="914" height="1208">
<path d="M8.57324 9.54333H921.688V1216.56H8.57324V9.54333Z" fill="white"/>
</mask>
<g mask="url(#mask2_196_19)">
<path d="M775.417 9.54333C824.473 9.54333 871.683 13.5368 918.303 22.4197V111.172C872.606 101.674 824.473 95.8633 775.417 95.8633C587.758 95.8633 417.588 172.072 294.037 294.512C171.384 417.874 95.0432 587.749 95.0432 774.136C95.0432 917.388 139.176 1049.63 215.234 1159.5L147.766 1214.9C59.7834 1090.64 8.57324 938.507 8.57324 774.443C8.57324 562.944 94.4278 371.642 233.313 233.919C371.916 95.249 563.833 9.54333 775.417 9.54333Z" fill="white"/>
</g>
<path d="M585.299 853.723V452.458H356.892V1041.98L585.299 853.723Z" fill="white"/>
<path d="M660.739 220.149V790.367L775.417 695.779L889.479 790.367V220.149H660.739Z" fill="white"/>
<path d="M965.516 23.931V853.724L1193.33 1041.98V23.931H965.516Z" fill="white"/>
<path d="M780.319 586.214H741.674V624.766H781.857C790.756 624.766 797.192 623.255 801.783 619.876C806.373 616.523 809.142 611.915 809.142 605.49C809.142 599.064 806.68 595.096 801.783 591.103C797.192 587.749 789.833 586.214 780.319 586.214Z" fill="white"/>
<path d="M741.674 566.017H774.498C782.473 566.017 788.909 564.481 793.807 561.102C798.705 558.056 801.167 553.166 801.167 546.741V545.819C801.167 540.904 798.705 536.322 794.731 532.943C790.756 529.897 784.294 528.054 776.344 528.054H741.674V566.017Z" fill="white"/>
</g>
<defs>
<clipPath id="clip0_196_19">
<rect width="1529" height="1550" fill="white"/>
</clipPath>
</defs>
</svg>
