<svg width="177" height="60" viewBox="0 0 177 60" fill="none" xmlns="http://www.w3.org/2000/svg">
<g clip-path="url(#clip0_11_172)">
<path d="M75.7521 7.98486L76.7248 12.5907L76.6176 12.6422C75.9526 11.6652 75.3491 10.8625 74.8072 10.2363C74.2672 9.60801 73.6518 9.14524 72.961 8.84896C72.2722 8.55366 71.361 8.40502 70.2256 8.40502H66.7676V17.1926H69.2052C70.2871 17.1926 71.1645 17.1014 71.8375 16.9191C72.5094 16.7348 73.0375 16.4157 73.4216 15.9638C73.8047 15.51 74.1025 14.8817 74.3149 14.0811V20.6965C74.1025 19.8959 73.8047 19.2735 73.4216 18.8296C73.0375 18.3837 72.5094 18.0686 71.8375 17.8862C71.1645 17.7019 70.2871 17.6088 69.2052 17.6088H66.7676V24.8029C66.7676 25.2736 66.9631 25.6016 67.3551 25.7859C67.7492 25.9683 68.2177 26.0941 68.7606 26.1625V26.2933H61.1895V26.1625C61.7314 25.9703 62.1989 25.7255 62.5909 25.4292C62.982 25.1339 63.1785 24.7504 63.1785 24.2797V9.47522C63.1785 9.00552 62.982 8.67851 62.5909 8.49618C62.1989 8.31385 61.7314 8.18701 61.1895 8.11567V7.98486H75.7521Z" fill="black"/>
<path d="M92.206 2.62586L85.3138 6.23285L85.1828 6.10204L90.9991 1.1355L92.206 2.62586ZM94.1157 22.9994C94.4303 23.8001 94.7092 24.4244 94.9534 24.8703C95.1995 25.3142 95.4576 25.6333 95.7276 25.8255C95.9975 26.0158 96.3241 26.1377 96.7082 26.1902V26.2933H88.4304V26.1902C89.0418 26.1377 89.548 26.0198 89.9509 25.8374C90.3529 25.6531 90.606 25.3519 90.7092 24.9337C90.8145 24.5165 90.7102 23.9229 90.3956 23.154L89.8715 21.846H79.8667L79.291 23.154C78.9575 23.9051 78.8345 24.4808 78.9218 24.8822C79.0091 25.2815 79.2275 25.5738 79.5769 25.7582C79.9262 25.9405 80.3451 26.0852 80.8354 26.1902V26.2933H76.0156V26.1902C76.3829 26.0852 76.7104 25.9365 76.9963 25.7463C77.2841 25.554 77.564 25.2567 77.834 24.8544C78.1059 24.4531 78.3997 23.8784 78.7153 23.1302L84.4522 9.92307L84.3967 9.16204L84.8969 8.87665L87.9857 7.22774C87.9857 7.29711 88.0155 7.44971 88.077 7.68753C88.1376 7.92338 88.3083 8.3802 88.5892 9.05898L94.1157 22.9994ZM80.0493 21.3782H89.6889L85.0517 9.8438L80.0493 21.3782Z" fill="black"/>
<path d="M107.606 15.7022C109.282 15.8766 110.648 16.3305 111.704 17.0618C112.762 17.7941 113.292 18.8841 113.292 20.3319C113.292 21.5527 112.92 22.609 112.176 23.4989C111.435 24.3868 110.417 25.0754 109.123 25.564C107.831 26.0505 106.365 26.2933 104.724 26.2933H95.8706V26.1625C96.4125 25.9703 96.88 25.7255 97.2721 25.4292C97.6631 25.1339 97.8597 24.7504 97.8597 24.2797V9.47522C97.8597 9.00552 97.6631 8.67851 97.2721 8.49618C96.88 8.31385 96.4125 8.18701 95.8706 8.11567V7.98486H103.676C104.742 7.98486 105.746 8.03837 106.689 8.14341C107.631 8.24944 108.469 8.43276 109.202 8.69437C109.935 8.95598 110.511 9.32262 110.929 9.79232C111.35 10.263 111.561 10.8734 111.561 11.6236C111.561 12.5808 111.197 13.434 110.473 14.1841C109.75 14.9353 108.795 15.4406 107.606 15.7022ZM103.545 8.40502H101.449V15.623H105.431C105.901 15.623 106.338 15.5585 106.741 15.4287C107.143 15.2969 107.462 15.0353 107.698 14.6439C107.933 14.2505 108.051 13.653 108.051 12.8523C108.051 12.015 107.897 11.2609 107.591 10.589C107.286 9.91817 106.805 9.38703 106.149 8.99561C105.495 8.60221 104.627 8.40502 103.545 8.40502ZM104.986 25.8731C106.122 25.8731 107.033 25.7651 107.722 25.5481C108.412 25.3291 108.919 24.8971 109.242 24.252C109.565 23.6079 109.727 22.6407 109.727 21.3505C109.727 20.7064 109.665 20.0742 109.544 19.4559C109.422 18.8356 109.173 18.2687 108.797 17.7554C108.421 17.2402 107.866 16.8309 107.134 16.5267C106.401 16.2205 105.415 16.0669 104.176 16.0669H101.449V25.2746C102.078 25.4649 102.673 25.6135 103.231 25.7186C103.789 25.8216 104.375 25.8731 104.986 25.8731Z" fill="black"/>
<path d="M128.3 22.8409C128.825 23.5385 129.291 24.0924 129.702 24.5017C130.112 24.9119 130.517 25.2429 130.917 25.4966C131.319 25.7483 131.748 25.9871 132.203 26.214V26.2933H126.546V25.8494L121.619 18.9168H118.554V24.8029C118.554 25.2736 118.749 25.6016 119.141 25.7859C119.535 25.9683 120.004 26.0941 120.547 26.1625V26.2933H112.976V26.1625C113.518 26.0941 113.985 25.9683 114.377 25.7859C114.768 25.6016 114.965 25.2736 114.965 24.8029V9.47522C114.965 9.00552 114.768 8.67851 114.377 8.49618C113.985 8.31385 113.518 8.18701 112.976 8.11567V7.98486H122.849C125.192 7.98486 127.008 8.38322 128.3 9.17794C129.592 9.97069 130.238 11.2212 130.238 12.9276C130.238 14.2357 129.783 15.3832 128.876 16.3681C127.968 17.3541 126.718 18.0646 125.128 18.5006L128.3 22.8409ZM118.554 8.45655V17.8981C119.951 18.3005 121.339 18.5006 122.718 18.5006C123.61 18.5006 124.348 18.3797 124.934 18.136C125.518 17.8902 125.959 17.4413 126.256 16.7883C126.552 16.1333 126.7 15.2048 126.7 14.0018C126.7 13.3042 126.634 12.6294 126.502 11.9763C126.372 11.3213 126.123 10.7278 125.756 10.1966C125.39 9.66548 124.858 9.24335 124.16 8.92823C123.461 8.6141 122.553 8.45655 121.436 8.45655H118.554Z" fill="black"/>
<path d="M130.578 26.2933V26.1625C131.12 26.0941 131.587 25.9683 131.979 25.7859C132.37 25.6016 132.567 25.2736 132.567 24.8029V9.47522C132.567 9.00552 132.37 8.67851 131.979 8.49618C131.587 8.31385 131.12 8.18701 130.578 8.11567V7.98486H138.149V8.11567C137.606 8.18701 137.137 8.31385 136.743 8.49618C136.351 8.67851 136.156 9.00552 136.156 9.47522V24.8029C136.156 25.2736 136.351 25.6016 136.743 25.7859C137.137 25.9683 137.606 26.0941 138.149 26.1625V26.2933H130.578Z" fill="black"/>
<path d="M155.307 23.3918C154.748 24.2796 153.883 25.0466 152.714 25.6907C151.544 26.3348 150.05 26.6579 148.232 26.6579C146.765 26.6579 145.407 26.422 144.158 25.9523C142.912 25.4826 141.825 24.8247 140.899 23.9784C139.972 23.1331 139.251 22.1313 138.735 20.9739C138.221 19.8145 137.965 18.554 137.965 17.1925C137.965 15.6229 138.278 14.2415 138.906 13.0465C139.535 11.8524 140.383 10.8545 141.447 10.0538C142.513 9.25119 143.702 8.64474 145.012 8.23449C146.322 7.82524 147.649 7.62012 148.994 7.62012C150.687 7.62012 152.08 7.8956 153.171 8.44457C154.26 8.99454 155.104 9.63567 155.7 10.367L151.9 15.4643L151.821 15.4405C152.17 14.5348 152.327 13.6509 152.293 12.7888C152.258 11.9247 152.053 11.1439 151.678 10.4463C151.302 9.74864 150.765 9.1957 150.066 8.78545C149.367 8.3762 148.52 8.17107 147.525 8.17107C146.461 8.17107 145.5 8.43664 144.643 8.96778C143.787 9.49892 143.111 10.3016 142.614 11.3738C142.116 12.4469 141.868 13.8025 141.868 15.4405C141.868 16.7644 142.063 18.0239 142.455 19.218C142.849 20.413 143.404 21.4684 144.119 22.385C144.835 23.2996 145.692 24.018 146.687 24.5413C147.682 25.0645 148.792 25.3261 150.014 25.3261C150.975 25.3261 151.926 25.1576 152.869 24.8187C153.811 24.4778 154.562 23.9586 155.124 23.261L155.307 23.3918Z" fill="black"/>
<path d="M173.352 22.9994C173.667 23.8001 173.946 24.4244 174.19 24.8703C174.436 25.3143 174.694 25.6333 174.964 25.8256C175.234 26.0158 175.561 26.1377 175.945 26.1902V26.2933H167.667V26.1902C168.279 26.1377 168.785 26.0198 169.188 25.8375C169.59 25.6532 169.843 25.3519 169.946 24.9337C170.051 24.5166 169.947 23.923 169.632 23.154L169.108 21.846H159.104L158.528 23.154C158.194 23.9052 158.071 24.4809 158.159 24.8822C158.246 25.2816 158.464 25.5739 158.814 25.7582C159.163 25.9405 159.582 26.0852 160.072 26.1902V26.2933H155.252V26.1902C155.62 26.0852 155.947 25.9366 156.233 25.7463C156.521 25.5541 156.801 25.2568 157.071 24.8545C157.343 24.4531 157.637 23.8784 157.952 23.1302L163.689 9.92312L163.633 9.16208L164.134 8.87669L167.223 7.22778C167.223 7.29715 167.252 7.44975 167.314 7.68758C167.374 7.92342 167.545 8.38024 167.826 9.05902L173.352 22.9994ZM159.286 21.3783H168.926L164.289 9.84384L159.286 21.3783Z" fill="black"/>
<path d="M30.0131 36.1757L2.84814 51.7324L30.0131 29.2917L57.1542 51.7324L30.0131 36.1757Z" fill="black"/>
<path d="M30.0129 40.5833L14.9292 47.7983L30.0129 38.4736L45.0728 47.7983L30.0129 40.5833Z" fill="black"/>
<path d="M27.4971 45.0732H29.6449V47.2186H27.4971V45.0732ZM30.3566 45.0732H32.5054V47.2186H30.3566V45.0732ZM32.5054 47.9291V50.0735H30.3566V47.9291H32.5054ZM29.6449 50.0616H27.4971V47.9172H29.6449V50.0616Z" fill="black"/>
<mask id="mask0_11_172" style="mask-type:luminance" maskUnits="userSpaceOnUse" x="8" y="48" width="44" height="12">
<path d="M8.48682 48.615H51.4282V59.54H8.48682V48.615Z" fill="white"/>
</mask>
<g mask="url(#mask0_11_172)">
<path d="M51.4103 50.5235C51.2555 50.6781 51.1255 50.8079 51.0064 50.9268C45.6308 56.2937 38.2135 59.6114 30.0131 59.6114C21.8127 59.6114 14.3954 56.2937 9.01878 50.9268C8.86494 50.8079 8.73392 50.6781 8.58008 50.5235L11.6183 48.7825C16.3646 53.4032 22.833 56.259 30.0012 56.259C37.1455 56.259 43.601 53.4032 48.3483 48.7825L51.4103 50.5235Z" fill="black"/>
</g>
<mask id="mask1_11_172" style="mask-type:luminance" maskUnits="userSpaceOnUse" x="47" y="6" width="13" height="42">
<path d="M47.8706 6.25073H59.5985V47.0929H47.8706V6.25073Z" fill="white"/>
</mask>
<g mask="url(#mask1_11_172)">
<path d="M47.9917 6.41235C49.0478 7.21798 50.0453 8.08306 51.0061 9.04328C56.3469 14.3745 59.67 21.7797 59.67 29.9668C59.67 36.3177 57.6879 42.2068 54.2934 47.0167L51.683 44.8724C54.602 40.6312 56.3112 35.512 56.3112 29.9549C56.3112 22.728 53.3564 16.1641 48.6091 11.3888C48.3957 11.1995 48.2051 11.0212 47.9917 10.7962V6.41235Z" fill="black"/>
</g>
<mask id="mask2_11_172" style="mask-type:luminance" maskUnits="userSpaceOnUse" x="0" y="0" width="36" height="48">
<path d="M0.332031 0.369385H35.6745V47.0928H0.332031V0.369385Z" fill="white"/>
</mask>
<g mask="url(#mask2_11_172)">
<path d="M30.0131 0.369385C31.9118 0.369385 33.7391 0.52397 35.5435 0.867823V4.30338C33.7748 3.93575 31.9118 3.7108 30.0131 3.7108C22.7496 3.7108 16.1631 6.66081 11.381 11.4004C6.63369 16.1757 3.67889 22.7515 3.67889 29.9665C3.67889 35.5118 5.38706 40.6309 8.33095 44.884L5.71956 47.0284C2.31414 42.2184 0.332031 36.3293 0.332031 29.9784C0.332031 21.7913 3.65507 14.3861 9.03069 9.0549C14.3954 3.68702 21.8236 0.369385 30.0131 0.369385Z" fill="black"/>
</g>
<path d="M22.6541 33.0472V17.5144H13.8135V40.3346L22.6541 33.0472Z" fill="black"/>
<path d="M25.5742 8.52197V30.595L30.0129 26.9335L34.4277 30.595V8.52197H25.5742Z" fill="black"/>
<path d="M37.3706 0.92627V33.0473L46.1884 40.3346V0.92627H37.3706Z" fill="black"/>
<path d="M30.2028 22.6921H28.707V24.1845H30.2623C30.6068 24.1845 30.8559 24.126 31.0336 23.9952C31.2112 23.8654 31.3184 23.687 31.3184 23.4383C31.3184 23.1896 31.2231 23.036 31.0336 22.8814C30.8559 22.7516 30.571 22.6921 30.2028 22.6921Z" fill="black"/>
<path d="M28.707 21.9102H29.9775C30.2862 21.9102 30.5353 21.8508 30.7249 21.72C30.9144 21.602 31.0097 21.4128 31.0097 21.1641V21.1284C31.0097 20.9381 30.9144 20.7607 30.7606 20.6299C30.6068 20.512 30.3566 20.4407 30.049 20.4407H28.707V21.9102Z" fill="black"/>
<path d="M66.0015 35.627C68.6 35.627 70.5761 36.2096 71.929 37.375C73.2838 38.5383 73.9617 40.1763 73.9617 42.29C73.9617 43.8675 73.5984 45.2093 72.8739 46.3132C72.1513 47.418 71.1598 48.2544 69.9002 48.8222C68.6397 49.391 67.2065 49.6744 65.6005 49.6744H59.5698V49.5753C59.9847 49.4276 60.344 49.2404 60.6457 49.0124C60.9475 48.7855 61.0983 48.4912 61.0983 48.1285V36.7685C61.0983 36.4098 60.9475 36.1601 60.6457 36.0194C60.344 35.8767 59.9847 35.7796 59.5698 35.726V35.627H66.0015ZM66.6248 49.3137C67.5082 49.3137 68.2814 49.1373 68.9434 48.7826C69.6074 48.4288 70.1235 47.8233 70.4918 46.9672C70.862 46.109 71.0476 44.9239 71.0476 43.4117C71.0476 41.9273 70.8421 40.6272 70.4322 39.5114C70.0243 38.3936 69.3881 37.5206 68.5226 36.8914C67.6591 36.2631 66.5514 35.948 65.1995 35.948H63.8497V48.7508C64.2388 48.9252 64.6646 49.063 65.1281 49.1631C65.5906 49.2641 66.0898 49.3137 66.6248 49.3137Z" fill="black"/>
<path d="M86.1618 45.4015L86.2412 45.4411L85.1772 49.6744L85.0541 50.1144L84.3712 49.6744H73.7192V49.5753C74.1341 49.4277 74.4934 49.2404 74.7952 49.0125C75.0969 48.7855 75.2478 48.4912 75.2478 48.1285V36.7685C75.2478 36.4098 75.0969 36.1601 74.7952 36.0194C74.4934 35.8767 74.1341 35.7796 73.7192 35.726V35.627H84.7762L85.5186 39.1586L85.4392 39.1983C84.928 38.4511 84.4645 37.8367 84.0496 37.3551C83.6338 36.8716 83.1613 36.5168 82.6323 36.2889C82.1023 36.062 81.4025 35.948 80.5321 35.948H77.9991V42.4882H79.6904C80.5211 42.4882 81.1931 42.4188 81.7072 42.2781C82.2234 42.1384 82.6283 41.8956 82.9221 41.5488C83.2179 41.1999 83.4472 40.7184 83.6089 40.102V45.1795C83.4472 44.5642 83.2179 44.0855 82.9221 43.7447C82.6283 43.4038 82.2234 43.164 81.7072 43.0233C81.1931 42.8806 80.5211 42.8092 79.6904 42.8092H77.9991V49.3533H80.6551C81.5256 49.3533 82.269 49.2096 82.8864 48.9213C83.5027 48.6339 84.0655 48.1989 84.5737 47.6172C85.0819 47.0365 85.6109 46.2973 86.1618 45.4015Z" fill="black"/>
<path d="M107.109 43.6138C106.693 43.6673 106.334 43.7674 106.033 43.915C105.731 44.0637 105.58 44.3173 105.58 44.6761V48.5288C105.58 48.8915 105.731 49.1422 106.033 49.2819C106.334 49.4226 106.693 49.5197 107.109 49.5752V49.6743H102.567L102.765 48.3504C102.297 48.8182 101.717 49.2026 101.026 49.5039C100.337 49.8051 99.5434 49.9557 98.6442 49.9557C97.7072 49.9557 96.806 49.7744 95.9405 49.4127C95.077 49.051 94.3067 48.5466 93.6298 47.8986C92.9519 47.2485 92.4189 46.4796 92.0298 45.5917C91.6427 44.7018 91.4502 43.7347 91.4502 42.6902C91.4502 41.4853 91.6904 40.426 92.1728 39.5113C92.6542 38.5947 93.3043 37.8287 94.1221 37.2124C94.94 36.597 95.8511 36.1323 96.8576 35.8171C97.863 35.503 98.8804 35.3455 99.9106 35.3455C101.226 35.3455 102.338 35.5575 103.25 35.9797C104.16 36.3998 104.843 36.8913 105.298 37.4542L102.384 41.3465L102.325 41.3267C102.592 40.6321 102.699 39.9573 102.646 39.3013C102.592 38.6433 102.405 38.0507 102.082 37.5215C101.762 36.9934 101.316 36.5762 100.744 36.269C100.175 35.9598 99.4958 35.8053 98.7077 35.8053C97.9027 35.8053 97.1792 36.0064 96.536 36.4077C95.8928 36.8101 95.3827 37.4185 95.0075 38.235C94.6313 39.0515 94.4437 40.089 94.4437 41.3465C94.4437 42.3642 94.5906 43.3314 94.8844 44.248C95.1802 45.1626 95.5931 45.9712 96.1231 46.6738C96.6521 47.3773 97.2754 47.9293 97.993 48.3306C98.7097 48.7329 99.4977 48.9331 100.355 48.9331C100.945 48.9331 101.437 48.8459 101.832 48.6715C102.226 48.4971 102.557 48.2702 102.825 47.9897V44.6761C102.825 44.4363 102.734 44.2559 102.555 44.137C102.374 44.0161 102.007 43.9289 101.451 43.8754C100.895 43.8229 100.054 43.7822 98.926 43.7525L99.331 43.5147H107.109V43.6138Z" fill="black"/>
<path d="M120.253 47.1457C120.494 47.762 120.708 48.2397 120.897 48.5806C121.084 48.9214 121.282 49.1662 121.488 49.3138C121.697 49.4625 121.949 49.5556 122.243 49.5953V49.6745H115.89V49.5953C116.359 49.5556 116.746 49.4664 117.054 49.3257C117.363 49.183 117.558 48.9521 117.637 48.6321C117.719 48.31 117.639 47.8542 117.399 47.2646L116.998 46.2618H109.32L108.875 47.2646C108.621 47.8413 108.527 48.2833 108.593 48.5924C108.662 48.8996 108.829 49.1226 109.097 49.2623C109.364 49.403 109.686 49.514 110.062 49.5953V49.6745H106.362V49.5953C106.645 49.514 106.896 49.4001 107.116 49.2544C107.338 49.1067 107.553 48.8798 107.759 48.5726C107.968 48.2635 108.193 47.8215 108.434 47.2448L112.837 37.1135L112.794 36.5308L113.179 36.3089L115.549 35.0444C115.549 35.0979 115.571 35.2149 115.616 35.3972C115.664 35.5776 115.796 35.9274 116.013 36.4476L120.253 47.1457ZM109.459 45.9011H116.855L113.298 37.0501L109.459 45.9011Z" fill="black"/>
<path d="M133.6 45.5402L133.679 45.5799L132.635 49.6744L132.512 50.1144L131.829 49.6744H121.598V49.5753C122.013 49.4277 122.372 49.166 122.674 48.7905C122.976 48.4159 123.127 47.9611 123.127 47.427V36.7685C123.127 36.4098 122.976 36.1601 122.674 36.0194C122.372 35.8767 122.013 35.7796 121.598 35.726V35.627H127.609V35.726C127.098 35.7796 126.681 35.8767 126.358 36.0194C126.038 36.1601 125.878 36.4098 125.878 36.7685V49.3533H127.426C128.27 49.3533 128.988 49.2661 129.578 49.0917C130.168 48.9173 130.68 48.6706 131.115 48.3505C131.551 48.0285 131.96 47.6311 132.341 47.1574C132.723 46.6818 133.141 46.1427 133.6 45.5402Z" fill="black"/>
<path d="M140.454 35.627C142.248 35.627 143.638 35.9619 144.622 36.6298C145.607 37.2987 146.099 38.3362 146.099 39.7413C146.099 40.759 145.827 41.636 145.285 42.3732C144.742 43.1085 143.979 43.6723 142.995 44.0657C142.01 44.4601 140.855 44.6563 139.529 44.6563H137.214V48.5289C137.214 48.8916 137.365 49.1423 137.667 49.282C137.968 49.4227 138.327 49.5198 138.742 49.5753V49.6744H132.934V49.5753C133.349 49.5198 133.708 49.4227 134.01 49.282C134.312 49.1423 134.463 48.8916 134.463 48.5289V36.7685C134.463 36.4098 134.312 36.1601 134.01 36.0194C133.708 35.8767 133.349 35.7796 132.934 35.726V35.627H140.454ZM140.291 44.3353C140.987 44.3353 141.562 44.2421 142.018 44.0538C142.475 43.8665 142.818 43.5128 143.046 42.9916C143.273 42.4713 143.388 41.7024 143.388 40.6847C143.388 40.1089 143.333 39.5411 143.225 38.9803C143.119 38.4174 142.924 37.9091 142.641 37.4542C142.36 36.9974 141.955 36.6327 141.426 36.3602C140.896 36.0858 140.203 35.948 139.346 35.948H137.214V43.8556C137.724 44.0013 138.24 44.1172 138.762 44.2045C139.286 44.2917 139.796 44.3353 140.291 44.3353Z" fill="black"/>
<path d="M151.544 32.337C151.062 32.337 150.681 32.5709 150.401 33.0386L150.361 33.0188L151.366 31.3104C151.553 30.9913 151.8 30.8308 152.108 30.8308C152.375 30.8308 152.666 30.8922 152.982 31.0131C153.296 31.1321 153.629 31.2767 153.978 31.4452C154.327 31.6117 154.669 31.7563 155.002 31.8772C155.338 31.9961 155.654 32.0556 155.947 32.0556C156.187 32.0556 156.412 31.9862 156.618 31.8455C156.827 31.7028 156.999 31.5245 157.134 31.3104L157.174 31.3302L156.189 33.0584C156.096 33.1912 155.983 33.3111 155.848 33.4191C155.713 33.5252 155.572 33.5777 155.427 33.5777C155.17 33.5777 154.877 33.5143 154.55 33.3874C154.221 33.2606 153.887 33.1179 153.545 32.9593C153.204 32.7988 152.862 32.6541 152.521 32.5273C152.18 32.4004 151.854 32.337 151.544 32.337ZM159.648 47.1455C159.888 47.7619 160.102 48.2395 160.291 48.5804C160.478 48.9212 160.676 49.166 160.882 49.3137C161.091 49.4623 161.343 49.5554 161.637 49.5951V49.6744H155.284V49.5951C155.753 49.5554 156.14 49.4663 156.448 49.3255C156.757 49.1829 156.952 48.952 157.031 48.6319C157.113 48.3098 157.033 47.854 156.793 47.2644L156.392 46.2616H148.714L148.269 47.2644C148.015 47.8411 147.921 48.2831 147.987 48.5923C148.056 48.8994 148.223 49.1224 148.491 49.2621C148.758 49.4028 149.08 49.5138 149.456 49.5951V49.6744H145.756V49.5951C146.039 49.5138 146.29 49.3999 146.51 49.2542C146.733 49.1066 146.947 48.8796 147.153 48.5724C147.362 48.2633 147.587 47.8213 147.828 47.2446L152.231 37.1133L152.188 36.5306L152.573 36.3087L154.943 35.0442C154.943 35.0978 154.965 35.2147 155.01 35.397C155.058 35.5774 155.19 35.9272 155.407 36.4474L159.648 47.1455ZM148.853 45.9009H156.249L152.692 37.0499L148.853 45.9009Z" fill="black"/>
<path d="M169.353 35.3455C170.438 35.3455 171.45 35.5139 172.387 35.8489C173.326 36.1818 174.147 36.6674 174.852 37.3035C175.556 37.9377 176.105 38.7067 176.5 39.6104C176.894 40.5142 177.091 41.5279 177.091 42.6506C177.091 43.7743 176.894 44.7871 176.5 45.6908C176.105 46.5945 175.556 47.3655 174.852 48.0016C174.147 48.6358 173.326 49.1214 172.387 49.4563C171.45 49.7893 170.438 49.9557 169.353 49.9557C168.255 49.9557 167.235 49.7893 166.296 49.4563C165.359 49.1214 164.539 48.6358 163.835 48.0016C163.133 47.3655 162.584 46.5945 162.187 45.6908C161.792 44.7871 161.596 43.7743 161.596 42.6506C161.596 41.5279 161.792 40.5142 162.187 39.6104C162.584 38.7067 163.133 37.9377 163.835 37.3035C164.539 36.6674 165.359 36.1818 166.296 35.8489C167.235 35.5139 168.255 35.3455 169.353 35.3455ZM170.199 49.595C171.003 49.595 171.704 49.3572 172.299 48.8816C172.895 48.4059 173.356 47.747 173.685 46.9037C174.012 46.0614 174.177 45.0843 174.177 43.9745C174.177 42.9707 174.039 41.9807 173.764 41.0057C173.491 40.0286 173.099 39.1417 172.589 38.346C172.081 37.5513 171.477 36.9131 170.779 36.4315C170.082 35.9479 169.319 35.7062 168.488 35.7062C167.686 35.7062 166.985 35.942 166.388 36.4117C165.792 36.8794 165.33 37.5354 165.002 38.3777C164.674 39.218 164.51 40.1951 164.51 41.3069C164.51 42.3087 164.647 43.3026 164.923 44.2876C165.198 45.2706 165.59 46.1605 166.098 46.9552C166.606 47.7509 167.208 48.3901 167.904 48.8736C168.603 49.3552 169.367 49.595 170.199 49.595Z" fill="black"/>
</g>
<defs>
<clipPath id="clip0_11_172">
<rect width="177" height="60" fill="white"/>
</clipPath>
</defs>
</svg>
