<svg width="177" height="60" viewBox="0 0 177 60" fill="none" xmlns="http://www.w3.org/2000/svg">
<g clip-path="url(#clip0_81_13)">
<path d="M75.7521 7.98486L76.7248 12.5907L76.6176 12.6422C75.9526 11.6652 75.3491 10.8625 74.8072 10.2363C74.2672 9.60801 73.6518 9.14524 72.961 8.84896C72.2722 8.55366 71.361 8.40502 70.2256 8.40502H66.7676V17.1926H69.2052C70.2871 17.1926 71.1645 17.1014 71.8375 16.9191C72.5094 16.7348 73.0375 16.4157 73.4216 15.9638C73.8047 15.51 74.1025 14.8817 74.3149 14.0811V20.6965C74.1025 19.8959 73.8047 19.2735 73.4216 18.8296C73.0375 18.3837 72.5094 18.0686 71.8375 17.8862C71.1645 17.7019 70.2871 17.6088 69.2052 17.6088H66.7676V24.8029C66.7676 25.2736 66.9631 25.6016 67.3551 25.7859C67.7492 25.9683 68.2177 26.0941 68.7606 26.1625V26.2933H61.1895V26.1625C61.7314 25.9703 62.1989 25.7255 62.5909 25.4292C62.982 25.1339 63.1785 24.7504 63.1785 24.2797V9.47522C63.1785 9.00552 62.982 8.67851 62.5909 8.49618C62.1989 8.31385 61.7314 8.18701 61.1895 8.11567V7.98486H75.7521Z" fill="white"/>
<path d="M92.206 2.62586L85.3138 6.23285L85.1828 6.10204L90.9991 1.1355L92.206 2.62586ZM94.1157 22.9994C94.4303 23.8001 94.7092 24.4244 94.9534 24.8703C95.1995 25.3142 95.4576 25.6333 95.7276 25.8255C95.9975 26.0158 96.3241 26.1377 96.7082 26.1902V26.2933H88.4304V26.1902C89.0418 26.1377 89.548 26.0198 89.9509 25.8374C90.3529 25.6531 90.606 25.3519 90.7092 24.9337C90.8145 24.5165 90.7102 23.9229 90.3956 23.154L89.8715 21.846H79.8667L79.291 23.154C78.9575 23.9051 78.8345 24.4808 78.9218 24.8822C79.0091 25.2815 79.2275 25.5738 79.5769 25.7582C79.9262 25.9405 80.3451 26.0852 80.8354 26.1902V26.2933H76.0156V26.1902C76.3829 26.0852 76.7104 25.9365 76.9963 25.7463C77.2841 25.554 77.564 25.2567 77.834 24.8544C78.1059 24.4531 78.3997 23.8784 78.7153 23.1302L84.4522 9.92307L84.3967 9.16204L84.8969 8.87665L87.9857 7.22774C87.9857 7.29711 88.0155 7.44971 88.077 7.68753C88.1376 7.92338 88.3083 8.3802 88.5892 9.05898L94.1157 22.9994ZM80.0493 21.3782H89.6889L85.0517 9.8438L80.0493 21.3782Z" fill="white"/>
<path d="M107.606 15.7022C109.282 15.8766 110.648 16.3305 111.704 17.0618C112.762 17.7941 113.292 18.8841 113.292 20.3319C113.292 21.5527 112.92 22.609 112.176 23.4989C111.435 24.3868 110.417 25.0754 109.123 25.564C107.831 26.0505 106.365 26.2933 104.724 26.2933H95.8706V26.1625C96.4125 25.9703 96.88 25.7255 97.2721 25.4292C97.6631 25.1339 97.8597 24.7504 97.8597 24.2797V9.47522C97.8597 9.00552 97.6631 8.67851 97.2721 8.49618C96.88 8.31385 96.4125 8.18701 95.8706 8.11567V7.98486H103.676C104.742 7.98486 105.746 8.03837 106.689 8.14341C107.631 8.24944 108.469 8.43276 109.202 8.69437C109.935 8.95598 110.511 9.32262 110.929 9.79232C111.35 10.263 111.561 10.8734 111.561 11.6236C111.561 12.5808 111.197 13.434 110.473 14.1841C109.75 14.9353 108.795 15.4406 107.606 15.7022ZM103.545 8.40502H101.449V15.623H105.431C105.901 15.623 106.338 15.5585 106.741 15.4287C107.143 15.2969 107.462 15.0353 107.698 14.6439C107.933 14.2505 108.051 13.653 108.051 12.8523C108.051 12.015 107.897 11.2609 107.591 10.589C107.286 9.91817 106.805 9.38703 106.149 8.99561C105.495 8.60221 104.627 8.40502 103.545 8.40502ZM104.986 25.8731C106.122 25.8731 107.033 25.7651 107.722 25.5481C108.412 25.3291 108.919 24.8971 109.242 24.252C109.565 23.6079 109.727 22.6407 109.727 21.3505C109.727 20.7064 109.665 20.0742 109.544 19.4559C109.422 18.8356 109.173 18.2687 108.797 17.7554C108.421 17.2402 107.866 16.8309 107.134 16.5267C106.401 16.2205 105.415 16.0669 104.176 16.0669H101.449V25.2746C102.078 25.4649 102.673 25.6135 103.231 25.7186C103.789 25.8216 104.375 25.8731 104.986 25.8731Z" fill="white"/>
<path d="M128.3 22.8409C128.825 23.5385 129.291 24.0924 129.702 24.5017C130.112 24.9119 130.517 25.2429 130.917 25.4966C131.319 25.7483 131.748 25.9871 132.203 26.214V26.2933H126.546V25.8494L121.619 18.9168H118.554V24.8029C118.554 25.2736 118.749 25.6016 119.141 25.7859C119.535 25.9683 120.004 26.0941 120.547 26.1625V26.2933H112.976V26.1625C113.518 26.0941 113.985 25.9683 114.377 25.7859C114.768 25.6016 114.965 25.2736 114.965 24.8029V9.47522C114.965 9.00552 114.768 8.67851 114.377 8.49618C113.985 8.31385 113.518 8.18701 112.976 8.11567V7.98486H122.849C125.192 7.98486 127.008 8.38322 128.3 9.17794C129.592 9.97069 130.238 11.2212 130.238 12.9276C130.238 14.2357 129.783 15.3832 128.876 16.3681C127.968 17.3541 126.718 18.0646 125.128 18.5006L128.3 22.8409ZM118.554 8.45655V17.8981C119.951 18.3005 121.339 18.5006 122.718 18.5006C123.61 18.5006 124.348 18.3797 124.934 18.136C125.518 17.8902 125.959 17.4413 126.256 16.7883C126.552 16.1333 126.7 15.2048 126.7 14.0018C126.7 13.3042 126.634 12.6294 126.502 11.9763C126.372 11.3213 126.123 10.7278 125.756 10.1966C125.39 9.66548 124.858 9.24335 124.16 8.92823C123.461 8.6141 122.553 8.45655 121.436 8.45655H118.554Z" fill="white"/>
<path d="M130.578 26.2933V26.1625C131.12 26.0941 131.587 25.9683 131.979 25.7859C132.37 25.6016 132.567 25.2736 132.567 24.8029V9.47522C132.567 9.00552 132.37 8.67851 131.979 8.49618C131.587 8.31385 131.12 8.18701 130.578 8.11567V7.98486H138.149V8.11567C137.606 8.18701 137.137 8.31385 136.743 8.49618C136.351 8.67851 136.156 9.00552 136.156 9.47522V24.8029C136.156 25.2736 136.351 25.6016 136.743 25.7859C137.137 25.9683 137.606 26.0941 138.149 26.1625V26.2933H130.578Z" fill="white"/>
<path d="M155.307 23.3918C154.748 24.2796 153.883 25.0466 152.714 25.6907C151.544 26.3348 150.05 26.6579 148.232 26.6579C146.765 26.6579 145.407 26.422 144.158 25.9523C142.912 25.4826 141.825 24.8247 140.899 23.9784C139.972 23.1331 139.251 22.1313 138.735 20.9739C138.221 19.8145 137.965 18.554 137.965 17.1925C137.965 15.6229 138.278 14.2415 138.906 13.0465C139.535 11.8524 140.383 10.8545 141.447 10.0538C142.513 9.25119 143.702 8.64474 145.012 8.23449C146.322 7.82524 147.649 7.62012 148.994 7.62012C150.687 7.62012 152.08 7.8956 153.171 8.44457C154.26 8.99454 155.104 9.63567 155.7 10.367L151.9 15.4643L151.821 15.4405C152.17 14.5348 152.327 13.6509 152.293 12.7888C152.258 11.9247 152.053 11.1439 151.678 10.4463C151.302 9.74864 150.765 9.1957 150.066 8.78545C149.367 8.3762 148.52 8.17107 147.525 8.17107C146.461 8.17107 145.5 8.43664 144.643 8.96778C143.787 9.49892 143.111 10.3016 142.614 11.3738C142.116 12.4469 141.868 13.8025 141.868 15.4405C141.868 16.7644 142.063 18.0239 142.455 19.218C142.849 20.413 143.404 21.4684 144.119 22.385C144.835 23.2996 145.692 24.018 146.687 24.5413C147.682 25.0645 148.792 25.3261 150.014 25.3261C150.975 25.3261 151.926 25.1576 152.869 24.8187C153.811 24.4778 154.562 23.9586 155.124 23.261L155.307 23.3918Z" fill="white"/>
<path d="M173.352 22.9993C173.667 23.8 173.946 24.4243 174.19 24.8702C174.436 25.3141 174.694 25.6332 174.964 25.8255C175.234 26.0157 175.561 26.1376 175.945 26.1901V26.2932H167.667V26.1901C168.279 26.1376 168.785 26.0197 169.188 25.8373C169.59 25.653 169.843 25.3518 169.946 24.9336C170.051 24.5164 169.947 23.9229 169.632 23.1539L169.108 21.8459H159.104L158.528 23.1539C158.194 23.905 158.071 24.4808 158.159 24.8821C158.246 25.2814 158.464 25.5738 158.814 25.7581C159.163 25.9404 159.582 26.0851 160.072 26.1901V26.2932H155.252V26.1901C155.62 26.0851 155.947 25.9364 156.233 25.7462C156.521 25.5539 156.801 25.2567 157.071 24.8543C157.343 24.453 157.637 23.8783 157.952 23.1301L163.689 9.92299L163.633 9.16196L164.134 8.87657L167.223 7.22766C167.223 7.29703 167.252 7.44963 167.314 7.68745C167.374 7.92329 167.545 8.38011 167.826 9.0589L173.352 22.9993ZM159.286 21.3782H168.926L164.289 9.84372L159.286 21.3782Z" fill="white"/>
<path d="M30.0131 36.1757L2.84814 51.7324L30.0131 29.2917L57.1542 51.7324L30.0131 36.1757Z" fill="white"/>
<path d="M30.0129 40.5834L14.9292 47.7984L30.0129 38.4738L45.0728 47.7984L30.0129 40.5834Z" fill="white"/>
<path d="M27.4971 45.0734H29.6449V47.2187H27.4971V45.0734ZM30.3566 45.0734H32.5054V47.2187H30.3566V45.0734ZM32.5054 47.9292V50.0736H30.3566V47.9292H32.5054ZM29.6449 50.0617H27.4971V47.9173H29.6449V50.0617Z" fill="white"/>
<mask id="mask0_81_13" style="mask-type:luminance" maskUnits="userSpaceOnUse" x="8" y="48" width="44" height="12">
<path d="M8.48682 48.6149H51.4282V59.5399H8.48682V48.6149Z" fill="white"/>
</mask>
<g mask="url(#mask0_81_13)">
<path d="M51.4103 50.5234C51.2555 50.678 51.1255 50.8078 51.0064 50.9267C45.6308 56.2936 38.2135 59.6112 30.0131 59.6112C21.8127 59.6112 14.3954 56.2936 9.01878 50.9267C8.86494 50.8078 8.73392 50.678 8.58008 50.5234L11.6183 48.7823C16.3646 53.4031 22.833 56.2589 30.0012 56.2589C37.1455 56.2589 43.601 53.4031 48.3483 48.7823L51.4103 50.5234Z" fill="white"/>
</g>
<mask id="mask1_81_13" style="mask-type:luminance" maskUnits="userSpaceOnUse" x="47" y="6" width="13" height="42">
<path d="M47.8706 6.25061H59.5985V47.0928H47.8706V6.25061Z" fill="white"/>
</mask>
<g mask="url(#mask1_81_13)">
<path d="M47.9917 6.41211C49.0478 7.21774 50.0453 8.08282 51.0061 9.04303C56.3469 14.3742 59.67 21.7795 59.67 29.9665C59.67 36.3174 57.6879 42.2065 54.2934 47.0165L51.683 44.8721C54.602 40.6309 56.3112 35.5118 56.3112 29.9546C56.3112 22.7278 53.3564 16.1639 48.6091 11.3886C48.3957 11.1993 48.2051 11.0209 47.9917 10.796V6.41211Z" fill="white"/>
</g>
<mask id="mask2_81_13" style="mask-type:luminance" maskUnits="userSpaceOnUse" x="0" y="0" width="36" height="48">
<path d="M0.332031 0.369385H35.6745V47.0928H0.332031V0.369385Z" fill="white"/>
</mask>
<g mask="url(#mask2_81_13)">
<path d="M30.0131 0.369385C31.9118 0.369385 33.7391 0.52397 35.5435 0.867823V4.30338C33.7748 3.93575 31.9118 3.7108 30.0131 3.7108C22.7496 3.7108 16.1631 6.66081 11.381 11.4004C6.63369 16.1757 3.67889 22.7515 3.67889 29.9665C3.67889 35.5118 5.38706 40.6309 8.33095 44.884L5.71956 47.0284C2.31414 42.2184 0.332031 36.3293 0.332031 29.9784C0.332031 21.7913 3.65507 14.3861 9.03069 9.0549C14.3954 3.68702 21.8236 0.369385 30.0131 0.369385Z" fill="white"/>
</g>
<path d="M22.6541 33.0474V17.5145H13.8135V40.3347L22.6541 33.0474Z" fill="white"/>
<path d="M25.5742 8.52185V30.5948L30.0129 26.9333L34.4277 30.5948V8.52185H25.5742Z" fill="white"/>
<path d="M37.3706 0.926392V33.0474L46.1884 40.3347V0.926392H37.3706Z" fill="white"/>
<path d="M30.2028 22.6921H28.707V24.1845H30.2623C30.6068 24.1845 30.8559 24.126 31.0336 23.9952C31.2112 23.8654 31.3184 23.687 31.3184 23.4383C31.3184 23.1896 31.2231 23.036 31.0336 22.8814C30.8559 22.7516 30.571 22.6921 30.2028 22.6921Z" fill="white"/>
<path d="M28.707 21.9103H29.9775C30.2862 21.9103 30.5353 21.8509 30.7249 21.7201C30.9144 21.6022 31.0097 21.4129 31.0097 21.1642V21.1285C31.0097 20.9382 30.9144 20.7609 30.7606 20.6301C30.6068 20.5121 30.3566 20.4408 30.049 20.4408H28.707V21.9103Z" fill="white"/>
<path d="M66.0015 35.627C68.6 35.627 70.5761 36.2096 71.929 37.375C73.2838 38.5383 73.9617 40.1763 73.9617 42.29C73.9617 43.8675 73.5984 45.2093 72.8739 46.3132C72.1513 47.418 71.1598 48.2544 69.9002 48.8222C68.6397 49.391 67.2065 49.6744 65.6005 49.6744H59.5698V49.5753C59.9847 49.4276 60.344 49.2404 60.6457 49.0124C60.9475 48.7855 61.0983 48.4912 61.0983 48.1285V36.7685C61.0983 36.4098 60.9475 36.1601 60.6457 36.0194C60.344 35.8767 59.9847 35.7796 59.5698 35.726V35.627H66.0015ZM66.6248 49.3137C67.5082 49.3137 68.2814 49.1373 68.9434 48.7826C69.6074 48.4288 70.1235 47.8233 70.4918 46.9672C70.862 46.109 71.0476 44.9239 71.0476 43.4117C71.0476 41.9273 70.8421 40.6272 70.4322 39.5114C70.0243 38.3936 69.3881 37.5206 68.5226 36.8914C67.6591 36.2631 66.5514 35.948 65.1995 35.948H63.8497V48.7508C64.2388 48.9252 64.6646 49.063 65.1281 49.1631C65.5906 49.2641 66.0898 49.3137 66.6248 49.3137Z" fill="white"/>
<path d="M86.1618 45.4015L86.2412 45.4411L85.1772 49.6744L85.0541 50.1144L84.3712 49.6744H73.7192V49.5753C74.1341 49.4277 74.4934 49.2404 74.7952 49.0125C75.0969 48.7855 75.2478 48.4912 75.2478 48.1285V36.7685C75.2478 36.4098 75.0969 36.1601 74.7952 36.0194C74.4934 35.8767 74.1341 35.7796 73.7192 35.726V35.627H84.7762L85.5186 39.1586L85.4392 39.1983C84.928 38.4511 84.4645 37.8367 84.0496 37.3551C83.6338 36.8716 83.1613 36.5168 82.6323 36.2889C82.1023 36.062 81.4025 35.948 80.5321 35.948H77.9991V42.4882H79.6904C80.5211 42.4882 81.1931 42.4188 81.7072 42.2781C82.2234 42.1384 82.6283 41.8956 82.9221 41.5488C83.2179 41.1999 83.4472 40.7184 83.6089 40.102V45.1795C83.4472 44.5642 83.2179 44.0855 82.9221 43.7447C82.6283 43.4038 82.2234 43.164 81.7072 43.0233C81.1931 42.8806 80.5211 42.8092 79.6904 42.8092H77.9991V49.3533H80.6551C81.5256 49.3533 82.269 49.2096 82.8864 48.9213C83.5027 48.6339 84.0655 48.1989 84.5737 47.6172C85.0819 47.0365 85.6109 46.2973 86.1618 45.4015Z" fill="white"/>
<path d="M107.109 43.6139C106.693 43.6674 106.334 43.7675 106.033 43.9152C105.731 44.0638 105.58 44.3175 105.58 44.6762V48.5289C105.58 48.8916 105.731 49.1423 106.033 49.282C106.334 49.4227 106.693 49.5199 107.109 49.5754V49.6744H102.567L102.765 48.3506C102.297 48.8183 101.717 49.2028 101.026 49.504C100.337 49.8052 99.5434 49.9559 98.6442 49.9559C97.7072 49.9559 96.806 49.7745 95.9405 49.4128C95.077 49.0511 94.3067 48.5468 93.6298 47.8987C92.9519 47.2486 92.4189 46.4797 92.0298 45.5918C91.6427 44.702 91.4502 43.7348 91.4502 42.6904C91.4502 41.4854 91.6904 40.4261 92.1728 39.5115C92.6542 38.5948 93.3043 37.8289 94.1221 37.2125C94.94 36.5971 95.8511 36.1324 96.8576 35.8173C97.863 35.5031 98.8804 35.3456 99.9106 35.3456C101.226 35.3456 102.338 35.5576 103.25 35.9798C104.16 36.3999 104.843 36.8914 105.298 37.4543L102.384 41.3467L102.325 41.3268C102.592 40.6322 102.699 39.9574 102.646 39.3014C102.592 38.6434 102.405 38.0508 102.082 37.5217C101.762 36.9935 101.316 36.5763 100.744 36.2691C100.175 35.96 99.4958 35.8054 98.7077 35.8054C97.9027 35.8054 97.1792 36.0065 96.536 36.4079C95.8928 36.8102 95.3827 37.4186 95.0075 38.2351C94.6313 39.0517 94.4437 40.0892 94.4437 41.3467C94.4437 42.3643 94.5906 43.3315 94.8844 44.2481C95.1802 45.1627 95.5931 45.9713 96.1231 46.6739C96.6521 47.3775 97.2754 47.9294 97.993 48.3307C98.7097 48.7331 99.4977 48.9332 100.355 48.9332C100.945 48.9332 101.437 48.846 101.832 48.6716C102.226 48.4972 102.557 48.2703 102.825 47.9899V44.6762C102.825 44.4364 102.734 44.256 102.555 44.1371C102.374 44.0162 102.007 43.929 101.451 43.8755C100.895 43.823 100.054 43.7824 98.926 43.7526L99.331 43.5148H107.109V43.6139Z" fill="white"/>
<path d="M120.253 47.1456C120.494 47.7619 120.708 48.2395 120.897 48.5804C121.084 48.9213 121.282 49.1661 121.488 49.3137C121.697 49.4624 121.949 49.5555 122.243 49.5951V49.6744H115.89V49.5951C116.359 49.5555 116.746 49.4663 117.054 49.3256C117.363 49.1829 117.558 48.952 117.637 48.632C117.719 48.3099 117.639 47.8541 117.399 47.2645L116.998 46.2617H109.32L108.875 47.2645C108.621 47.8412 108.527 48.2831 108.593 48.5923C108.662 48.8995 108.829 49.1225 109.097 49.2622C109.364 49.4029 109.686 49.5139 110.062 49.5951V49.6744H106.362V49.5951C106.645 49.5139 106.896 49.3999 107.116 49.2543C107.338 49.1066 107.553 48.8797 107.759 48.5725C107.968 48.2633 108.193 47.8214 108.434 47.2447L112.837 37.1134L112.794 36.5307L113.179 36.3087L115.549 35.0443C115.549 35.0978 115.571 35.2148 115.616 35.3971C115.664 35.5774 115.796 35.9272 116.013 36.4475L120.253 47.1456ZM109.459 45.901H116.855L113.298 37.05L109.459 45.901Z" fill="white"/>
<path d="M133.6 45.5402L133.679 45.5799L132.635 49.6744L132.512 50.1144L131.829 49.6744H121.598V49.5753C122.013 49.4277 122.372 49.166 122.674 48.7905C122.976 48.4159 123.127 47.9611 123.127 47.427V36.7685C123.127 36.4098 122.976 36.1601 122.674 36.0194C122.372 35.8767 122.013 35.7796 121.598 35.726V35.627H127.609V35.726C127.098 35.7796 126.681 35.8767 126.358 36.0194C126.038 36.1601 125.878 36.4098 125.878 36.7685V49.3533H127.426C128.27 49.3533 128.988 49.2661 129.578 49.0917C130.168 48.9173 130.68 48.6706 131.115 48.3505C131.551 48.0285 131.96 47.6311 132.341 47.1574C132.723 46.6818 133.141 46.1427 133.6 45.5402Z" fill="white"/>
<path d="M140.454 35.627C142.248 35.627 143.638 35.9619 144.622 36.6298C145.607 37.2987 146.099 38.3362 146.099 39.7413C146.099 40.759 145.827 41.636 145.285 42.3732C144.742 43.1085 143.979 43.6723 142.995 44.0657C142.01 44.4601 140.855 44.6563 139.529 44.6563H137.214V48.5289C137.214 48.8916 137.365 49.1423 137.667 49.282C137.968 49.4227 138.327 49.5198 138.742 49.5753V49.6744H132.934V49.5753C133.349 49.5198 133.708 49.4227 134.01 49.282C134.312 49.1423 134.463 48.8916 134.463 48.5289V36.7685C134.463 36.4098 134.312 36.1601 134.01 36.0194C133.708 35.8767 133.349 35.7796 132.934 35.726V35.627H140.454ZM140.291 44.3353C140.987 44.3353 141.562 44.2421 142.018 44.0538C142.475 43.8665 142.818 43.5128 143.046 42.9916C143.273 42.4713 143.388 41.7024 143.388 40.6847C143.388 40.1089 143.333 39.5411 143.225 38.9803C143.119 38.4174 142.924 37.9091 142.641 37.4542C142.36 36.9974 141.955 36.6327 141.426 36.3602C140.896 36.0858 140.203 35.948 139.346 35.948H137.214V43.8556C137.724 44.0013 138.24 44.1172 138.762 44.2045C139.286 44.2917 139.796 44.3353 140.291 44.3353Z" fill="white"/>
<path d="M151.544 32.3371C151.062 32.3371 150.681 32.571 150.401 33.0387L150.361 33.0189L151.366 31.3105C151.553 30.9915 151.8 30.8309 152.108 30.8309C152.375 30.8309 152.666 30.8924 152.982 31.0133C153.296 31.1322 153.629 31.2769 153.978 31.4453C154.327 31.6118 154.669 31.7565 155.002 31.8774C155.338 31.9963 155.654 32.0557 155.947 32.0557C156.187 32.0557 156.412 31.9864 156.618 31.8456C156.827 31.703 156.999 31.5246 157.134 31.3105L157.174 31.3304L156.189 33.0585C156.096 33.1913 155.983 33.3112 155.848 33.4192C155.713 33.5253 155.572 33.5778 155.427 33.5778C155.17 33.5778 154.877 33.5144 154.55 33.3875C154.221 33.2607 153.887 33.118 153.545 32.9595C153.204 32.7989 152.862 32.6542 152.521 32.5274C152.18 32.4006 151.854 32.3371 151.544 32.3371ZM159.648 47.1456C159.888 47.762 160.102 48.2396 160.291 48.5805C160.478 48.9214 160.676 49.1661 160.882 49.3138C161.091 49.4624 161.343 49.5556 161.637 49.5952V49.6745H155.284V49.5952C155.753 49.5556 156.14 49.4664 156.448 49.3257C156.757 49.183 156.952 48.9521 157.031 48.632C157.113 48.31 157.033 47.8541 156.793 47.2645L156.392 46.2617H148.714L148.269 47.2645C148.015 47.8413 147.921 48.2832 147.987 48.5924C148.056 48.8996 148.223 49.1225 148.491 49.2623C148.758 49.403 149.08 49.5139 149.456 49.5952V49.6745H145.756V49.5952C146.039 49.5139 146.29 49.4 146.51 49.2543C146.733 49.1067 146.947 48.8798 147.153 48.5726C147.362 48.2634 147.587 47.8214 147.828 47.2447L152.231 37.1134L152.188 36.5308L152.573 36.3088L154.943 35.0444C154.943 35.0979 154.965 35.2148 155.01 35.3971C155.058 35.5775 155.19 35.9273 155.407 36.4475L159.648 47.1456ZM148.853 45.901H156.249L152.692 37.05L148.853 45.901Z" fill="white"/>
<path d="M169.353 35.3456C170.438 35.3456 171.45 35.514 172.387 35.849C173.326 36.1819 174.147 36.6675 174.852 37.3037C175.556 37.9379 176.105 38.7068 176.5 39.6105C176.894 40.5143 177.091 41.528 177.091 42.6507C177.091 43.7744 176.894 44.7872 176.5 45.6909C176.105 46.5946 175.556 47.3656 174.852 48.0018C174.147 48.6359 173.326 49.1215 172.387 49.4564C171.45 49.7894 170.438 49.9559 169.353 49.9559C168.255 49.9559 167.235 49.7894 166.296 49.4564C165.359 49.1215 164.539 48.6359 163.835 48.0018C163.133 47.3656 162.584 46.5946 162.187 45.6909C161.792 44.7872 161.596 43.7744 161.596 42.6507C161.596 41.528 161.792 40.5143 162.187 39.6105C162.584 38.7068 163.133 37.9379 163.835 37.3037C164.539 36.6675 165.359 36.1819 166.296 35.849C167.235 35.514 168.255 35.3456 169.353 35.3456ZM170.199 49.5952C171.003 49.5952 171.704 49.3573 172.299 48.8817C172.895 48.4061 173.356 47.7471 173.685 46.9038C174.012 46.0615 174.177 45.0845 174.177 43.9746C174.177 42.9708 174.039 41.9809 173.764 41.0058C173.491 40.0287 173.099 39.1418 172.589 38.3461C172.081 37.5514 171.477 36.9132 170.779 36.4316C170.082 35.9481 169.319 35.7063 168.488 35.7063C167.686 35.7063 166.985 35.9421 166.388 36.4118C165.792 36.8795 165.33 37.5355 165.002 38.3778C164.674 39.2181 164.51 40.1952 164.51 41.307C164.51 42.3089 164.647 43.3028 164.923 44.2877C165.198 45.2707 165.59 46.1606 166.098 46.9553C166.606 47.751 167.208 48.3902 167.904 48.8738C168.603 49.3554 169.367 49.5952 170.199 49.5952Z" fill="white"/>
</g>
<defs>
<clipPath id="clip0_81_13">
<rect width="177" height="60" fill="white"/>
</clipPath>
</defs>
</svg>
