<svg width="30" height="30" viewBox="0 0 30 30" fill="none" xmlns="http://www.w3.org/2000/svg">
<circle cx="15" cy="15" r="15" fill="#D9D9D9"/>
<path fill-rule="evenodd" clip-rule="evenodd" d="M7.91685 14C7.91685 10.088 11.0882 6.91667 15.0002 6.91667C18.9122 6.91667 22.0835 10.088 22.0835 14C22.0835 17.912 18.9122 21.0833 15.0002 21.0833C13.6067 21.0833 12.3096 20.6818 11.2151 19.9884C11.0115 19.8594 10.7619 19.8249 10.5309 19.8938L8.13157 20.6099L9.03494 18.4961C9.14171 18.2462 9.11999 17.9601 8.97672 17.7292C8.30491 16.6467 7.91685 15.3699 7.91685 14ZM15.0002 5.25C10.1677 5.25 6.25018 9.16751 6.25018 14C6.25018 15.5317 6.64446 16.9736 7.33737 18.2273L5.90056 21.5892C5.77354 21.8864 5.82984 22.2302 6.04501 22.4714C6.26019 22.7127 6.59543 22.8077 6.90516 22.7152L10.6547 21.5962C11.9355 22.3304 13.4199 22.75 15.0002 22.75C19.8327 22.75 23.7502 18.8325 23.7502 14C23.7502 9.16751 19.8327 5.25 15.0002 5.25ZM16.9106 15.8187L15.8154 16.5901C15.3025 16.2979 14.7354 15.8901 14.1666 15.3212C13.5752 14.7299 13.1368 14.1194 12.8136 13.5594L13.5096 12.9687C13.8082 12.7152 13.89 12.2878 13.706 11.9419L12.8192 10.2752C12.6998 10.0508 12.4845 9.89317 12.2345 9.84712C11.9844 9.80107 11.7271 9.87167 11.5356 10.0388L11.2726 10.2683C10.6404 10.8201 10.2664 11.7269 10.5763 12.6451C10.8976 13.5969 11.5834 15.095 12.9881 16.4997C14.4994 18.0111 16.0346 18.6062 16.9323 18.8374C17.6557 19.0236 18.3402 18.774 18.8225 18.381L19.3154 17.9793C19.5262 17.8076 19.64 17.5437 19.6202 17.2724C19.6002 17.0012 19.4492 16.7567 19.2156 16.6174L17.817 15.7841C17.5345 15.6158 17.1795 15.6293 16.9106 15.8187Z" fill="#003F79"/>
</svg>
